<svg width="285" height="29" viewBox="0 0 285 29" fill="none" xmlns="http://www.w3.org/2000/svg">
<path fill-rule="evenodd" clip-rule="evenodd" d="M120 15H0V12H120V15Z" fill="#05595B"/>
<path fill-rule="evenodd" clip-rule="evenodd" d="M285 15H165V12H285V15Z" fill="#05595B"/>
<path fill-rule="evenodd" clip-rule="evenodd" d="M142.5 3.5C136.425 3.5 131.5 8.42487 131.5 14.5C131.5 20.5751 136.425 25.5 142.5 25.5C148.575 25.5 153.5 20.5751 153.5 14.5C153.5 8.42487 148.575 3.5 142.5 3.5ZM128.5 14.5C128.5 6.76801 134.768 0.5 142.5 0.5C150.232 0.5 156.5 6.76801 156.5 14.5C156.5 22.232 150.232 28.5 142.5 28.5C134.768 28.5 128.5 22.232 128.5 14.5Z" fill="#05595B"/>
</svg>
