<svg width="1440" height="1199" viewBox="0 0 1440 1199" fill="none" xmlns="http://www.w3.org/2000/svg">
<g clip-path="url(#clip0_1_2)">
<rect width="1440" height="6524" transform="translate(0 -5324)" fill="#FFFAE3"/>
<path d="M1422 1107.96V1196H-19V1104.99C115.147 1086.93 257.437 1079.1 398.441 1073.61C741.913 1060.22 1099.16 1060.47 1422 1107.96Z" fill="#ACC87C"/>
<path d="M-19 1023.72V1195.44H290.109C281.12 1183.26 268.578 1173.72 254.422 1168.4C246.546 1165.44 238.172 1163.79 229.759 1163.46C222.037 1163.17 214.278 1163.98 206.825 1165.94C205.404 1166.3 203.963 1166.71 202.561 1167.17C201.005 1156.72 194.609 1146.86 189.135 1137.82C183.795 1129 177.399 1120.55 168.87 1114.77C158.921 1108.03 146.513 1105.41 134.508 1106.14C122.503 1106.91 110.882 1110.87 100.203 1116.42C98.5895 1107.68 94.0757 1100.23 86.5847 1095.43C79.0937 1090.62 69.6243 1089.09 60.9809 1091.26C48.8224 1066.38 29.1345 1043.93 4.14528 1032.02C-3.2881 1028.49 -11.0288 1025.7 -19 1023.72Z" fill="#F3C24C"/>
<path d="M1155.41 1196.78H1440.96V1075.69C1431.49 1073.24 1421.58 1072.62 1411.89 1074.08C1384.27 1078.31 1359.94 1099.47 1351.95 1126.25C1335.62 1116.49 1315.07 1117.24 1297.15 1123.56C1279.21 1129.88 1264.38 1144.44 1257.75 1162.28C1251.34 1160.05 1244.69 1158.34 1237.95 1157.27C1232.76 1156.42 1227.5 1155.96 1222.28 1155.92C1212.25 1155.87 1202.28 1157.38 1192.91 1160.88C1176.2 1167.1 1161.71 1180.36 1155.41 1196.78Z" fill="#FC92BA"/>
<path d="M1316.53 1151.35C1312.59 1178.9 1312.82 1207.04 1317.2 1234.52" stroke="#2F1C3B" stroke-miterlimit="10" stroke-linecap="round" stroke-linejoin="round"/>
<path d="M1314.65 1219.21C1310.07 1202.1 1298.07 1187.12 1282.36 1178.94C1281.24 1186.43 1285.33 1193.19 1289.83 1199.26C1296.15 1207.73 1304.68 1215.74 1314.65 1219.21Z" fill="#2F1C3B"/>
<path d="M1283.28 1162.82C1283.64 1163.2 1284.03 1163.61 1284.39 1163.97L1304.91 1155.67C1298.72 1158.88 1292.63 1162.3 1286.7 1165.99C1290.67 1169.19 1295.32 1171.56 1300.01 1173.59C1303.2 1174.98 1306.48 1176.22 1309.84 1177.26C1311.71 1171.6 1313.74 1166.26 1315.59 1160.49C1316.91 1166.79 1318.1 1173.13 1319.16 1179.51C1326.53 1180.78 1333.99 1180.7 1341.09 1178.43C1344.03 1177.49 1346.95 1176.09 1349.2 1174.02C1343.9 1166.97 1337.58 1161.22 1330.3 1156.15C1338.46 1158.98 1345.57 1164.09 1352.33 1169.56C1354.92 1163.2 1351.45 1155.69 1347.11 1150.2C1345.26 1147.85 1343.23 1145.67 1341.04 1143.65C1335.6 1143.09 1330.03 1143.76 1324.84 1145.57C1329.22 1143.61 1333.83 1142.23 1338.56 1141.5C1336.87 1140.1 1335.1 1138.79 1333.26 1137.6C1327.07 1133.55 1320.27 1130.8 1313.15 1129.47C1313.76 1133.18 1314.26 1136.91 1313.86 1140.67C1313.8 1141.09 1314.15 1140.98 1313.86 1141.29C1312.51 1136.98 1310.78 1132.82 1308.73 1128.82C1306.25 1128.57 1303.75 1128.47 1301.24 1128.55C1295.55 1128.74 1289.1 1130.3 1284.28 1133.76C1290.04 1136.58 1295.57 1139.9 1300.78 1143.63C1294.82 1139.71 1288.52 1137.43 1281.72 1135.89C1279.46 1138.16 1277.79 1141.02 1277.11 1144.55C1275.87 1151.08 1278.73 1157.94 1283.28 1162.82Z" fill="white"/>
<path d="M1329.99 1147.74C1332.12 1150.45 1333.81 1154.19 1332.22 1157.27C1331.24 1159.17 1329.2 1160.3 1327.17 1160.95C1320.89 1162.95 1314.01 1161.32 1307.96 1158.69C1305.1 1157.44 1302.26 1155.94 1300.14 1153.66C1298.01 1151.37 1296.69 1148.16 1297.26 1145.09C1298.26 1139.86 1303.93 1137.77 1308.56 1137.62C1313.9 1137.44 1319.04 1138.92 1323.52 1141.84C1325.96 1143.46 1328.17 1145.45 1329.99 1147.74Z" fill="#F3C24C"/>
<path d="M1372.29 1096.71C1381.37 1135.27 1384.48 1175.25 1381.53 1214.77" stroke="#2F1C3B" stroke-miterlimit="10" stroke-linecap="round" stroke-linejoin="round"/>
<path d="M1383.93 1207.11C1402.81 1191.4 1412.76 1165.6 1409.32 1141.29C1401.06 1150.1 1396.18 1159.86 1392.55 1171.38C1388.92 1182.91 1385.79 1195.18 1383.93 1207.11Z" fill="#2F1C3B"/>
<path d="M1405.29 1104.29C1404.92 1104.68 1404.54 1105.08 1404.17 1105.44L1383.66 1097.15C1389.84 1100.35 1395.93 1103.77 1401.87 1107.46C1397.89 1110.67 1393.24 1113.03 1388.56 1115.07C1385.37 1116.45 1382.08 1117.7 1378.72 1118.74C1376.86 1113.07 1374.82 1107.73 1372.98 1101.97C1371.65 1108.27 1370.46 1114.61 1369.41 1120.98C1362.03 1122.25 1354.58 1122.17 1347.47 1119.91C1344.53 1118.97 1341.61 1117.56 1339.37 1115.49C1344.67 1108.44 1350.99 1102.7 1358.27 1097.63C1350.1 1100.45 1343 1105.56 1336.23 1111.03C1333.64 1104.68 1337.12 1097.17 1341.46 1091.67C1343.3 1089.33 1345.34 1087.14 1347.53 1085.12C1352.96 1084.57 1358.54 1085.24 1363.72 1087.04C1359.34 1085.08 1354.73 1083.7 1350.01 1082.97C1351.7 1081.57 1353.46 1080.26 1355.31 1079.07C1361.49 1075.02 1368.29 1072.27 1375.42 1070.95C1374.8 1074.65 1374.3 1078.38 1374.71 1082.15C1374.77 1082.57 1374.42 1082.45 1374.71 1082.76C1376.05 1078.46 1377.78 1074.29 1379.84 1070.29C1382.31 1070.05 1384.81 1069.95 1387.33 1070.03C1393.01 1070.22 1399.47 1071.77 1404.29 1075.23C1398.53 1078.05 1392.99 1081.38 1387.79 1085.1C1393.74 1081.19 1400.04 1078.9 1406.84 1077.36C1409.11 1079.63 1410.78 1082.49 1411.45 1086.03C1412.7 1092.56 1409.84 1099.41 1405.29 1104.29Z" fill="white"/>
<path d="M1358.57 1089.21C1356.44 1091.92 1354.75 1095.67 1356.35 1098.74C1357.32 1100.64 1359.36 1101.78 1361.4 1102.43C1367.68 1104.43 1374.55 1102.79 1380.6 1100.16C1383.47 1098.91 1386.31 1097.42 1388.42 1095.13C1390.55 1092.84 1391.88 1089.64 1391.3 1086.56C1390.3 1081.34 1384.64 1079.25 1380.01 1079.09C1374.67 1078.92 1369.52 1080.4 1365.05 1083.32C1362.59 1084.93 1360.38 1086.93 1358.57 1089.21Z" fill="#F3C24C"/>
<path d="M1202.55 1195.09C1202.72 1195.9 1202.91 1196.78 1203.2 1197.76H1237.91C1244.15 1186.58 1247.88 1174.1 1246.32 1161.55C1246.19 1160.44 1246 1159.31 1245.63 1158.25C1245.42 1157.62 1245.13 1157.02 1244.77 1156.48C1242.67 1153.31 1238.1 1152.54 1234.55 1153.91C1232.82 1154.58 1231.28 1155.64 1229.96 1156.92C1228.54 1158.27 1227.35 1159.82 1226.25 1161.46C1223.24 1165.99 1220.93 1171.52 1219.7 1176.84C1218.84 1175.54 1217.99 1174.23 1217.13 1172.94C1216.23 1171.58 1215.28 1170.2 1213.86 1169.39C1211.33 1167.97 1207.95 1168.99 1205.93 1171.08C1203.91 1173.19 1203.01 1176.13 1202.47 1178.97C1201.47 1184.28 1201.51 1189.79 1202.55 1195.09Z" fill="#2F1C3B"/>
<path d="M938.693 1123.89C942.631 1151.43 942.4 1179.57 938.021 1207.05" stroke="#2F1C3B" stroke-miterlimit="10" stroke-linecap="round" stroke-linejoin="round"/>
<path d="M940.576 1191.75C945.147 1174.63 957.152 1159.65 972.864 1151.47C973.978 1158.94 969.887 1165.72 965.392 1171.79C959.073 1180.26 950.544 1188.27 940.576 1191.75Z" fill="#2F1C3B"/>
<path d="M971.942 1135.35C971.577 1135.74 971.193 1136.14 970.828 1136.5L950.314 1128.21C956.499 1131.41 962.588 1134.83 968.523 1138.52C964.547 1141.73 959.899 1144.09 955.212 1146.13C952.023 1147.51 948.739 1148.76 945.378 1149.8C943.514 1144.13 941.478 1138.79 939.635 1133.03C938.309 1139.33 937.118 1145.67 936.062 1152.04C928.686 1153.31 921.234 1153.23 914.127 1150.97C911.188 1150.03 908.268 1148.62 906.021 1146.55C911.322 1139.5 917.642 1133.76 924.921 1128.69C916.758 1131.51 909.651 1136.62 902.89 1142.09C900.297 1135.74 903.774 1128.23 908.115 1122.73C909.959 1120.39 911.995 1118.2 914.184 1116.18C919.62 1115.63 925.19 1116.3 930.376 1118.1C925.997 1116.14 921.387 1114.76 916.662 1114.03C918.352 1112.63 920.119 1111.32 921.963 1110.13C928.148 1106.08 934.948 1103.33 942.074 1102.01C941.459 1105.71 940.96 1109.44 941.363 1113.21C941.421 1113.63 941.075 1113.51 941.363 1113.82C942.708 1109.52 944.436 1105.35 946.492 1101.35C948.969 1101.1 951.466 1101.01 953.983 1101.09C959.668 1101.28 966.122 1102.83 970.943 1106.29C965.181 1109.11 959.649 1112.44 954.444 1116.16C960.398 1112.25 966.698 1109.96 973.498 1108.42C975.764 1110.69 977.435 1113.55 978.108 1117.09C979.356 1123.62 976.494 1130.47 971.942 1135.35Z" fill="white"/>
<path d="M925.229 1120.29C923.097 1123 921.406 1126.75 923.001 1129.82C923.98 1131.72 926.016 1132.85 928.052 1133.51C934.333 1135.51 941.21 1133.87 947.26 1131.24C950.122 1129.99 952.965 1128.49 955.077 1126.21C957.21 1123.92 958.535 1120.72 957.959 1117.64C956.96 1112.42 951.294 1110.32 946.664 1110.17C941.325 1110 936.177 1111.48 931.702 1114.4C929.243 1115.99 927.053 1117.99 925.229 1120.29Z" fill="#F593AF"/>
<path d="M479.217 1122.97C475.068 1127.89 472.053 1133.65 469.363 1139.49C461.411 1156.86 456.225 1175.47 454.036 1194.45" stroke="#2F1C3B" stroke-miterlimit="10" stroke-linecap="round" stroke-linejoin="round"/>
<path d="M456.59 1121.02C456.763 1121.4 456.936 1121.8 457.109 1122.17L474.53 1121.51C469.075 1122.23 463.659 1123.15 458.281 1124.28C460.355 1127.72 463.179 1130.72 466.117 1133.48C468.115 1135.34 470.209 1137.17 472.417 1138.82C475.318 1135.13 478.257 1131.71 481.157 1127.93C480.446 1132.96 479.64 1137.98 478.718 1142.97C483.846 1145.89 489.397 1147.83 495.255 1148.04C497.676 1148.14 500.23 1147.87 502.439 1146.93C500.403 1140.28 497.253 1134.35 493.219 1128.64C498.521 1132.92 502.42 1138.61 505.954 1144.49C509.584 1140.47 509.008 1133.98 507.279 1128.74C506.55 1126.51 505.608 1124.34 504.533 1122.26C500.653 1120.4 496.35 1119.4 492.009 1119.34C495.774 1119.06 499.577 1119.27 503.265 1120C502.381 1118.5 501.421 1117.06 500.384 1115.7C496.888 1111.05 492.586 1107.19 487.668 1104.29C487.131 1107.21 486.497 1110.09 485.191 1112.78C485.037 1113.08 485.325 1113.08 485.018 1113.22C485.171 1109.66 484.999 1106.13 484.557 1102.6C482.79 1101.75 480.965 1101 479.083 1100.39C474.818 1099 469.613 1098.45 465.119 1099.7C468.634 1103.33 471.841 1107.26 474.703 1111.43C471.342 1106.92 467.27 1103.56 462.66 1100.6C460.374 1101.67 458.357 1103.34 456.936 1105.78C454.228 1110.32 454.516 1116.18 456.59 1121.02Z" fill="white"/>
<path d="M495.236 1122.36C496.101 1124.93 496.35 1128.16 494.333 1130.02C493.104 1131.18 491.299 1131.46 489.608 1131.41C484.422 1131.21 479.755 1128.14 475.99 1124.59C474.204 1122.9 472.494 1121.03 471.534 1118.77C470.574 1116.5 470.439 1113.77 471.688 1111.66C473.82 1108.05 478.583 1108.03 482.06 1109.15C486.055 1110.45 489.493 1112.93 492.009 1116.29C493.412 1118.1 494.506 1120.15 495.236 1122.36Z" fill="#F3C24C"/>
<path d="M457.551 1173.57C460.086 1161.08 454.631 1147.35 444.24 1140.01C442.569 1145.22 442.53 1150.38 444.47 1155.49C447.044 1162.25 452.307 1168.57 457.551 1173.57Z" fill="#2F1C3B"/>
<path d="M474.204 1182.08C472.571 1181.42 470.708 1181.5 469.056 1182.06C467.385 1182.62 465.906 1183.59 464.542 1184.71C462.468 1186.4 460.682 1188.42 459.222 1190.66C458.338 1192.03 457.378 1193.51 456.667 1194.93C463.889 1194.24 470.881 1188.24 474.204 1182.08Z" fill="#2F1C3B"/>
<path d="M337.689 1094.06L271 1100.84C272.537 1096.07 275.014 1091.6 278.568 1088.08C283.255 1083.45 289.996 1080.69 296.546 1081.61C303.077 1082.53 309.089 1087.51 310.357 1094C313.334 1088.87 319.403 1085.68 325.319 1086.16C330.39 1086.6 335.135 1089.68 337.689 1094.06Z" fill="#5285FA"/>
<path d="M1090.86 1100.92L1005 1100C1007.04 1096.69 1010.38 1094.18 1014.14 1093.26C1019.41 1091.97 1025.3 1093.83 1028.88 1097.9C1031.85 1092.39 1036.17 1087.19 1042.17 1085.34C1048.14 1083.5 1055.79 1086.36 1057.4 1092.41C1061.7 1084.31 1070.48 1076.99 1079.31 1079.5C1087.79 1081.9 1091.51 1092.07 1090.86 1100.92Z" fill="#5285FA"/>
<path d="M719.62 1189.24H659C662.477 1184.57 666.971 1180.67 672.465 1178.9C679.956 1176.47 689.367 1179 692.998 1186.01C696.57 1181.27 702.89 1178.71 708.671 1180.02C713.511 1181.09 717.68 1184.69 719.62 1189.24Z" fill="#5285FA"/>
<path d="M8.30374 592.393C-1.41537 649.455 13.7248 666.15 30.3553 683.882C75.1928 731.743 146.855 711.138 147.309 793.88C147.719 870.985 129.101 877.551 141.369 904.981" stroke="#2F1C3B" stroke-width="0.9262" stroke-miterlimit="10" stroke-linecap="round" stroke-linejoin="round"/>
<path d="M-1.3504 594.898C-1.372 595.135 -1.3936 595.373 -1.4368 595.632C2.06208 598.029 6.05772 599.714 10.2045 600.578C11.9108 600.923 14.0274 601.485 15.496 600.535C14.4161 594.509 13.725 588.418 13.4658 582.306C12.1268 581.96 10.6365 580.924 9.29742 580.578C7.22401 585.999 2.75322 590.772 -1.3504 594.898Z" fill="#615BA3"/>
<path opacity="0.19" d="M-1.3504 594.898C-1.372 595.135 -1.3936 595.373 -1.4368 595.632C2.06208 598.029 6.05772 599.714 10.2045 600.578C11.9108 600.923 14.0274 601.485 15.496 600.535C14.4161 594.509 13.725 588.418 13.4658 582.306C12.1268 581.96 10.6365 580.924 9.29742 580.578C7.22401 585.999 2.75322 590.772 -1.3504 594.898Z" fill="#615BA3"/>
<path d="M-52.9481 480.041C-56.4902 493 -56.8573 506.088 -54.5248 518.464C-51.2635 535.656 -42.7754 551.487 -30.3134 563.712C-20.2271 573.625 -7.54909 581.163 7.02957 585.158C52.6014 597.62 99.7066 570.796 112.169 525.202C114.372 517.146 115.365 509.047 115.192 501.077V501.056C115.149 499.069 115.041 497.082 114.89 495.116C111.845 460.473 87.6981 429.761 52.2126 420.042C6.59761 407.601 -40.4645 434.447 -52.9481 480.041Z" fill="#615BA3"/>
<path d="M-13.4668 464.49C-16.7281 466.585 -20.6374 468.658 -24.309 467.405C-27.1384 466.433 -29.0174 463.604 -29.4925 460.645C-29.9677 457.708 -29.2118 454.684 -28.0671 451.92C-24.309 442.935 -12.7541 431.531 -1.97669 437.125C11.6517 444.231 -6.64186 460.127 -13.4668 464.49Z" fill="white"/>
<path opacity="0.19" d="M-30.3133 563.734C-20.2271 573.647 -7.54902 581.185 7.02963 585.181C52.6014 597.643 99.7067 570.818 112.169 525.225C114.933 515.138 115.776 504.987 114.89 495.139C112.773 504.145 109.167 512.827 104.221 521.38C99.1883 530.106 93.1193 538.356 85.2792 544.663C79.2102 549.544 72.234 553.151 65.0851 556.218C40.4202 566.844 12.9475 571.358 -13.6397 567.622C-19.2767 566.801 -24.957 565.613 -30.3133 563.734Z" fill="#6EAFFA"/>
<path d="M1364.25 575.412C1353.03 590.047 1349.34 610.165 1354.62 627.836C1357.6 637.784 1363.19 646.857 1365.68 656.938C1368.13 666.853 1367.4 677.53 1363.64 687.031C1361.02 693.664 1356.73 699.903 1350.52 703.421C1344.32 706.938 1336 707.2 1330.32 702.866C1322.65 696.97 1322.87 683.883 1330.06 677.394C1337.25 670.906 1349.22 671.354 1356.73 677.435C1364.27 683.533 1367.3 694.151 1365.5 703.664C1364.06 711.31 1359.87 718.145 1355.81 724.803C1341 749.06 1326.37 774.23 1321.23 802.193C1313.71 843.07 1328.69 887.37 1359.52 915.262" stroke="#2F1C3B" stroke-width="0.9262" stroke-miterlimit="10" stroke-linecap="round" stroke-linejoin="round"/>
<path d="M1370.62 586.604C1370.53 586.84 1370.44 587.055 1370.35 587.291C1366.14 587.783 1361.83 587.414 1357.75 586.256C1356.08 585.774 1353.95 585.268 1353.1 583.755C1356.86 578.931 1360.29 573.84 1363.38 568.569C1364.74 568.89 1366.52 568.671 1367.9 568.988C1367.18 574.743 1368.91 581.034 1370.62 586.604Z" fill="#F593AF"/>
<path d="M1453.23 543.703C1445.84 553.04 1436.6 560.676 1426.15 566.163C1421.25 568.759 1416.11 570.894 1410.76 572.496C1397.21 576.578 1382.51 577.359 1367.72 574.115C1321.57 563.944 1292.37 518.294 1302.54 472.139C1302.69 471.451 1302.86 470.784 1303.02 470.117C1303.16 469.543 1303.31 468.944 1303.47 468.366C1303.86 466.91 1304.27 465.493 1304.74 464.089C1304.86 463.65 1305 463.229 1305.16 462.803C1305.46 461.914 1305.76 461.046 1306.1 460.17C1306.38 459.394 1306.7 458.632 1307 457.874C1307.1 457.592 1307.23 457.327 1307.33 457.045C1307.66 456.257 1308 455.47 1308.39 454.696C1308.74 453.884 1309.12 453.089 1309.52 452.29C1309.61 452.143 1309.69 451.975 1309.76 451.807C1310.18 450.983 1310.62 450.133 1311.06 449.327L1311.04 449.309C1311.1 449.187 1311.17 449.087 1311.24 448.986C1311.67 448.205 1312.12 447.419 1312.57 446.676C1313.05 445.819 1313.56 445 1314.09 444.178C1315.69 441.686 1317.42 439.28 1319.28 436.982C1338.97 412.374 1371.63 399.646 1404.5 406.866C1450.66 417.058 1479.84 462.713 1469.69 508.863C1466.83 522.063 1461.07 533.801 1453.23 543.703Z" fill="#F593AF"/>
<path d="M1442.01 476.812C1443.93 480.191 1446.4 483.841 1450.24 484.428C1453.18 484.895 1456.2 483.241 1457.98 480.87C1459.77 478.474 1460.51 475.46 1460.76 472.494C1461.6 462.785 1456.68 447.33 1444.55 447.264C1429.2 447.197 1438.01 469.776 1442.01 476.812Z" fill="white"/>
<path opacity="0.19" d="M1410.76 572.497C1397.21 576.578 1382.51 577.36 1367.72 574.115C1321.57 563.945 1292.37 518.294 1302.54 472.139C1302.69 471.451 1302.86 470.784 1303.02 470.117C1303.16 469.543 1303.31 468.944 1303.47 468.366C1303.86 466.91 1304.27 465.493 1304.74 464.089C1304.86 463.65 1305 463.229 1305.16 462.803C1305.46 461.914 1305.76 461.046 1306.1 460.17C1306.38 459.394 1306.7 458.632 1307 457.874C1307.1 457.592 1307.23 457.327 1307.33 457.045C1307.66 456.258 1308 455.47 1308.39 454.697C1308.74 453.884 1309.12 453.089 1309.52 452.29C1309.61 452.143 1309.69 451.975 1309.76 451.807C1310.18 450.983 1310.62 450.134 1311.06 449.327C1311.13 449.205 1311.19 449.083 1311.24 448.986C1311.67 448.205 1312.12 447.419 1312.57 446.676C1313.05 445.819 1313.56 445.001 1314.09 444.178C1311.74 453.133 1310.93 462.508 1311.32 472.384C1311.73 482.434 1313.25 492.564 1317.28 501.791C1320.37 508.928 1324.88 515.367 1329.77 521.404C1346.65 542.272 1368.88 559.056 1394.14 568.119C1399.57 570.081 1405.14 571.668 1410.76 572.497Z" fill="#FF8C9C"/>
<path d="M73.0589 265.1C73.3829 273.091 71.6767 318.166 110.661 352.766C139.278 378.165 180.293 372.593 190.25 410.951C196.168 433.802 164.829 453.801 154.116 431.663C141.978 406.588 192.042 394.061 203.964 437.387C217.01 484.881 187.831 590.43 104.268 639.112" stroke="#2F1C3B" stroke-width="0.9262" stroke-miterlimit="10" stroke-linecap="round" stroke-linejoin="round"/>
<path d="M80.8993 268.748C80.9209 268.986 80.9425 269.223 80.9857 269.482C77.4868 271.88 73.5344 273.608 69.366 274.472C67.6597 274.839 65.5431 275.4 64.0744 274.45C65.1327 268.424 65.7807 262.312 65.9967 256.2C67.3357 255.832 68.826 254.817 70.1651 254.45C72.2817 259.893 76.7741 264.644 80.8993 268.748Z" fill="#F3C24C"/>
<path d="M133.642 192.055C131.503 203.761 126.925 214.862 120.294 224.603C117.184 229.204 113.642 233.48 109.689 237.411C99.6678 247.367 87.033 254.97 72.476 259.052C26.9689 271.773 -20.2659 245.186 -32.9871 199.679C-33.1815 199.009 -33.3543 198.34 -33.5271 197.67C-33.6783 197.109 -33.8294 196.504 -33.959 195.921C-34.3046 194.452 -34.607 193.005 -34.8445 191.558C-34.9525 191.105 -35.0173 190.673 -35.0821 190.241C-35.2333 189.312 -35.3845 188.405 -35.4709 187.476C-35.6005 186.655 -35.6653 185.835 -35.7517 185.014C-35.7949 184.712 -35.7949 184.431 -35.8381 184.128C-35.9244 183.286 -35.9676 182.422 -36.0108 181.558C-36.0756 180.673 -36.1188 179.809 -36.1404 178.902C-36.1404 178.729 -36.1404 178.556 -36.1404 178.362C-36.162 177.433 -36.162 176.483 -36.1404 175.554H-36.162C-36.162 175.424 -36.1404 175.295 -36.1404 175.165C-36.1188 174.258 -36.0972 173.373 -36.0324 172.509C-36.0108 171.537 -35.946 170.565 -35.8596 169.593C-35.6221 166.634 -35.2117 163.697 -34.6502 160.803C-28.8187 129.831 -5.9896 103.244 26.429 94.1728C71.9576 81.4731 119.171 108.06 131.914 153.567C135.499 166.569 135.931 179.636 133.642 192.055Z" fill="#F3C24C"/>
<path d="M92.3029 138.277C95.5858 140.35 99.495 142.424 103.145 141.149C105.953 140.177 107.832 137.305 108.307 134.367C108.761 131.43 108.005 128.406 106.838 125.663C103.015 116.7 91.4173 105.361 80.6831 111.02C67.0764 118.169 85.4779 133.957 92.3029 138.277Z" fill="white"/>
<path d="M111.309 162.509C114.29 163.589 117.875 162.617 119.905 160.198C120.553 159.421 121.05 158.514 121.417 157.563C123.814 151.343 117.983 143.244 111.201 146.743C105.111 149.896 104.311 159.982 111.309 162.509Z" fill="white"/>
<path opacity="0.19" d="M109.689 237.433C99.6676 247.39 87.0328 254.993 72.4757 259.075C26.9687 271.796 -20.2661 245.209 -32.9874 199.702C-33.1817 199.032 -33.3545 198.363 -33.5273 197.693C-33.6785 197.132 -33.8297 196.527 -33.9593 195.944C-34.3048 194.475 -34.6072 193.028 -34.8448 191.581C-34.9528 191.127 -35.0176 190.695 -35.0824 190.263C-35.2335 189.335 -35.3847 188.428 -35.4711 187.499C-35.6007 186.678 -35.6655 185.857 -35.7519 185.037C-35.7951 184.734 -35.7951 184.454 -35.8383 184.151C-35.9247 183.309 -35.9679 182.445 -36.0111 181.581C-36.0759 180.695 -36.1191 179.832 -36.1407 178.924C-36.1407 178.752 -36.1407 178.579 -36.1407 178.385C-36.1623 177.456 -36.1623 176.505 -36.1407 175.577C-36.1407 175.447 -36.1407 175.296 -36.1407 175.188C-36.1191 174.281 -36.0975 173.395 -36.0327 172.531C-36.0111 171.56 -35.9463 170.588 -35.8599 169.616C-33.7001 178.622 -30.05 187.283 -25.0609 195.814C-19.9853 204.497 -13.8731 212.725 -5.98985 218.967C0.100792 223.827 7.07695 227.369 14.2691 230.414C38.9772 240.889 66.4931 245.274 93.037 241.386C98.6957 240.565 104.333 239.334 109.689 237.433Z" fill="#F3C24C"/>
<path d="M1368.48 265.97C1372.95 275.236 1379.66 291.974 1379.97 312.924C1381.33 414.349 1319.23 439.294 1278.22 515.017C1244.83 576.658 1231.68 649.875 1388.33 755.446" stroke="#2F1C3B" stroke-width="0.9262" stroke-miterlimit="10" stroke-linecap="round" stroke-linejoin="round"/>
<path d="M1379.36 269.038C1379.38 269.276 1379.41 269.513 1379.43 269.773C1375.91 272.148 1371.91 273.811 1367.76 274.632C1366.06 274.978 1363.94 275.518 1362.47 274.546C1363.6 268.52 1364.31 262.429 1364.61 256.317C1365.97 255.972 1367.44 254.956 1368.8 254.611C1370.83 260.075 1375.28 264.891 1379.36 269.038Z" fill="#6EAFFA"/>
<path opacity="0.19" d="M1379.36 269.038C1379.38 269.276 1379.41 269.513 1379.43 269.773C1375.91 272.148 1371.91 273.811 1367.76 274.632C1366.06 274.978 1363.94 275.518 1362.47 274.546C1363.6 268.52 1364.31 262.429 1364.61 256.317C1365.97 255.972 1367.44 254.956 1368.8 254.611C1370.83 260.075 1375.28 264.891 1379.36 269.038Z" fill="#6EAFFA"/>
<path d="M1431.61 154.483C1435.09 167.463 1435.37 180.552 1432.97 192.927C1429.6 210.098 1421.02 225.886 1408.5 238.046C1398.35 247.894 1385.65 255.367 1371.03 259.276C1325.37 271.479 1278.43 244.374 1266.23 198.737C1264.07 190.66 1263.14 182.56 1263.34 174.612V174.591C1263.4 172.604 1263.51 170.617 1263.68 168.651C1266.92 134.03 1291.24 103.447 1326.79 93.9437C1372.47 81.6976 1419.38 108.803 1431.61 154.483Z" fill="#6EAFFA"/>
<path d="M1392.21 138.694C1395.47 140.81 1399.36 142.905 1403.03 141.674C1405.86 140.724 1407.76 137.895 1408.26 134.957C1408.76 132.02 1408.02 128.996 1406.88 126.232C1403.16 117.225 1391.67 105.757 1380.87 111.286C1367.2 118.305 1385.43 134.288 1392.21 138.694Z" fill="white"/>
<path d="M1410.96 163.123C1413.92 164.225 1417.53 163.296 1419.58 160.898C1420.25 160.121 1420.74 159.235 1421.11 158.285C1423.57 152.086 1417.85 143.922 1411 147.357C1404.87 150.445 1403.98 160.531 1410.96 163.123Z" fill="white"/>
<path opacity="0.19" d="M1408.5 238.025C1398.35 247.874 1385.65 255.347 1371.03 259.256C1325.37 271.459 1278.44 244.353 1266.23 198.717C1263.53 188.609 1262.75 178.458 1263.68 168.631C1265.74 177.637 1269.3 186.363 1274.2 194.937C1279.19 203.684 1285.2 211.978 1292.99 218.328C1299.02 223.252 1305.99 226.881 1313.12 229.991C1337.72 240.747 1365.17 245.433 1391.78 241.848C1397.46 241.049 1403.14 239.883 1408.5 238.025Z" fill="#6EAFFA"/>
<path d="M1284.82 902.392C1285.17 902.513 1285.52 902.753 1285.76 902.873C1288.09 903.954 1290.31 904.915 1292.64 905.877C1294.62 906.718 1296.37 907.679 1298.59 907.439C1298.94 907.439 1299.4 907.318 1299.75 907.078C1301.27 905.877 1300.45 901.431 1300.34 899.749C1300.1 896.866 1299.75 893.982 1299.29 891.099C1299.17 890.378 1298.94 889.537 1298.47 888.936C1297.54 887.855 1295.91 887.855 1294.51 888.216C1292.41 888.696 1290.31 890.859 1288.67 892.3C1287.04 893.742 1281.67 897.467 1282.61 900.11C1282.96 901.191 1283.89 901.912 1284.82 902.392Z" fill="#4E977C"/>
<path d="M1310.37 923.056C1310.49 923.417 1310.6 923.777 1310.72 924.017C1311.65 926.42 1312.7 928.703 1313.75 931.106C1314.57 933.028 1315.27 935.071 1317.02 936.512C1317.37 936.753 1317.72 936.993 1318.07 936.993C1320.05 937.233 1322.27 933.389 1323.32 932.067C1325.07 929.784 1326.82 927.502 1328.34 925.099C1328.69 924.498 1329.15 923.777 1329.15 922.936C1329.27 921.494 1327.99 920.293 1326.82 919.572C1324.95 918.371 1321.92 918.491 1319.82 918.371C1317.6 918.251 1311.19 917.169 1310.25 919.812C1309.79 920.894 1310.02 921.975 1310.37 923.056Z" fill="#4E977C"/>
<path d="M1322.39 957.779C1322.39 958.139 1322.5 958.499 1322.5 958.86C1322.85 961.383 1323.2 963.906 1323.67 966.429C1324.02 968.592 1324.14 970.634 1325.54 972.436C1325.77 972.797 1326 973.037 1326.47 973.277C1328.22 973.998 1331.49 970.874 1332.77 969.913C1335.1 968.231 1337.2 966.429 1339.3 964.387C1339.88 963.906 1340.47 963.305 1340.7 962.584C1341.17 961.143 1340.23 959.701 1339.18 958.74C1337.67 957.178 1334.75 956.457 1332.65 955.736C1330.55 955.015 1324.6 952.252 1322.97 954.535C1322.39 955.496 1322.27 956.697 1322.39 957.779Z" fill="#4E977C"/>
<path d="M1328.69 991.658C1328.69 992.018 1328.69 992.379 1328.69 992.739C1328.92 995.262 1329.04 997.906 1329.27 1000.43C1329.5 1002.59 1329.5 1004.75 1330.67 1006.56C1330.9 1006.92 1331.14 1007.28 1331.49 1007.4C1333.24 1008.24 1336.62 1005.35 1338.02 1004.51C1340.47 1002.95 1342.68 1001.39 1344.9 999.588C1345.48 999.107 1346.07 998.626 1346.42 997.906C1347 996.584 1346.18 995.022 1345.25 993.941C1343.85 992.259 1340.93 991.298 1338.95 990.457C1336.97 989.616 1331.25 986.492 1329.39 988.534C1328.8 989.495 1328.69 990.577 1328.69 991.658Z" fill="#4E977C"/>
<path d="M1331.25 1026.86C1331.25 1027.22 1331.25 1027.58 1331.25 1027.94C1331.49 1030.46 1331.6 1033.11 1331.84 1035.63C1332.07 1037.79 1332.07 1039.96 1333.24 1041.76C1333.47 1042.12 1333.7 1042.48 1334.05 1042.6C1335.8 1043.44 1339.19 1040.56 1340.58 1039.72C1343.03 1038.15 1345.25 1036.59 1347.47 1034.79C1348.05 1034.31 1348.63 1033.83 1348.98 1033.11C1349.57 1031.79 1348.75 1030.22 1347.82 1029.14C1346.42 1027.46 1343.5 1026.5 1341.52 1025.66C1339.54 1024.82 1333.82 1021.69 1331.95 1023.74C1331.37 1024.58 1331.25 1025.66 1331.25 1026.86Z" fill="#4E977C"/>
<path d="M1341.63 1065.55C1341.98 1065.79 1342.22 1065.91 1342.57 1066.03C1344.78 1067.23 1347 1068.31 1349.33 1069.39C1351.2 1070.35 1352.95 1071.43 1355.17 1071.31C1355.52 1071.31 1355.98 1071.19 1356.33 1071.07C1357.97 1069.99 1357.27 1065.43 1357.27 1063.86C1357.27 1060.98 1357.03 1058.1 1356.68 1055.21C1356.57 1054.49 1356.45 1053.65 1355.98 1053.05C1355.17 1051.85 1353.42 1051.85 1352.02 1052.09C1349.92 1052.45 1347.7 1054.49 1345.95 1055.81C1344.2 1057.14 1338.6 1060.62 1339.53 1063.26C1339.77 1064.22 1340.7 1064.95 1341.63 1065.55Z" fill="#4E977C"/>
<path d="M1379.55 1068.43C1379.9 1068.31 1380.25 1068.31 1380.6 1068.19C1383.05 1067.59 1385.5 1066.99 1387.83 1066.39C1389.81 1065.91 1391.91 1065.55 1393.55 1064.1C1393.9 1063.86 1394.13 1063.5 1394.25 1063.14C1394.83 1061.22 1391.56 1058.22 1390.51 1056.9C1388.65 1054.73 1386.78 1052.57 1384.68 1050.65C1384.1 1050.17 1383.51 1049.57 1382.81 1049.45C1381.41 1049.09 1380.13 1050.17 1379.2 1051.25C1377.8 1052.93 1377.33 1055.93 1376.87 1058.1C1376.4 1060.26 1374.18 1066.63 1376.52 1068.07C1377.45 1068.67 1378.5 1068.67 1379.55 1068.43Z" fill="#4E977C"/>
<path d="M1410 1064.11C1410.35 1064.23 1410.7 1064.35 1411.05 1064.35C1413.5 1064.95 1415.95 1065.55 1418.28 1066.15C1420.38 1066.63 1422.24 1067.23 1424.34 1066.75C1424.69 1066.63 1425.16 1066.51 1425.39 1066.15C1426.79 1064.71 1425.16 1060.5 1424.81 1058.82C1424.11 1056.06 1423.29 1053.17 1422.36 1050.53C1422.13 1049.81 1421.78 1049.09 1421.19 1048.61C1420.14 1047.65 1418.51 1048.01 1417.11 1048.49C1415.13 1049.33 1413.38 1051.85 1411.98 1053.53C1410.58 1055.22 1405.91 1059.9 1407.31 1062.3C1408.01 1063.26 1408.95 1063.75 1410 1064.11Z" fill="#4E977C"/>
<path d="M1437.53 1076C1437.76 1076.24 1438.11 1076.48 1438.34 1076.72C1440.21 1078.4 1442.19 1079.96 1444.06 1081.64C1445.69 1082.97 1447.21 1084.53 1449.31 1084.89C1449.66 1085.01 1450.13 1085.01 1450.48 1084.89C1452.34 1084.17 1452.69 1079.72 1453.04 1078.04C1453.63 1075.16 1454.09 1072.39 1454.44 1069.51C1454.56 1068.79 1454.56 1067.95 1454.33 1067.23C1453.74 1065.91 1452.11 1065.43 1450.71 1065.31C1448.49 1065.19 1445.93 1066.63 1443.94 1067.47C1441.96 1068.31 1435.78 1070.35 1436.01 1073.23C1436.01 1074.32 1436.71 1075.16 1437.53 1076Z" fill="#4E977C"/>
<path d="M1250.06 908.039C1251.11 908.4 1252.16 908.039 1253.09 907.559C1253.44 907.439 1253.68 907.198 1254.03 907.078C1256.24 905.877 1258.34 904.555 1260.56 903.354C1262.42 902.272 1264.29 901.431 1265.46 899.509C1265.69 899.149 1265.81 898.788 1265.92 898.428C1265.92 897.226 1264.76 896.866 1264.06 896.265C1262.89 895.304 1261.72 894.463 1260.56 893.622C1258.22 891.94 1255.77 890.498 1253.21 889.177C1252.04 888.576 1250.53 887.975 1249.24 888.456C1246.21 889.657 1247.14 895.184 1247.38 897.827C1247.26 899.87 1247.73 902.032 1247.96 904.075C1248.08 905.276 1248.54 907.559 1250.06 908.039Z" fill="#4E977C"/>
<path d="M1228.94 958.017C1228.83 957.777 1228.59 957.536 1228.48 957.296C1225.1 952.13 1224.51 945.402 1225.33 939.154C1227.08 926.9 1234.66 914.285 1244.11 906.716C1253.21 899.387 1264.76 895.182 1276.19 896.504C1284.47 897.465 1293.11 902.15 1296.49 910.32C1300.81 920.893 1299.99 933.267 1294.97 943.48C1289.96 953.692 1282.84 958.618 1273.04 963.423C1265.81 966.908 1257.53 968.71 1249.59 967.749C1245.63 967.268 1241.78 966.187 1238.16 964.385C1235.13 962.582 1231.16 961.021 1228.94 958.017Z" fill="#FBC94F"/>
<path d="M1273.97 941.078C1272.58 933.629 1273.62 926.66 1273.51 919.211C1273.39 912.243 1275.26 905.996 1273.39 898.907C1273.28 898.667 1273.28 898.427 1273.39 898.186C1273.51 898.066 1273.63 897.946 1273.74 897.826C1275.61 896.745 1277.94 896.865 1280.04 897.225C1288.21 898.547 1297.07 902.511 1303.02 908.519C1307.92 913.445 1312.12 919.211 1315.27 925.579C1321.1 937.113 1323.55 950.088 1325.89 962.944C1328.92 979.403 1331.95 995.743 1333.35 1012.44C1334.17 1021.69 1334.52 1030.94 1336.27 1040.08C1337.67 1047.28 1338.72 1056.54 1343.85 1062.18C1345.84 1064.46 1348.52 1066.03 1351.2 1067.35C1358.55 1070.95 1366.48 1073.6 1373.95 1070.11C1381.77 1066.51 1390.75 1063.74 1399.15 1063.02C1406.96 1062.42 1415.25 1063.86 1421.78 1068.31C1429.25 1073.48 1433.68 1082.25 1436.01 1091.14C1439.39 1104.23 1438.34 1118.53 1432.63 1130.78C1425.86 1145.2 1412.8 1150.37 1398.56 1154.33C1371.15 1162.14 1341.29 1160.22 1315.04 1149.05C1309.44 1146.64 1304.07 1143.76 1299.64 1139.55C1292.64 1132.71 1289.14 1122.97 1287.16 1113.24C1281.79 1087.53 1285.76 1061.1 1289.84 1035.39C1291.82 1023.26 1293.81 1011.12 1295.09 998.867C1296.26 987.453 1297.19 975.198 1293.81 964.145C1293.22 962.223 1292.41 960.18 1291.12 958.618C1289.84 957.057 1287.86 955.975 1285.87 956.095C1283.77 956.216 1282.02 957.657 1280.27 958.979C1280.16 959.099 1276.42 950.569 1276.19 949.848C1275.37 947.085 1274.44 943.961 1273.97 941.078Z" fill="#FBC94F"/>
<path d="M1273.97 941.078C1272.58 933.629 1273.62 926.66 1273.51 919.211C1273.39 912.243 1275.26 905.996 1273.39 898.907C1273.28 898.667 1273.28 898.427 1273.39 898.186C1273.51 898.066 1273.63 897.946 1273.74 897.826C1275.61 896.745 1277.94 896.865 1280.04 897.225C1288.21 898.547 1297.07 902.511 1303.02 908.519C1307.92 913.445 1312.12 919.211 1315.27 925.579C1321.1 937.113 1323.55 950.088 1325.89 962.944C1328.92 979.403 1331.95 995.743 1333.35 1012.44C1334.17 1021.69 1334.52 1030.94 1336.27 1040.08C1337.67 1047.28 1338.72 1056.54 1343.85 1062.18C1345.84 1064.46 1348.52 1066.03 1351.2 1067.35C1358.55 1070.95 1366.48 1073.6 1373.95 1070.11C1381.77 1066.51 1390.75 1063.74 1399.15 1063.02C1406.96 1062.42 1415.25 1063.86 1421.78 1068.31C1429.25 1073.48 1433.68 1082.25 1436.01 1091.14C1439.39 1104.23 1438.34 1118.53 1432.63 1130.78C1425.86 1145.2 1412.8 1150.37 1398.56 1154.33C1371.15 1162.14 1341.29 1160.22 1315.04 1149.05C1309.44 1146.64 1304.07 1143.76 1299.64 1139.55C1292.64 1132.71 1289.14 1122.97 1287.16 1113.24C1281.79 1087.53 1285.76 1061.1 1289.84 1035.39C1291.82 1023.26 1293.81 1011.12 1295.09 998.867C1296.26 987.453 1297.19 975.198 1293.81 964.145C1293.22 962.223 1292.41 960.18 1291.12 958.618C1289.84 957.057 1287.86 955.975 1285.87 956.095C1283.77 956.216 1282.02 957.657 1280.27 958.979C1280.16 959.099 1276.42 950.569 1276.19 949.848C1275.37 947.085 1274.44 943.961 1273.97 941.078Z" fill="#FBC94F"/>
<path d="M1426.91 1113.84C1425.28 1113 1423.76 1111.8 1422.48 1110.12C1417.93 1104.59 1416.18 1096.78 1415.13 1089.81C1414.66 1086.57 1414.31 1083.09 1414.2 1079.84C1414.2 1077.2 1413.5 1076.12 1411.51 1074.2C1409.53 1072.27 1406.73 1069.75 1403.93 1069.27C1401.71 1068.91 1399.03 1069.63 1396.7 1069.63C1392.15 1069.63 1386.55 1069.15 1382.12 1070.71C1378.5 1072.03 1375.7 1073.23 1371.62 1073.35C1366.95 1073.48 1362.28 1072.87 1357.85 1071.67C1355.63 1071.07 1353.42 1070.23 1351.32 1069.27C1345.37 1066.63 1341.52 1062.54 1339.89 1055.93C1340.59 1058.7 1343.04 1060.5 1345.37 1062.06C1350.73 1065.67 1355.75 1068.19 1362.4 1068.67C1369.05 1069.15 1375.47 1066.99 1381.77 1065.06C1387.95 1063.14 1394.13 1061.82 1400.55 1060.62C1413.85 1058.22 1423.76 1063.62 1434.49 1070.95C1443.13 1076.84 1451.53 1083.09 1459.69 1089.69C1465.18 1094.14 1469.49 1097.38 1476.84 1097.86C1477.77 1097.86 1478.71 1097.98 1479.52 1098.34C1480.34 1098.71 1481.04 1099.67 1480.81 1100.63C1480.69 1101.35 1480.11 1101.83 1479.52 1102.19C1474.51 1105.79 1468.09 1107.24 1462.03 1106.03C1456.54 1104.95 1451.53 1101.95 1446.04 1101.35C1444.99 1101.23 1443.83 1101.23 1442.89 1101.59C1440.79 1102.31 1439.51 1104.47 1438.81 1106.51C1438.11 1108.68 1437.88 1110.96 1437.06 1113C1436.83 1113.6 1436.59 1114.08 1436.13 1114.44C1435.66 1114.68 1435.08 1114.8 1434.61 1114.8C1431.58 1115.28 1429.13 1114.92 1426.91 1113.84Z" fill="#FBC94F"/>
<path d="M1329.27 1140.88C1333.35 1143.04 1337.32 1145.68 1341.29 1148.08C1343.85 1149.65 1346.42 1151.21 1348.99 1152.65C1352.02 1154.33 1354.47 1156.74 1357.27 1158.9C1356.1 1159.02 1355.05 1159.26 1353.88 1159.5C1353.3 1159.74 1352.6 1159.86 1352.13 1160.34C1351.78 1160.7 1351.43 1161.3 1351.32 1161.78C1350.04 1164.9 1350.15 1167.79 1350.04 1171.15C1349.8 1177.64 1349.69 1184.25 1349.45 1190.74C1349.45 1191.82 1349.34 1192.9 1348.87 1193.86C1348.4 1194.7 1347.7 1195.42 1346.89 1195.9C1343.5 1198.3 1339.19 1199.15 1334.99 1198.79C1330.9 1198.55 1326.82 1197.22 1322.97 1195.9C1321.57 1195.42 1320.05 1194.82 1318.89 1193.74C1317.14 1191.94 1316.79 1189.05 1316.67 1186.41C1316.55 1183.41 1316.44 1180.28 1316.44 1177.28C1316.32 1167.31 1314.34 1157.1 1314.8 1147C1314.92 1143.88 1315.27 1140.64 1318.19 1139.19C1321.69 1138.11 1326.12 1139.31 1329.27 1140.88Z" fill="#FBC94F"/>
<path d="M1429.71 1136.19C1424.7 1141.72 1422.36 1149.4 1421.9 1156.97C1421.78 1159.02 1421.9 1161.06 1421.9 1163.1C1421.9 1164.78 1421.43 1166.22 1421.31 1167.91C1420.85 1171.87 1421.31 1175.96 1421.2 1180.04C1421.08 1184.97 1419.91 1190.37 1416.06 1193.5C1414.55 1194.7 1412.8 1195.42 1410.93 1196.02C1405.21 1197.7 1399.15 1197.1 1393.31 1195.78C1391.91 1195.42 1390.4 1194.94 1389.46 1193.74C1388.76 1192.78 1388.53 1191.58 1388.41 1190.37C1387.71 1183.29 1388.53 1176.2 1388.06 1168.99C1387.83 1165.62 1387.48 1162.14 1386.31 1159.02C1385.15 1155.77 1382.93 1152.53 1384.45 1148.92C1384.92 1147.72 1385.85 1146.76 1386.66 1145.92C1398.8 1134.15 1414.55 1138.23 1429.24 1136.19" fill="#FBC94F"/>
<path d="M1260.56 950.569C1259.04 950.569 1257.41 950.088 1256.01 949.127C1254.49 948.166 1253.21 946.604 1252.28 944.802C1252.16 944.561 1252.28 944.201 1252.51 943.961C1252.74 943.841 1253.09 943.961 1253.33 944.201C1254.26 945.883 1255.31 947.205 1256.71 948.046C1258.23 949.007 1259.86 949.487 1261.38 949.247C1262.08 949.127 1262.89 948.887 1263.83 948.406C1265.46 947.565 1266.86 946.484 1268.14 945.162C1268.37 944.922 1268.72 944.922 1268.96 945.162C1269.19 945.402 1269.19 945.763 1268.96 946.003C1267.56 947.445 1266.04 948.646 1264.29 949.487C1263.24 949.968 1262.43 950.328 1261.49 950.448C1261.14 950.448 1260.91 950.569 1260.56 950.569Z" fill="#5F4A4A"/>
<path d="M1238.51 961.861C1236.29 961.861 1234.08 961.501 1231.98 960.9C1231.63 960.78 1231.51 960.42 1231.63 960.179C1231.75 959.819 1232.1 959.699 1232.33 959.819C1236.99 961.261 1242.13 961.02 1246.68 959.098C1251.23 957.296 1255.19 953.812 1257.64 949.487C1257.76 949.246 1258.11 949.126 1258.46 949.246C1258.69 949.366 1258.81 949.727 1258.69 950.087C1256.01 954.653 1251.93 958.257 1247.14 960.179C1244.34 961.261 1241.43 961.861 1238.51 961.861Z" fill="#5F4A4A"/>
<path d="M1246.91 917.408C1250.76 915.605 1255.19 919.09 1257.41 922.213C1259.98 925.697 1260.21 930.383 1257.41 933.747C1254.96 936.63 1250.99 937.832 1247.26 937.111C1245.63 936.751 1244.11 936.15 1242.94 935.069C1241.31 933.507 1240.49 931.224 1240.49 929.061C1240.49 926.779 1241.08 924.616 1242.13 922.574C1243.18 920.411 1244.81 918.369 1246.91 917.408Z" fill="white"/>
<path d="M1250.41 920.172C1253.21 918.85 1256.36 921.373 1257.99 923.656C1259.86 926.179 1259.98 929.543 1257.99 932.066C1256.24 934.108 1253.33 934.949 1250.64 934.469C1249.48 934.228 1248.31 933.748 1247.49 932.907C1246.33 931.826 1245.74 930.144 1245.74 928.582C1245.74 926.9 1246.21 925.338 1246.91 923.896C1247.73 922.334 1248.78 920.892 1250.41 920.172Z" fill="#5F4A4A"/>
<path d="M1268.26 928.705C1273.86 928.825 1276.77 934.231 1272.81 938.677C1270.82 940.959 1267.91 942.401 1264.88 942.401C1263.59 942.401 1262.31 942.161 1261.26 941.44C1259.63 940.238 1258.93 938.076 1259.16 936.153C1259.39 934.111 1260.56 932.309 1262.08 931.107C1263.83 929.546 1266.04 928.705 1268.26 928.705Z" fill="#F08C6D"/>
<path d="M1311.07 942.998C1311.07 939.153 1313.17 937.111 1316.44 940.115C1318.54 942.037 1318.89 945.401 1318.3 948.044C1317.95 949.366 1317.25 950.687 1316.09 950.927C1315.04 951.168 1313.87 950.567 1313.17 949.726C1311.42 948.044 1311.07 945.401 1311.07 942.998Z" fill="#EB8B6A"/>
<path d="M1309.32 961.14C1309.32 957.896 1311.19 956.094 1313.87 958.617C1315.62 960.299 1315.97 963.062 1315.39 965.345C1315.15 966.426 1314.57 967.508 1313.52 967.868C1312.59 968.108 1311.65 967.628 1311.07 966.907C1309.56 965.465 1309.32 963.183 1309.32 961.14Z" fill="#EB8B6A"/>
<path d="M1306.64 934.227C1305.47 932.906 1304.66 929.542 1306.87 928.701C1308.74 927.98 1310.72 930.983 1310.95 932.545C1311.19 933.627 1310.6 934.948 1309.55 935.309C1308.62 935.669 1307.34 935.068 1306.64 934.227Z" fill="#EB8B6A"/>
<path d="M1318.77 975.437C1317.37 974.356 1317.84 971.232 1318.07 969.67C1318.42 967.628 1320.4 967.027 1321.45 969.189C1322.04 970.391 1322.39 973.515 1321.69 974.716C1321.1 975.677 1319.7 976.158 1318.77 975.437Z" fill="#EB8B6A"/>
<path d="M1397.63 1066.87C1400.08 1066.03 1403.46 1065.18 1404.63 1068.19C1405.33 1069.87 1404.63 1071.67 1403.35 1072.87C1400.55 1075.4 1396.23 1074.2 1395.41 1070.35C1395.18 1069.51 1395.3 1068.43 1395.88 1067.71C1396.35 1067.35 1397.05 1067.11 1397.63 1066.87Z" fill="#EB8B6A"/>
<path d="M1384.33 1070.71C1384.33 1069.63 1385.38 1068.91 1386.43 1068.55C1387.95 1068.07 1392.38 1068.79 1390.4 1071.19C1389.23 1072.75 1384.1 1073.59 1384.33 1070.71Z" fill="#EB8B6A"/>
<path d="M1408.36 1072.75C1408.36 1071.67 1409.41 1070.95 1410.46 1070.59C1411.98 1070.11 1416.41 1070.83 1414.43 1073.23C1413.38 1074.8 1408.25 1075.76 1408.36 1072.75Z" fill="#EB8B6A"/>
<path d="M1376.28 1081.16C1375.35 1080.08 1375.12 1078.64 1376.28 1077.32C1376.87 1076.72 1377.8 1076.48 1378.62 1076.6C1379.9 1076.6 1381.07 1076.96 1382.23 1077.56C1382.82 1077.8 1383.4 1078.28 1383.75 1078.88C1385.15 1081.28 1381.07 1082.84 1379.43 1082.84C1378.15 1082.6 1376.98 1082 1376.28 1081.16Z" fill="#EB8B6A"/>
<path d="M1371.5 1072.99C1372.78 1070.11 1376.17 1072.15 1374.53 1074.07C1374.18 1074.43 1373.6 1074.8 1373.13 1074.92C1372.67 1075.04 1371.97 1075.04 1371.62 1074.67C1371.27 1074.31 1371.27 1073.59 1371.5 1072.99Z" fill="#EB8B6A"/>
<path d="M1315.15 1149.17C1315.15 1149.17 1375 1176.44 1426.33 1140.76" stroke="#EB8B6A" stroke-miterlimit="10"/>
<path d="M247.64 1152.46C247.64 1152.46 244.917 1188.71 248.729 1190.24C251.997 1192.28 284.13 1195.34 283.04 1186.66C281.951 1177.99 274.871 1179.01 274.871 1179.01L278.683 1144.29" fill="#F94144"/>
<path d="M265.612 1183.6C265.612 1183.6 266.157 1183.09 267.246 1183.6C268.335 1184.11 269.424 1185.64 269.424 1186.66C269.969 1188.2 269.969 1189.22 269.424 1190.24C269.424 1191.26 268.88 1191.77 268.88 1191.77C268.88 1191.77 268.88 1191.26 268.335 1190.24C268.335 1189.22 267.791 1188.2 267.791 1186.66C267.791 1185.64 267.246 1184.62 266.157 1184.11C266.701 1183.6 265.612 1183.6 265.612 1183.6Z" fill="#1A2E36"/>
<path d="M274.871 1182.58C274.871 1182.58 275.416 1182.58 276.505 1183.09C277.594 1183.6 278.139 1184.62 278.684 1185.64C279.228 1186.67 279.228 1188.2 279.228 1189.22C279.228 1190.24 278.684 1190.75 278.684 1190.75C278.684 1190.75 278.684 1190.24 278.139 1189.22C278.139 1188.2 277.594 1187.18 277.05 1186.15C276.505 1185.13 275.96 1184.11 275.416 1183.6C275.416 1183.09 274.871 1182.58 274.871 1182.58Z" fill="#1A2E36"/>
<path d="M135.447 1093.76C135.991 1088.65 140.348 1081.51 135.991 1076.91C134.902 1075.89 133.813 1075.38 132.723 1074.36C128.911 1071.81 124.554 1068.74 120.742 1066.19C119.652 1065.68 119.108 1065.17 118.019 1064.66C114.751 1064.15 113.662 1066.19 113.117 1068.74C112.572 1071.81 112.572 1074.87 112.028 1078.44C110.938 1085.08 113.662 1089.16 116.929 1094.27C118.563 1096.82 120.197 1099.88 121.831 1102.44C121.831 1101.92 135.447 1093.76 135.447 1093.76Z" fill="#F9844A"/>
<path d="M100.591 1100.39C101.135 1100.39 102.225 1095.29 102.225 1094.27C102.769 1091.21 103.314 1089.16 101.68 1086.61C100.046 1083.55 98.4122 1079.98 96.2337 1077.42C93.5106 1074.36 91.3321 1074.36 89.1536 1077.93C88.0643 1080.49 86.4304 1082.53 85.8858 1085.08C83.7073 1091.21 88.0643 1096.82 90.2428 1102.44C90.2428 1101.93 100.591 1100.39 100.591 1100.39Z" fill="#F9844A"/>
<path d="M154.508 1079.46C143.071 1078.44 139.803 1077.93 138.714 1064.15C137.08 1050.37 135.446 1047.81 138.17 1046.28C140.893 1044.75 161.588 1054.45 163.222 1058.53C165.401 1064.15 164.312 1073.34 164.312 1073.34L154.508 1079.46Z" fill="#F9844A"/>
<path d="M193.177 1057C194.811 1052.92 200.257 1047.3 197.534 1042.2C196.99 1041.18 196.445 1040.16 195.356 1039.14C192.088 1035.05 188.82 1030.46 185.553 1025.86C185.008 1024.84 183.919 1023.82 182.829 1022.8C179.562 1020.25 177.383 1021.78 176.294 1023.82C174.66 1026.37 173.571 1029.95 171.937 1032.5C168.669 1039.14 170.303 1044.24 173.026 1051.39C174.115 1054.96 175.749 1058.02 176.839 1061.09L193.177 1057Z" fill="#F9844A"/>
<path d="M215.507 1061.09C206.248 1052.41 204.614 1049.86 213.873 1037.09C223.676 1024.84 224.221 1021.27 227.489 1021.78C230.756 1022.8 240.56 1044.75 238.926 1049.86C236.747 1055.98 228.033 1063.13 228.033 1063.13L215.507 1061.09Z" fill="#F9844A"/>
<path d="M248.184 1077.93C242.193 1067.21 241.104 1064.15 253.63 1054.45C266.157 1044.75 268.335 1041.69 271.603 1043.73C274.871 1045.26 277.594 1069.26 274.326 1073.34C270.514 1078.44 260.166 1083.04 260.166 1083.04L248.184 1077.93Z" fill="#F9844A"/>
<path d="M280.862 1095.29C275.416 1086.1 274.871 1083.55 285.764 1075.38C296.656 1067.21 298.29 1064.66 301.013 1066.19C303.736 1067.72 305.915 1087.63 303.192 1091.21C299.924 1095.8 291.21 1099.37 291.21 1099.37L280.862 1095.29Z" fill="#F9844A"/>
<path d="M319.53 1107.03C327.155 1103.46 328.789 1101.92 325.521 1092.74C322.253 1083.55 322.798 1081 320.619 1081C318.441 1081 307.548 1092.74 307.548 1095.8C307.548 1099.88 311.361 1106.01 311.361 1106.01L319.53 1107.03Z" fill="#F9844A"/>
<path d="M344.038 1109.07C351.118 1104.48 352.752 1102.95 347.85 1094.27C343.493 1085.59 343.493 1083.04 341.315 1083.04C339.136 1083.04 329.878 1095.8 330.422 1099.37C330.967 1103.46 335.324 1109.07 335.324 1109.07H344.038Z" fill="#F9844A"/>
<path d="M202.436 1054.96C245.461 1054.96 286.308 1105.5 318.986 1105.5C351.663 1105.5 372.359 1103.46 368.546 1135.62C366.368 1153.99 339.681 1159.1 316.807 1147.87C267.246 1123.37 280.317 1172.37 202.436 1168.29C134.357 1164.71 89.6981 1128.47 70.6362 1100.39C68.4577 1096.82 72.2701 1092.74 76.0825 1093.76C98.9567 1100.91 122.376 1099.88 135.447 1091.21C150.696 1081 165.946 1054.96 202.436 1054.96Z" fill="#F94144"/>
<path d="M208.427 1159.1C208.427 1159.1 205.703 1195.34 209.516 1196.87C212.784 1198.92 244.916 1201.98 243.827 1193.3C242.738 1184.62 235.658 1185.64 235.658 1185.64L239.47 1150.93" fill="#F94144"/>
<path d="M322.253 1133.07C328.57 1133.07 333.69 1128.27 333.69 1122.35C333.69 1116.42 328.57 1111.62 322.253 1111.62C315.937 1111.62 310.816 1116.42 310.816 1122.35C310.816 1128.27 315.937 1133.07 322.253 1133.07Z" fill="white"/>
<path d="M316.807 1133.06C323.123 1133.06 328.244 1128.26 328.244 1122.34C328.244 1116.42 323.123 1111.62 316.807 1111.62C310.49 1111.62 305.37 1116.42 305.37 1122.34C305.37 1128.26 310.49 1133.06 316.807 1133.06Z" fill="#1A2E36"/>
<path d="M351.663 1133.07C356.476 1133.07 360.377 1128.27 360.377 1122.35C360.377 1116.42 356.476 1111.62 351.663 1111.62C346.85 1111.62 342.949 1116.42 342.949 1122.35C342.949 1128.27 346.85 1133.07 351.663 1133.07Z" fill="white"/>
<path d="M347.306 1133.06C352.119 1133.06 356.02 1128.26 356.02 1122.34C356.02 1116.42 352.119 1111.62 347.306 1111.62C342.494 1111.62 338.592 1116.42 338.592 1122.34C338.592 1128.26 342.494 1133.06 347.306 1133.06Z" fill="#1A2E36"/>
<path d="M207.882 1157.06C207.882 1157.06 207.882 1158.08 208.427 1159.1C208.427 1160.12 208.427 1161.65 208.427 1163.18C208.427 1164.72 208.427 1166.25 207.882 1167.27C207.882 1168.29 207.337 1169.31 207.337 1169.31C207.337 1169.31 207.337 1168.29 206.793 1167.27C206.793 1166.25 206.793 1164.72 206.793 1163.18C206.793 1161.65 206.793 1160.12 207.337 1159.1C207.882 1158.08 207.882 1157.06 207.882 1157.06Z" fill="#1A2E36"/>
<path d="M238.381 1159.1C238.381 1159.1 238.381 1159.61 238.925 1160.12C238.925 1160.63 238.925 1161.65 238.925 1162.67C238.925 1163.69 238.381 1164.2 238.381 1165.22C238.381 1165.73 237.836 1166.25 237.836 1166.25C237.836 1166.25 237.836 1165.73 237.292 1165.22C237.292 1164.71 237.292 1163.69 237.292 1162.67C237.292 1161.65 237.836 1161.14 237.836 1160.12C237.836 1159.1 238.381 1159.1 238.381 1159.1Z" fill="#1A2E36"/>
<path d="M226.399 1190.75C226.399 1190.75 226.944 1190.24 228.033 1190.75C229.122 1191.26 230.212 1192.79 230.212 1193.81C230.756 1195.34 230.756 1196.36 230.212 1197.39C230.212 1198.41 229.667 1198.92 229.667 1198.92C229.667 1198.92 229.667 1198.41 229.122 1197.39C229.122 1196.36 228.578 1195.34 228.578 1193.81C228.578 1192.79 228.033 1191.77 226.944 1191.26C227.489 1190.75 226.399 1190.75 226.399 1190.75Z" fill="#1A2E36"/>
<path d="M235.657 1189.22C235.657 1189.22 236.202 1189.22 237.291 1189.73C238.38 1190.24 238.925 1191.26 239.47 1192.28C240.014 1193.3 240.014 1194.83 240.014 1195.85C240.014 1196.87 239.47 1197.38 239.47 1197.38C239.47 1197.38 239.47 1196.87 238.925 1195.85C238.925 1194.83 238.38 1193.81 237.836 1192.79C237.291 1191.77 236.746 1190.75 236.202 1190.24C236.202 1189.73 235.657 1189.22 235.657 1189.22Z" fill="#1A2E36"/>
<path d="M151.241 1159.1C151.241 1159.1 148.518 1195.34 152.33 1196.87C155.598 1198.92 187.731 1201.98 186.642 1193.3C185.553 1184.62 178.472 1185.64 178.472 1185.64L182.285 1150.93" fill="#F94144"/>
<path d="M151.241 1150.93C151.241 1150.93 151.241 1151.95 151.785 1152.97C151.785 1153.99 151.785 1155.53 151.785 1157.06C151.785 1158.59 151.785 1160.12 151.241 1161.14C151.241 1162.16 150.696 1163.18 150.696 1163.18C150.696 1163.18 150.696 1162.16 150.151 1161.14C150.151 1160.12 150.151 1158.59 150.151 1157.06C150.151 1155.53 150.151 1153.99 150.696 1152.97C151.241 1151.95 151.241 1150.93 151.241 1150.93Z" fill="#1A2E36"/>
<path d="M181.196 1159.1C181.196 1159.1 181.196 1159.61 181.74 1160.12C181.74 1160.63 181.74 1161.65 181.74 1162.67C181.74 1163.69 181.196 1164.2 181.196 1165.22C181.196 1165.73 180.651 1166.25 180.651 1166.25C180.651 1166.25 180.651 1165.73 180.106 1165.22C180.106 1164.71 180.106 1163.69 180.106 1162.67C180.106 1161.65 180.651 1161.14 180.651 1160.12C181.196 1159.1 181.196 1159.1 181.196 1159.1Z" fill="#1A2E36"/>
<path d="M169.759 1190.75C169.759 1190.75 170.303 1190.24 171.392 1190.75C172.482 1191.26 173.571 1192.79 173.571 1193.81C174.116 1195.34 174.116 1196.36 173.571 1197.39C173.571 1198.41 173.026 1198.92 173.026 1198.92C173.026 1198.92 173.026 1198.41 172.482 1197.39C172.482 1196.36 171.937 1195.34 171.937 1193.81C171.937 1192.79 171.392 1191.77 170.303 1191.26C170.303 1190.75 169.759 1190.75 169.759 1190.75Z" fill="#1A2E36"/>
<path d="M179.017 1189.22C179.017 1189.22 179.562 1189.22 180.651 1189.73C181.74 1190.24 182.285 1191.26 182.829 1192.28C183.374 1193.3 183.374 1194.83 183.374 1195.85C183.374 1196.87 182.829 1197.38 182.829 1197.38C182.829 1197.38 182.829 1196.87 182.285 1195.85C182.285 1194.83 181.74 1193.81 181.195 1192.79C180.651 1191.77 180.106 1190.75 179.562 1190.24C179.017 1189.73 179.017 1189.22 179.017 1189.22Z" fill="#1A2E36"/>
<path d="M334.235 1139.7C334.235 1139.7 334.78 1140.72 335.324 1141.74C336.414 1142.76 338.048 1143.78 340.226 1143.27C342.405 1143.27 344.038 1142.25 345.128 1141.23C346.217 1140.21 346.762 1139.19 346.762 1139.19C346.762 1139.19 346.762 1139.19 346.762 1139.7C346.762 1140.21 346.217 1140.72 345.672 1141.23C344.583 1142.76 342.405 1143.78 340.226 1144.29C339.137 1144.29 338.048 1144.29 336.958 1143.78C335.869 1143.27 335.324 1142.25 334.78 1141.74C334.235 1141.23 334.235 1140.21 334.235 1139.7C334.235 1139.7 334.235 1139.7 334.235 1139.7Z" fill="#1A2E36"/>
<path d="M192.088 1060.58C180.651 1062.11 174.66 1068.74 189.909 1068.74C205.159 1068.74 211.695 1057.51 192.088 1060.58Z" fill="#A82223"/>
<path d="M207.337 1072.32C194.266 1072.83 195.355 1082.02 207.882 1080.48C220.408 1078.95 226.399 1071.3 207.337 1072.32Z" fill="#A82223"/>
<path d="M214.417 1067.21C204.614 1066.19 206.248 1059.04 215.506 1062.11C225.31 1064.66 223.131 1068.23 214.417 1067.21Z" fill="#A82223"/>
<path d="M186.097 1076.4C178.472 1077.93 177.383 1075.38 184.463 1073.34C192.633 1071.3 193.722 1074.87 186.097 1076.4Z" fill="#A82223"/>
<path d="M174.66 1072.32C167.035 1075.89 167.035 1071.81 172.481 1068.74C178.472 1066.19 179.561 1069.76 174.66 1072.32Z" fill="#A82223"/>
<path d="M230.212 1073.34C220.409 1071.81 223.676 1065.68 232.39 1067.72C241.649 1069.25 242.194 1074.87 230.212 1073.34Z" fill="#A82223"/>
<path d="M246.55 1163.18C246.55 1163.18 248.728 1162.16 251.996 1160.63C255.264 1159.1 259.621 1157.06 263.433 1153.99C267.246 1151.44 271.058 1148.38 274.326 1146.34C275.96 1145.31 277.049 1144.8 278.138 1144.29C279.228 1143.78 279.772 1143.78 279.772 1143.78C279.772 1143.78 279.228 1144.29 278.138 1144.29C277.049 1144.8 275.96 1145.82 274.326 1146.85C271.603 1148.89 267.79 1151.95 263.978 1155.01C260.166 1157.57 255.809 1159.61 251.996 1161.14C250.362 1161.65 248.728 1162.16 247.639 1162.16C247.095 1162.67 246.55 1163.18 246.55 1163.18Z" fill="#1A2E36"/>
<path d="M165.946 1178.5C165.946 1178.5 166.49 1178.5 167.035 1178.5C167.58 1178.5 168.669 1178.5 169.758 1178.5C171.392 1178.5 173.571 1178.5 173.571 1178.5C173.571 1178.5 173.571 1179.01 172.481 1179.52C171.937 1180.03 170.303 1180.03 169.214 1180.03C168.124 1180.03 167.035 1179.52 166.49 1179.01C165.946 1178.5 165.946 1178.5 165.946 1178.5Z" fill="#1A2E36"/>
<path d="M163.767 1173.9C163.767 1173.9 164.312 1173.39 165.401 1172.88C166.49 1172.37 167.579 1171.86 169.213 1171.86C170.847 1171.86 171.936 1171.86 173.026 1172.37C174.115 1172.88 174.659 1173.39 174.659 1173.39C174.659 1173.39 174.115 1173.39 173.026 1173.39C171.936 1173.39 170.847 1173.39 169.758 1173.9C168.669 1173.9 167.035 1174.41 166.49 1174.41C164.312 1173.9 163.767 1173.9 163.767 1173.9Z" fill="#1A2E36"/>
<path d="M225.31 1181.05C225.31 1181.05 225.855 1181.05 226.399 1181.05C226.944 1181.05 228.033 1181.05 229.122 1181.05C230.756 1181.05 232.935 1181.05 232.935 1181.05C232.935 1181.05 232.935 1181.56 231.845 1182.07C231.301 1182.58 229.667 1182.58 228.578 1182.58C227.488 1182.58 226.399 1182.07 225.855 1181.56C225.855 1181.05 225.31 1181.05 225.31 1181.05Z" fill="#1A2E36"/>
<path d="M223.132 1176.46C223.132 1176.46 223.676 1175.95 224.765 1175.44C225.855 1174.92 226.944 1174.41 228.578 1174.41C230.212 1174.41 231.301 1174.41 232.39 1174.92C233.479 1175.44 234.024 1175.95 234.024 1175.95C234.024 1175.95 233.479 1175.95 232.39 1175.95C231.301 1175.95 230.212 1175.95 229.122 1176.46C228.033 1176.46 226.399 1176.97 225.855 1176.97C224.221 1176.46 223.132 1176.46 223.132 1176.46Z" fill="#1A2E36"/>
<path d="M265.068 1171.86C265.068 1171.86 265.612 1171.86 266.157 1171.86C266.702 1171.86 267.791 1171.86 268.88 1171.86C270.514 1171.86 272.693 1171.86 272.693 1171.86C272.693 1171.86 272.693 1172.37 271.603 1172.88C271.059 1173.39 269.425 1173.39 268.336 1173.39C267.246 1173.39 266.157 1172.88 265.612 1172.37C265.068 1172.37 265.068 1171.86 265.068 1171.86Z" fill="#1A2E36"/>
<path d="M262.344 1167.78C262.344 1167.78 262.889 1167.27 263.978 1166.76C265.068 1166.25 266.157 1165.74 267.791 1165.74C269.425 1165.74 270.514 1165.74 271.603 1166.25C272.692 1166.76 273.237 1167.27 273.237 1167.27C273.237 1167.27 272.692 1167.27 271.603 1167.27C270.514 1167.27 269.425 1167.27 268.335 1167.78C267.246 1167.78 265.612 1168.29 265.068 1168.29C263.434 1167.78 262.344 1167.78 262.344 1167.78Z" fill="#1A2E36"/>
</g>
<defs>
<clipPath id="clip0_1_2">
<rect width="1440" height="6524" fill="white" transform="translate(0 -5324)"/>
</clipPath>
</defs>
</svg>
