<svg width="251" height="362" viewBox="0 0 251 362" fill="none" xmlns="http://www.w3.org/2000/svg">
<path d="M50.555 283.111C46.8976 282.89 43.2402 283.333 40.013 285.105C33.5587 288.651 30.3316 296.627 23.8773 300.394C18.2836 303.717 10.9687 303.496 5.80528 307.484C-0.43387 312.137 -1.50956 321.887 1.93273 328.977C5.37502 336.067 12.6899 340.277 20.2199 341.828C33.5587 344.487 42.5947 341.606 55.5033 347.811C67.3362 353.571 79.5993 363.985 93.5836 360.219C101.329 358.224 106.492 352.242 113.377 348.475C121.122 344.265 127.361 346.038 135.536 344.487C148.015 342.271 159.848 330.971 160.708 317.455C160.923 314.131 160.493 310.586 158.987 307.484C155.33 299.951 146.079 297.292 137.903 295.962C125.64 294.19 115.313 284.662 103.265 283.554C89.4959 282.225 75.9419 286.878 61.7425 284.662C58.085 283.998 54.4276 283.111 50.555 283.111Z" fill="#C8D5ED"/>
<path d="M117.465 149.502C93.1536 145.07 90.5719 171.216 72.0696 179.636C64.5396 183.181 57.4399 181.408 52.2765 190.05C45.8222 200.464 50.125 216.195 61.0973 221.735C75.2968 229.047 92.293 218.633 107.998 220.848C126.501 223.286 141.991 242.784 160.063 238.131C170.605 235.251 178.135 224.615 188.677 222.621C194.916 221.513 201.155 223.507 207.61 223.729C220.949 224.393 234.933 216.638 239.451 203.566C243.969 190.714 237.084 174.096 223.961 170.551C215.355 168.336 206.104 171.659 197.068 170.773C185.235 169.443 175.123 160.58 163.505 158.586C155.975 157.257 148.015 158.808 140.485 157.257C132.525 155.927 125.425 151.053 117.465 149.502Z" fill="#C8D5ED"/>
<path d="M102.571 31.4799C96.0575 31.4799 89.3466 30.2602 83.2278 27.6176C78.8855 25.7881 74.7405 23.3487 70.7929 21.1127C65.2663 17.8602 59.9371 14.6078 54.0157 13.1848C40.1992 9.52581 24.0141 15.6242 10.5923 29.2438C9.40799 30.4635 7.63156 30.4635 6.44729 29.2438C5.26301 28.0241 5.26301 26.1946 6.44729 24.975C21.2507 9.93236 39.607 3.22417 55.3974 7.49302C61.9109 9.11924 67.8322 12.7783 73.5562 16.0307C77.5038 18.2668 81.254 20.5028 85.2016 22.1291C98.0313 27.6176 113.032 26.6012 124.085 19.4864C126.849 17.6569 129.415 15.6242 132.178 13.3881C135.336 10.7455 138.691 8.10286 142.244 6.07008C150.929 0.988119 161.39 -0.434834 170.864 1.80123C178.167 3.63073 184.681 7.28975 190.8 11.152C192.773 12.1684 194.55 13.3881 196.523 14.4045C206.392 19.893 214.09 21.7225 220.801 19.893C222.38 19.4864 223.959 20.5028 224.354 22.1291C224.749 23.7553 223.762 25.3815 222.183 25.7881C211.327 28.4307 200.668 23.552 193.563 19.6897C191.589 18.6733 189.615 17.4537 187.641 16.234C181.523 12.575 175.601 9.11925 169.285 7.6963C161.193 5.66352 152.311 7.08646 144.81 11.3553C141.652 13.1848 138.691 15.6242 135.533 18.2668C132.77 20.5028 130.007 22.9422 126.849 24.7717C120.138 29.0405 111.453 31.4799 102.571 31.4799Z" fill="#FBC94F"/>
<path d="M110.467 69.2896C104.348 69.2896 98.6242 68.2732 94.0845 66.8502C85.7946 64.6142 77.8994 60.9552 70.2016 57.2962L67.4383 56.0765C59.1484 52.2142 51.4506 52.0109 44.7397 55.6699C43.358 56.4831 41.5816 55.8732 40.7921 54.247C40.0026 52.824 40.5947 50.9945 42.1738 50.1814C50.4637 45.9126 60.1353 45.9126 70.0042 50.588L72.7675 51.8076C80.268 55.2634 87.9657 58.7191 95.6635 60.9552C103.756 63.1912 115.599 64.8175 126.06 59.7355C129.81 57.906 133.363 55.2634 136.916 52.6208C140.666 49.7749 144.614 46.929 148.956 44.8962C165.141 37.1716 183.103 42.4568 200.077 48.3519C214.288 53.2306 232.053 59.5322 247.053 53.4339C248.632 52.824 250.211 53.6371 250.804 55.2634C251.396 56.8896 250.606 58.5158 249.027 59.1257C232.053 65.8338 213.104 59.3289 198.103 54.0437C182.313 48.5552 165.536 43.6765 151.324 50.3847C147.377 52.2142 144.021 54.8568 140.271 57.4994C136.521 60.3453 132.771 63.1912 128.428 65.224C122.704 68.2732 116.388 69.2896 110.467 69.2896Z" fill="#FBC94F"/>
<path d="M77.3065 111.775C72.1747 111.775 67.0428 111.165 61.9109 109.945C56.9765 108.726 52.4367 107.099 47.6996 105.27C44.5416 104.05 41.1861 102.83 38.028 101.814C28.9486 98.9682 21.4482 98.7649 15.3294 101.001C13.7504 101.611 12.1714 100.798 11.5792 99.1715C10.9871 97.5452 11.7766 95.919 13.3556 95.3092C20.6587 92.6666 29.3434 93.0731 39.6071 96.1223C42.9625 97.1387 46.318 98.3584 49.6734 99.578C54.2132 101.204 58.5555 102.83 63.0952 104.05C71.1877 106.083 80.0698 106.286 88.1624 104.66C93.8864 103.644 99.6104 101.611 105.334 99.578C111.651 97.342 118.164 95.1059 124.875 93.8862C139.481 91.4469 154.679 94.6994 168.101 97.5452C169.68 97.9518 170.667 99.578 170.47 101.204C170.075 102.83 168.496 103.847 166.917 103.644C153.495 100.798 139.481 97.7485 125.862 99.9846C119.546 101.001 113.624 103.034 107.308 105.27C101.584 107.303 95.4654 109.335 89.3466 110.555C85.5964 111.368 81.4515 111.775 77.3065 111.775Z" fill="#FBC94F"/>
<path d="M97.2419 67.46C96.0576 67.0534 94.8734 65.6304 93.6891 65.0206C92.3074 64.2075 90.9258 63.5977 89.5441 62.9878C86.7808 61.7682 83.8201 60.5485 81.2542 59.1255C75.5302 55.8731 69.2141 53.0272 62.8979 51.1977C59.1477 50.1813 55.0028 49.3682 51.0552 49.3682C48.4893 49.3682 42.1731 49.1649 40.9888 52.2141C39.8046 55.06 42.5679 55.8731 44.7391 55.8731C48.2919 56.0764 51.8447 55.6698 55.2001 55.4665C58.5556 55.4665 62.1084 56.2796 65.2665 57.0928C68.8193 57.9059 72.3721 59.1255 75.925 60.5485C78.0961 61.5649 80.4647 62.7846 82.8332 63.3944C85.3992 64.0042 88.1625 64.0042 90.531 64.8173C92.8996 65.8337 95.0707 66.6468 97.2419 67.46Z" fill="#FBC94F"/>
<path d="M172.838 13.7954C181.918 16.438 190.405 21.1134 199.682 22.333C200.274 21.3167 199.09 20.3003 198.103 19.6904C193.168 16.8445 188.234 14.2019 183.299 11.356C176.983 7.697 170.272 4.038 162.969 4.038C159.614 4.038 156.259 4.85111 152.903 5.66422C148.166 6.88389 142.442 7.29045 138.889 10.9495C135.928 13.9986 132.77 17.2511 130.599 20.9101C131.981 18.674 137.902 16.6412 140.271 15.6249C143.231 14.2019 146.192 12.9822 149.35 12.3724C157.245 10.9495 165.338 11.5593 172.838 13.7954Z" fill="#FBC94F"/>
<path d="M113.624 98.1551C112.243 99.1714 110.861 100.188 109.479 101.001C104.742 103.847 99.413 105.88 93.8864 107.099C88.9519 108.116 83.0305 109.132 78.096 107.709C72.7668 106.286 66.8454 106.286 61.3188 104.863C58.3581 104.05 55.3974 103.034 52.4367 102.017C50.0682 101.001 46.7127 98.7649 44.1468 98.5616C50.0682 99.1714 55.7922 100.391 61.7135 101.204C65.8585 101.814 70.2009 102.017 74.3458 102.221C82.8331 102.627 91.5178 102.017 100.005 101.001C102.374 100.594 104.742 100.391 107.111 99.7813C108.492 99.1715 112.243 99.1714 113.624 98.1551Z" fill="#FBC94F"/>
</svg>
