<svg width="83" height="317" viewBox="0 0 83 317" fill="none" xmlns="http://www.w3.org/2000/svg">
<path d="M120.711 49.4514C113.397 45.0199 105.651 41.2532 97.9062 37.9296C96.8305 39.259 95.7549 40.3669 94.464 41.6963C78.5434 59.2006 64.5591 78.2559 52.5111 98.6406C52.9414 99.0837 53.3717 99.5269 53.8019 99.7485C61.3319 106.174 68.8619 112.378 76.392 118.582C64.5591 117.031 52.5111 117.253 40.6783 119.69C26.694 146.722 16.152 175.526 9.26744 205.217C17.0126 208.984 24.7576 212.529 32.2876 216.296C23.2516 218.512 14.4308 220.727 5.39476 223.386C1.73733 243.992 -0.198953 264.82 0.0161899 285.87C0.0161899 296.948 1.95253 310.021 11.634 314.674C19.8094 318.662 29.4908 314.231 37.4511 309.356C51.0051 301.158 63.9137 291.631 76.1769 281.438C78.9737 268.365 78.7586 254.85 75.9618 241.998C83.4918 248.424 91.0217 254.85 98.3366 261.275C112.106 247.759 124.799 233.135 136.632 217.625C136.202 203.223 132.759 189.042 126.305 176.191C134.481 183.503 142.871 190.372 151.907 196.797C155.78 191.258 159.437 185.719 163.095 180.179C172.346 165.999 180.951 151.153 188.051 135.422C182.888 130.547 177.079 125.451 173.637 119.468C171.915 116.366 169.764 104.623 165.892 103.958C170.194 104.623 174.067 107.06 177.724 109.276C183.318 112.6 189.127 115.923 194.721 119.247C201.82 100.192 205.908 80.25 205.263 59.6437C204.832 46.5709 203.111 30.1746 194.936 19.5391C184.824 6.90939 168.904 -0.624088 152.983 0.0406312C135.556 0.926923 121.787 11.784 109.739 24.4137C113.397 33.055 117.054 41.2532 120.711 49.4514Z" fill="#528A85"/>
<path d="M19.3786 309.136C19.1635 309.136 19.1636 309.136 18.9484 309.136C18.0878 308.914 17.4423 308.028 17.6575 307.141C24.1118 278.78 35.2992 249.754 54.2318 213.416C78.7581 166.221 108.018 121.02 136.416 77.1487C150.186 56.0993 164.17 34.3851 180.951 15.1083C181.596 14.4436 182.672 14.4436 183.318 14.8867C183.963 15.5514 183.963 16.6593 183.533 17.324C166.967 36.3793 152.767 58.0934 139.213 78.9213C110.814 122.571 81.555 167.772 57.2438 214.746C38.5264 250.862 27.3389 279.666 20.8846 307.806C20.8846 308.471 20.2392 309.136 19.3786 309.136Z" fill="#70AC9A"/>
<path d="M27.3397 184.611C26.4791 184.611 25.8336 183.946 25.8336 183.281C25.6185 182.395 26.264 181.509 27.1246 181.509C36.3757 180.179 45.842 179.293 55.0932 178.628C55.9537 178.628 56.8143 179.293 56.8143 180.179C56.8143 181.065 56.1688 181.952 55.3082 181.952C46.0571 182.616 36.5909 183.503 27.5549 184.832C27.3397 184.611 27.3397 184.611 27.3397 184.611Z" fill="#70AC9A"/>
<path d="M99.6277 237.346C98.7671 237.346 98.1217 236.681 98.1217 236.017C96.1854 222.058 89.516 209.206 79.8345 199.457C79.1891 198.792 79.1891 197.685 79.8345 197.02C80.48 196.355 81.5556 196.355 82.2011 197.02C92.5279 207.212 99.1974 220.95 101.349 235.574C101.564 236.46 100.918 237.346 100.058 237.568C99.6276 237.346 99.6277 237.346 99.6277 237.346Z" fill="#70AC9A"/>
<path d="M44.9814 146.502C44.336 146.502 43.6905 146.058 43.4754 145.394C43.2602 144.507 43.6905 143.621 44.5511 143.178C55.7385 139.19 67.3563 136.974 79.1892 136.309C80.0497 136.309 80.9103 136.974 80.9103 137.86C80.9103 138.746 80.2648 139.633 79.4043 139.633C68.0017 140.076 56.5992 142.292 45.842 146.28C45.4117 146.502 45.1965 146.502 44.9814 146.502Z" fill="#70AC9A"/>
<path d="M112.321 94.21C112.106 94.21 112.106 94.21 111.891 94.21C101.349 90.8864 89.9462 89.7785 78.9739 90.8864C78.1134 91.108 77.2528 90.2217 77.2528 89.3354C77.2528 88.4491 77.8983 87.5628 78.7588 87.5628C90.1614 86.4549 101.994 87.5628 112.966 90.8864C113.827 91.108 114.257 91.9942 114.042 92.8805C113.612 93.7668 112.967 94.21 112.321 94.21Z" fill="#70AC9A"/>
<path d="M57.2439 281.881C56.3833 281.881 55.7378 281.217 55.7378 280.33C55.5227 268.366 54.447 256.401 52.2956 244.657C52.0805 243.771 52.7258 242.885 53.5864 242.663C54.447 242.441 55.3076 243.106 55.5228 243.993C57.6742 255.957 58.7498 268.144 58.965 280.109C58.965 281.217 58.3196 281.881 57.2439 281.881Z" fill="#70AC9A"/>
<path d="M10.5582 249.755C10.1279 249.755 9.6977 249.534 9.26741 249.091C8.62198 248.426 8.83707 247.318 9.4825 246.653C15.0762 241.779 21.3153 237.79 27.9847 234.91C28.8453 234.467 29.7059 234.91 30.1362 235.796C30.5665 236.683 30.1363 237.569 29.2757 238.012C22.8214 240.892 16.7974 244.659 11.4188 249.312C11.2037 249.755 10.7734 249.755 10.5582 249.755Z" fill="#70AC9A"/>
<path d="M10.7737 285.647C10.5585 285.647 10.1283 285.647 9.9132 285.426C9.26777 284.983 9.0526 283.875 9.48289 283.21C14.216 275.898 19.1643 268.586 24.5429 261.718C25.1883 261.053 26.0488 260.831 26.9094 261.496C27.5548 262.161 27.7701 263.047 27.1246 263.933C21.9612 270.802 17.0129 277.892 12.2797 285.204C11.8494 285.426 11.4191 285.647 10.7737 285.647Z" fill="#70AC9A"/>
<path d="M40.0325 302.488C39.8174 302.488 39.8174 302.488 40.0325 302.488C38.9568 302.488 38.3113 301.602 38.5265 300.716C38.9568 293.182 38.5265 285.427 37.2357 277.894C37.0205 277.007 37.6659 276.121 38.5265 275.899C39.387 275.678 40.2477 276.343 40.4628 277.229C41.9688 284.984 42.399 292.961 41.7536 300.937C41.5385 301.823 40.8931 302.488 40.0325 302.488Z" fill="#70AC9A"/>
</svg>
