<svg width="232" height="161" viewBox="0 0 232 161" fill="none" xmlns="http://www.w3.org/2000/svg">
<path d="M29.8908 115.566C27.381 116.247 23.6822 117.607 22.4934 120.192C21.5687 122.233 21.965 125.77 21.7008 128.083C20.7761 136.381 20.644 144.816 21.4366 153.115C21.5687 154.339 21.7008 155.564 22.3613 156.516C23.2859 157.876 25.1353 158.421 26.7205 158.693C34.25 160.053 43.2326 161.005 50.7621 159.373C52.3473 159.101 53.9325 158.693 54.9892 157.468C56.1781 156.108 56.3102 154.203 56.3102 152.435C56.5744 144.136 56.046 135.837 54.725 127.674C54.4608 125.906 54.1966 124.137 53.4041 122.641C51.2905 118.287 46.535 116.383 41.9116 115.43C38.0808 114.614 33.8537 114.478 29.8908 115.566Z" fill="#BCD88A"/>
<path d="M63.8396 110.53C61.3298 111.21 57.6311 112.57 56.4422 115.155C55.5175 117.196 55.9138 120.733 55.6496 123.046C54.7249 131.345 54.5928 139.779 55.3854 148.078C55.5175 149.303 55.6496 150.527 56.3101 151.479C57.2348 152.84 59.0841 153.384 60.6693 153.656C68.1988 155.016 77.1814 155.969 84.7109 154.336C86.2961 154.064 87.8813 153.656 88.938 152.432C90.1269 151.071 90.259 149.167 90.259 147.398C90.5232 139.099 89.9948 130.801 88.6739 122.638C88.4097 120.869 88.1455 119.101 87.3529 117.604C85.2393 113.251 80.4838 111.346 75.8604 110.394C72.0296 109.441 67.8025 109.305 63.8396 110.53Z" fill="#AAC470"/>
<path d="M139.268 110.53C136.758 111.21 133.059 112.57 131.871 115.155C130.946 117.196 131.342 120.733 131.078 123.046C130.153 131.345 130.021 139.779 130.814 148.078C130.946 149.303 131.078 150.527 131.738 151.479C132.663 152.84 134.512 153.384 136.098 153.656C143.627 155.016 152.61 155.969 160.139 154.336C161.724 154.064 163.31 153.656 164.366 152.432C165.555 151.071 165.687 149.167 165.687 147.398C165.952 139.099 165.423 130.801 164.102 122.638C163.838 120.869 163.574 119.101 162.781 117.604C160.668 113.251 155.912 111.346 151.289 110.394C147.458 109.441 143.231 109.305 139.268 110.53Z" fill="#AAC470"/>
<path d="M86.0317 27.6814C83.3897 28.4977 80.6157 28.9058 77.8417 28.6337C75.3318 28.3616 72.2936 28.4977 70.5763 26.321C69.6517 25.2326 69.3875 23.6 69.2554 22.1035C68.9912 17.6141 70.0479 11.9002 72.0294 7.81883C73.3504 5.23397 75.596 3.32938 77.7096 1.56079C80.7478 -0.888018 83.9181 1.42472 86.1638 3.87353C87.881 5.64212 89.8625 7.00256 90.9193 9.31533C91.5798 10.8118 91.976 12.4444 92.2402 13.9409C92.7686 16.2536 93.1649 18.4303 93.6933 20.7431C93.9575 21.8315 94.2217 22.9199 93.8254 24.0082C93.4291 24.9605 92.6365 25.7768 91.5798 26.1849C90.6551 26.593 89.5983 26.593 88.5415 26.8651C87.881 26.8651 86.9564 27.2733 86.0317 27.6814Z" fill="#4E977C"/>
<path d="M113.905 30.6748C111.263 30.4027 108.753 29.7225 106.375 28.362C104.262 27.1376 101.62 26.1853 100.827 23.6004C100.431 22.24 100.695 20.7435 101.223 19.5191C102.544 15.5738 105.583 10.9483 108.753 8.22738C110.734 6.45879 113.376 5.64253 116.018 4.96231C119.585 3.87395 121.566 7.27505 122.623 10.132C123.416 12.3087 124.737 14.3494 124.869 16.6621C124.869 18.1586 124.605 19.7912 124.34 21.2877C123.944 23.4644 123.548 25.5051 123.151 27.6818C123.019 28.7701 122.755 29.7225 122.095 30.5387C121.434 31.355 120.377 31.6271 119.321 31.6271C118.264 31.6271 117.471 31.219 116.547 31.0829C115.754 30.6748 114.829 30.8108 113.905 30.6748Z" fill="#4E977C"/>
<path d="M59.2166 31.7615C57.4994 33.258 55.5179 34.3463 53.2723 35.0266C51.2908 35.5708 49.0452 36.6591 47.0637 35.5708C46.0069 35.0266 45.3464 33.9382 44.8181 32.8499C43.365 29.5848 42.3082 24.9593 42.7045 21.2861C42.8366 18.9733 44.0255 16.7966 45.0823 14.7559C46.6674 11.8989 49.7056 12.7152 52.0834 13.8036C53.8007 14.6199 55.7821 15.028 57.2352 16.3884C58.1599 17.3408 58.9524 18.4291 59.6129 19.3814C60.6697 20.8779 61.7265 22.3744 62.7832 24.007C63.3116 24.6872 63.84 25.5034 63.84 26.4558C63.84 27.272 63.4437 28.2244 62.7832 28.7685C62.1228 29.4488 61.4623 29.7209 60.6697 30.129C60.4055 30.6732 59.8771 31.2173 59.2166 31.7615Z" fill="#4E977C"/>
<path d="M36.8923 46.8632C35.5713 48.4958 33.9862 49.9923 32.1368 50.9446C30.5517 51.8969 28.7023 53.2573 26.7208 52.7132C25.6641 52.4411 24.8715 51.6248 24.211 50.6725C22.2295 48.0876 20.5123 44.0063 20.116 40.7412C19.8518 38.5645 20.5123 36.5238 21.0407 34.3471C21.8333 31.4902 24.8715 31.4902 27.2492 32.0344C28.9665 32.4425 30.8159 32.3064 32.401 33.2588C33.4578 33.939 34.2504 34.7553 35.175 35.5715C36.3639 36.7959 37.6849 37.8843 38.8738 39.1087C39.4022 39.6528 40.0626 40.3331 40.3268 41.0133C40.591 41.8296 40.3268 42.6458 39.7984 43.3261C39.4022 44.0063 38.7417 44.4144 38.2133 44.9586C37.6849 45.6388 37.4207 46.3191 36.8923 46.8632Z" fill="#4E977C"/>
<path d="M18.0027 66.4534C16.8138 67.8138 15.3607 68.9022 13.7756 69.5824C12.3225 70.2627 10.7373 71.351 9.02007 70.6708C8.09539 70.3987 7.567 69.5824 7.03862 68.7662C5.58555 66.4534 4.26458 62.9162 4.13248 60.0593C4.00038 58.2907 4.66087 56.386 5.32136 54.7535C6.24603 52.4407 8.75588 52.5768 10.7373 53.257C12.1904 53.6652 13.7756 53.8012 15.0965 54.7535C15.8891 55.2977 16.5496 56.114 17.3422 56.9302C18.2669 58.0186 19.3236 59.1069 20.2483 60.1953C20.6446 60.7395 21.173 61.2837 21.3051 61.9639C21.4372 62.6441 21.173 63.3243 20.7767 63.8685C20.3804 64.4127 19.852 64.6848 19.3236 65.229C18.6631 65.5011 18.399 66.0452 18.0027 66.4534Z" fill="#4E977C"/>
<path d="M152.477 60.1928C146.269 48.3569 136.89 36.2489 125.926 29.7187C119.453 25.9094 112.188 23.8688 104.922 22.6444C89.5991 19.9235 73.6153 19.9235 58.8205 24.9571C46.5355 29.1745 35.1751 36.9291 27.5135 47.8127C23.8148 53.1185 20.9086 58.9684 16.9457 64.0021C13.5112 68.3555 8.35942 74.4775 2.41506 72.845C-2.20834 71.6206 -6.30334 68.0834 -8.2848 63.4579C-9.34157 60.873 -9.86996 58.1521 -11.323 55.7033C-12.7761 53.3905 -15.6822 51.6219 -18.1921 52.7103C-24.1364 55.5672 -23.2118 65.6346 -22.4192 71.0764C-21.4945 77.6065 -19.3809 84.0007 -16.6069 89.9866C-10.5304 102.911 -0.755272 114.067 10.8693 121.821C29.2307 134.065 51.8193 138.691 73.7474 138.419C81.409 138.283 88.9386 137.602 96.4681 136.242C104.13 134.745 111.263 131.888 118.925 129.984C132.663 126.447 145.212 120.189 159.61 119.236C165.159 118.828 170.707 119.1 176.123 117.468C172.82 112.298 169.914 107.536 167.668 101.823C166.215 98.2854 165.423 93.2517 163.309 89.9866C160.271 81.96 158.686 73.1171 155.119 65.2265C154.195 63.5939 153.402 61.9614 152.477 60.1928Z" fill="#BCD88A"/>
<path d="M201.617 30.6721C201.221 32.0326 200.693 33.257 200.164 34.4814C199.504 36.1139 198.711 37.7465 197.522 39.1069C196.333 40.4674 194.748 41.5558 193.031 41.6918C191.842 41.8278 190.521 41.5557 189.332 41.1476C187.351 40.3313 185.501 38.9709 184.577 36.9302C182.463 32.3047 186.955 28.6315 190.389 26.5908C193.427 24.8222 195.937 22.3734 198.051 19.5164C199.107 18.156 200.693 16.6595 202.146 18.4281C203.202 19.7885 203.07 22.3734 202.938 24.006C202.806 26.3187 202.278 28.4954 201.617 30.6721Z" fill="#528A85"/>
<path d="M154.59 116.925C160.006 118.285 165.422 118.829 170.97 118.829C175.594 118.829 180.085 119.374 184.841 118.693C192.899 117.605 200.692 114.748 207.561 110.395C218.129 103.864 226.583 88.7635 220.771 76.1113C219.186 72.5741 216.412 69.7172 214.166 66.5882C208.486 59.1057 205.844 49.8546 199.503 42.7803C193.691 36.3862 185.765 31.8967 177.707 29.856C170.178 27.9514 161.459 25.7747 153.93 28.3595C153.137 28.6316 152.213 29.0398 151.288 28.6316C150.628 28.3595 150.231 27.8153 149.967 27.1351C146.4 21.6933 139.003 14.2109 132.53 12.9865C126.058 11.762 119.453 15.7074 115.886 21.2852C112.319 26.863 111.131 33.8013 111.131 40.6036C106.903 41.828 104.922 43.5966 102.148 46.8616C99.3739 50.1267 97.1283 54.072 97.3925 58.5615C97.6567 63.5952 101.62 68.0847 106.507 68.9009C104.394 69.7172 102.676 71.2137 101.223 72.9823C97.3925 78.152 97.6567 86.0426 101.62 91.0762C105.45 96.2459 112.452 98.4227 118.66 96.7901C115.093 99.6471 112.848 104.545 113.244 109.17C113.64 113.932 116.679 118.285 120.906 120.19C128.832 123.455 135.965 116.653 140.852 111.075C140.852 111.075 149.174 114.748 150.099 115.156C151.552 116.109 153.137 116.517 154.59 116.925Z" fill="#EF896A"/>
<path d="M224.338 81.1451C223.546 82.0975 222.621 82.9137 221.564 83.5939C220.111 84.5462 218.394 85.2265 216.677 84.9544C215.62 84.8183 214.563 84.1381 213.771 83.4579C212.317 82.3695 211.261 80.737 210.732 78.9684C210.468 77.608 210.6 75.9754 211.393 74.751C212.185 73.3906 213.638 72.9824 215.092 72.4382C218.394 71.2138 221.432 69.4453 224.206 67.4046C225.659 66.3162 226.98 65.2279 228.301 64.0035C229.094 63.3232 230.283 61.1465 231.472 62.507C231.868 63.0511 232 63.8674 232 64.5476C232 68.629 230.018 71.758 228.169 75.2952C227.112 77.3359 225.923 79.3766 224.338 81.1451Z" fill="#4E977C"/>
<path d="M186.426 38.0193C186.03 39.3798 185.501 40.6042 184.973 41.8286C184.313 43.4611 183.52 45.0937 182.331 46.4541C181.142 47.8146 179.557 48.9029 177.84 49.039C176.651 49.175 175.33 48.9029 174.141 48.4948C172.16 47.6785 170.31 46.3181 169.386 44.2774C167.272 39.6519 171.763 35.9786 175.198 33.938C178.236 32.1694 180.746 29.7206 182.859 26.8636C183.916 25.5032 185.501 24.0067 186.954 25.7753C188.011 27.1357 187.879 29.7206 187.747 31.3531C187.483 33.8019 187.087 35.9786 186.426 38.0193Z" fill="#4E977C"/>
<path d="M133.323 105.632C134.38 103.863 135.436 100.87 132.927 100.054C131.341 99.646 129.228 100.054 127.907 100.87C126.586 101.687 125.265 102.639 124.34 103.863C123.416 105.088 122.887 106.72 123.151 108.353C123.151 108.761 123.284 109.169 123.548 109.441C124.208 110.394 125.397 110.53 126.454 110.394C129.36 110.121 131.87 108.217 133.323 105.632Z" fill="#8FBED0"/>
<path d="M117.735 84.9528C119.453 84.0005 121.83 81.6877 119.849 79.7831C118.66 78.6947 116.547 78.0145 114.961 78.1505C113.376 78.1505 111.923 78.4227 110.47 79.1029C109.149 79.7831 107.828 81.0075 107.432 82.368C107.3 82.7761 107.168 83.1842 107.3 83.5923C107.432 84.6807 108.489 85.3609 109.413 85.7691C112.187 86.8574 115.226 86.3132 117.735 84.9528Z" fill="#4E977C"/>
<path d="M116.15 59.5129C118.132 59.3768 121.17 58.5606 120.377 55.9758C119.849 54.4793 118.264 52.9827 116.811 52.3025C115.49 51.6223 113.904 51.0781 112.451 51.0781C110.866 51.0781 109.281 51.4863 108.224 52.5746C107.96 52.8467 107.696 53.1188 107.564 53.5269C107.168 54.6153 107.828 55.7037 108.489 56.5199C110.338 58.5606 113.376 59.5129 116.15 59.5129Z" fill="#4E977C"/>
<path d="M129.491 33.6648C130.68 35.2974 133.19 37.3381 134.775 35.1613C135.7 33.8009 135.964 31.6242 135.7 29.9916C135.436 28.4951 135.039 26.8626 134.115 25.5021C133.322 24.1417 132.001 23.0533 130.548 22.7812C130.152 22.6452 129.755 22.6452 129.359 22.7812C128.302 23.0533 127.774 24.1417 127.51 25.2301C126.849 28.2231 127.774 31.216 129.491 33.6648Z" fill="#4E977C"/>
<path d="M188.672 76.3834C188.275 76.3834 187.747 76.3834 187.351 76.2474C182.463 75.7032 177.84 72.03 175.594 66.8603C175.462 66.4521 175.594 66.18 175.99 65.908C176.387 65.7719 176.651 65.9079 176.915 66.3161C178.897 70.9416 183.124 74.3427 187.615 74.8869C192.37 75.4311 197.258 72.4381 198.711 68.2207C198.843 67.8126 199.24 67.6765 199.504 67.8126C199.9 67.9486 200.032 68.3568 199.9 68.6289C198.315 73.2544 193.559 76.3834 188.672 76.3834Z" fill="#5F4A4A"/>
<path d="M185.634 96.6504C182.199 96.6504 178.897 95.0178 176.519 92.1609C176.255 91.8888 176.255 91.4807 176.651 91.2086C176.915 90.9365 177.312 90.9365 177.576 91.3447C180.086 94.3377 183.916 95.8341 187.351 95.1539C191.05 94.4737 193.956 91.2086 194.352 87.6714C194.352 87.2633 194.748 86.9912 195.013 86.9912C195.409 86.9912 195.673 87.3993 195.673 87.6714C195.277 91.8888 191.842 95.562 187.615 96.3783C186.955 96.6504 186.294 96.6504 185.634 96.6504Z" fill="#5F4A4A"/>
<path d="M210.335 104.406C202.806 104.406 195.276 100.869 190.521 94.7471C190.256 94.475 190.389 94.0669 190.653 93.7948C190.917 93.5227 191.313 93.6588 191.577 93.9308C197.258 101.141 207.297 104.678 216.015 102.366C216.412 102.23 216.676 102.502 216.808 102.91C216.94 103.318 216.676 103.59 216.28 103.726C214.298 104.134 212.317 104.406 210.335 104.406Z" fill="#5F4A4A"/>
<path d="M162.384 69.7144C158.025 69.1702 150.099 69.9865 148.778 75.4283C148.117 78.1492 149.438 81.1422 151.552 82.9108C153.666 84.6794 156.307 85.6317 159.082 86.0398C162.252 86.584 165.686 86.7201 168.593 85.2236C172.555 83.1829 174.008 78.4213 171.499 74.612C169.649 71.619 165.818 70.2586 162.384 69.7144Z" fill="#FFCDC0"/>
<path d="M69.9158 38.4263C64.6319 38.1542 61.8579 34.8891 66.2171 30.5357C68.9911 27.6787 73.6145 27.1345 77.3132 28.3589C79.0305 28.9031 80.8798 29.9915 81.2761 31.7601C81.5403 33.3926 80.7477 34.8891 79.5589 35.9775C76.9169 38.1542 73.3503 38.5623 69.9158 38.4263Z" fill="#EF896A"/>
<path d="M82.4655 48.6306C77.9742 48.3586 75.5964 45.6377 79.2951 41.8284C81.6729 39.3796 85.6358 38.9715 88.674 39.9238C90.1271 40.3319 91.7123 41.2842 91.9765 42.9168C92.2407 44.2772 91.4481 45.6377 90.5234 46.454C88.4098 48.4946 85.3716 48.7667 82.4655 48.6306Z" fill="#EF896A"/>
<path d="M57.6311 44.413C55.7817 46.0456 51.0262 47.1339 49.9694 43.7328C49.1769 41.0119 53.2719 38.291 55.5175 37.8828C57.1027 37.7468 58.8199 38.5631 59.3483 40.0596C59.8767 41.6921 58.8199 43.3247 57.6311 44.413Z" fill="#EF896A"/>
<path d="M100.166 32.3058C98.5809 34.2104 94.3538 33.3942 92.2402 32.986C89.4662 32.4419 88.6736 29.4489 91.8439 28.0884C93.5612 27.2722 97.7883 27.0001 99.3735 28.0884C100.694 28.7687 101.223 30.9454 100.166 32.3058Z" fill="#EF896A"/>
<path d="M147.325 121.411C143.362 124.948 139.003 127.941 135.04 131.75C128.831 137.736 116.414 139.233 108.356 138.144C106.507 137.872 104.658 137.464 103.205 136.512C101.752 135.56 100.563 134.063 99.7701 132.567C97.1281 127.533 97.3923 121.275 99.3738 115.969C101.619 109.983 106.111 104.269 109.942 99.5077C114.301 94.0659 119.453 89.3043 125.133 85.223C126.85 83.9986 128.699 82.7742 130.813 82.5021C133.323 82.23 135.833 83.3184 138.078 84.5428C144.683 88.216 150.495 93.6578 154.722 100.052C155.515 101.276 156.308 102.637 156.704 103.997C157.496 107.534 155.911 111.072 153.93 114.064C151.948 116.921 149.703 119.37 147.325 121.411Z" fill="#BCD88A"/>
</svg>
