<svg width="121" height="90" viewBox="0 0 121 90" fill="none" xmlns="http://www.w3.org/2000/svg">
<path d="M68.2138 0.501847C43.9027 -3.92961 41.3209 22.216 22.8186 30.6357C15.2886 34.1809 8.18891 32.4084 3.02548 41.0497C-3.42881 51.4636 0.874059 67.1953 11.8464 72.7346C26.0458 80.0465 43.0421 69.6326 58.7475 71.8483C77.2498 74.2856 92.7401 93.784 110.812 89.131C121.354 86.2506 128.884 75.6151 139.426 73.6209C145.665 72.513 151.904 74.5072 158.359 74.7288C171.698 75.3935 185.682 67.6384 190.2 54.5656C194.718 41.7144 187.833 25.0964 174.71 21.5513C166.104 19.3355 156.853 22.6591 147.817 21.7728C135.984 20.4434 125.872 11.5805 114.254 9.58633C106.724 8.2569 98.7641 9.80791 91.2341 8.2569C83.2738 6.92746 76.1741 2.05286 68.2138 0.501847Z" fill="#C8D5ED"/>
</svg>
