<svg width="167" height="290" viewBox="0 0 167 290" fill="none" xmlns="http://www.w3.org/2000/svg">
<path d="M77.8757 148.05C69.5316 144.001 58.2719 135.965 63.1717 124.466C66.7823 116.061 80.7916 114.171 88.5164 111.979C109.5 106.184 131.018 103.768 152.585 104.707C154.816 104.715 157.122 105.024 159.096 105.907C167.924 109.981 168.15 129.812 170.749 138.22C174.626 150.437 178.393 162.845 180.674 175.676C183.338 191.285 182.587 208.506 173.865 221.891C172.571 223.703 171.166 225.706 169.051 226.787C163.003 229.948 155.842 224.278 153.289 217.943C150.736 211.608 150.298 204.191 146.335 198.577C144.653 196.327 142.453 194.545 139.774 194.021C134.23 192.867 128.595 197.034 125.603 202.215C115.114 219.953 125.361 244.802 113.754 261.894C110.612 266.477 105.495 270.175 100.399 269.535C87.0094 268.201 87.2614 247.111 83.8775 237.481C83.4646 236.475 83.1624 235.278 82.2308 234.74C80.4784 233.472 77.8448 235.022 76.3643 236.726C70.5883 242.857 68.1308 251.417 64.9281 259.546C59.7362 272.411 50.8632 285.198 37.7905 288.907C31.5513 290.678 23.4791 289.6 21.1879 283.671C19.8737 280.354 20.7147 276.746 21.742 273.246C25.0455 262.36 31.3653 252.705 37.8715 243.157C42.8619 235.804 51.7147 227.355 52.46 218.319C52.6716 215.371 52.027 212.185 49.8617 209.911C47.2482 207.123 43.0081 206.722 38.9947 207.219C35.092 207.524 31.2297 208.62 27.3623 208.434C23.6057 208.056 19.6174 205.498 19.1189 201.628C18.847 198.657 20.5843 196.078 22.3972 193.799C32.3126 181.358 46.6442 176.328 61.2426 172.987C67.6682 171.324 73.9426 169.062 79.9905 165.902C82.8105 164.46 85.6658 162.526 86.2852 159.302C87.378 153.537 82.3826 150.141 77.8757 148.05Z" fill="#BCD88A"/>
<path d="M155.139 120.508C155.546 120.232 156.03 120.255 156.478 120.769C157.037 121.092 157.153 122.182 156.82 122.758C141.436 143.811 124.003 163.68 107.198 182.889C81.8435 211.745 55.8239 241.752 36.1391 275.417C35.8068 275.992 34.9154 276.245 34.3565 275.923C33.7975 275.6 33.5709 274.701 33.9033 274.126C53.5125 240.162 79.8292 210.07 105.295 181.022C122.099 161.813 139.533 141.944 154.806 121.083C154.731 120.784 155.028 120.7 155.139 120.508Z" fill="#9CB86E"/>
<path d="M100.265 206.517C100.562 206.433 100.562 206.433 100.859 206.348C101.639 206.287 102.163 207.101 102.017 207.785C101.146 222.633 101.836 237.359 104.086 251.962C104.127 252.753 103.683 253.521 102.903 253.582C102.122 253.643 101.377 253.212 101.337 252.422C98.8997 237.71 98.2452 222.493 99.1165 207.645C99.3381 207.261 99.8567 206.793 100.265 206.517Z" fill="#9CB86E"/>
<path d="M145.409 151.989C146.114 151.628 146.784 151.759 147.232 152.274C156.775 168.017 162.757 186.054 164.539 204.481C164.58 205.272 163.95 205.932 163.356 206.101C162.575 206.162 161.941 205.54 161.79 204.941C160.083 186.813 154.066 169.267 144.785 153.931C144.634 153.332 144.891 152.457 145.409 151.989Z" fill="#9CB86E"/>
<path d="M87.8957 134.137L88.1928 134.053C102.796 131.994 117.224 132.392 131.585 135.055C132.255 135.186 132.779 136 132.633 136.684C132.487 137.367 131.671 137.919 131.001 137.788C117.123 135.149 102.585 134.942 88.5755 136.832C87.795 136.893 87.0497 136.463 87.0095 135.672C86.9692 134.881 87.3015 134.306 87.8957 134.137Z" fill="#9CB86E"/>
<path d="M45.1236 196.173C45.2344 195.982 45.2344 195.982 45.1236 196.173C57.8589 191.757 71.6819 189.76 84.9207 190.495C85.7012 190.434 86.2249 191.248 86.0788 191.931C86.1191 192.722 85.3033 193.274 84.6336 193.144C71.5811 192.516 58.3524 194.345 45.9142 198.677C45.2092 199.037 44.4639 198.607 44.1265 197.9C44.0863 197.11 44.5294 196.342 45.1236 196.173Z" fill="#9CB86E"/>
<path d="M127.419 29.5388C123.481 20.869 119.785 7.47768 130.692 1.49421C138.669 -2.85529 150.371 4.41304 157.708 7.62563C177.262 16.3563 195.34 28.0729 211.086 42.537C212.728 43.9965 214.259 45.6479 215.382 47.5755C219.506 56.3528 207.596 72.2475 204.469 80.676C199.907 92.8812 195.047 105.171 189.07 116.815C181.652 130.954 170.513 144.223 155.401 149.314C153.21 150.096 150.944 150.579 148.749 150.079C142.051 148.77 140.38 139.618 142.213 133.001C144.156 126.191 148.371 120.182 148.679 113.196C148.779 110.439 148.21 107.552 146.528 105.302C142.978 100.694 136.1 100.56 130.606 102.761C111.636 110.23 104.118 136.592 84.8461 142.863C79.6845 144.488 73.5863 144.293 69.8901 140.368C60.4836 130.844 73.6167 114.121 77.036 104.326C77.4037 103.259 77.7713 102.192 77.4691 100.994C76.9404 98.8976 73.9643 98.4586 71.8091 98.7493C63.3743 100.02 56.2941 105.399 49.0981 109.687C37.1534 116.607 22.5599 121.23 10.2326 115.903C4.38622 113.551 -0.991813 107.376 0.91676 101.058C1.94407 97.5579 4.83453 95.1331 7.68977 93.1997C16.9958 86.5475 27.8376 82.8289 38.4579 79.494C46.7013 76.8337 58.8172 75.6416 64.9255 68.9342C66.9247 66.7624 68.4002 63.7765 68.1283 60.8052C67.9269 56.8511 64.7544 53.7403 61.5115 51.6121C58.2685 49.4839 54.6932 47.9314 52.0797 45.1433C49.4662 42.3551 47.8498 37.84 50.0302 34.4936C51.4705 31.999 54.5523 30.964 57.4126 30.3127C72.7161 26.6115 86.6044 31.8156 100.014 38.2786C105.826 41.1219 112.266 43.3054 118.777 44.506C121.753 44.945 125.213 45.4073 127.695 43.2587C131.029 40.0664 129.332 33.9696 127.419 29.5388Z" fill="#9CB86E"/>
<path d="M203.37 56.7605C203.854 56.7837 204.116 57.1908 204.267 57.7897C204.418 58.3886 203.975 59.1562 203.27 59.5167C178.61 66.5149 153.049 71.2019 128.268 75.8277C91.1904 82.8202 52.7379 90.0424 16.8787 104.391C16.1737 104.751 15.4284 104.321 15.091 103.614C14.7536 102.908 15.1968 102.14 15.9018 101.78C51.8717 87.2398 90.435 79.8256 127.699 72.9407C152.48 68.3148 177.855 63.5203 202.514 56.5221C202.887 56.7372 203.184 56.6529 203.37 56.7605Z" fill="#BCD88A"/>
<path d="M108.211 90.3451C108.397 90.4527 108.584 90.5603 108.77 90.6679C109.218 91.1825 109.445 92.0809 108.926 92.549C99.0055 103.708 90.3541 116.11 83.3041 129.182C82.9717 129.758 82.0804 130.011 81.5215 129.688C80.9625 129.365 80.7359 128.467 81.0682 127.891C88.2291 114.628 97.1776 102.14 107.022 90.6824C107.244 90.2986 107.838 90.13 108.211 90.3451Z" fill="#BCD88A"/>
<path d="M176.602 75.5888C177.271 75.7196 177.906 76.3418 177.76 77.025C175.453 95.6497 168.907 113.873 158.855 129.561C158.523 130.137 157.632 130.39 156.886 129.96C156.327 129.637 156.101 128.739 156.544 127.971C166.298 112.367 172.81 94.635 175.081 76.5017C175.116 76.0104 175.932 75.458 176.602 75.5888Z" fill="#BCD88A"/>
<path d="M143.386 24.6863C143.572 24.7939 143.572 24.7939 143.759 24.9015C156.021 32.4925 167.174 42.0025 176.365 53.1929C176.813 53.7075 176.742 54.6902 176.224 55.1583C175.705 55.6264 174.738 55.5799 174.29 55.0653C165.175 44.1744 154.505 34.6877 142.318 27.3961C141.76 27.0733 141.533 26.175 141.865 25.5993C142.308 24.8317 142.903 24.6631 143.386 24.6863Z" fill="#BCD88A"/>
<path d="M72.6093 47.0183C85.0827 51.6613 96.8963 58.7377 106.635 67.6866C107.083 68.2012 107.31 69.0996 106.791 69.5677C106.273 70.0358 105.381 70.2887 104.933 69.7741C95.5669 61.0404 83.9396 54.0715 72.0252 49.7513C71.3554 49.6204 70.9425 48.6145 71.2749 48.0388C71.2346 47.248 71.9396 46.8875 72.6093 47.0183Z" fill="#BCD88A"/>
</svg>
