<svg width="242" height="450" viewBox="0 0 242 450" fill="none" xmlns="http://www.w3.org/2000/svg">
<path d="M86.4782 20.8053C86.9841 20.979 87.49 21.3264 87.8273 21.5C91.2 23.0631 94.4041 24.4525 97.7768 25.8419C100.644 27.0577 103.173 28.4471 106.377 28.0997C106.883 28.0997 107.558 27.926 108.064 27.5787C110.256 25.8419 109.075 19.4159 108.907 16.9845C108.569 12.8163 108.064 8.64806 107.389 4.47984C107.22 3.43779 106.883 2.22205 106.209 1.35368C104.86 -0.209406 102.499 -0.209416 100.475 0.311611C97.4395 1.00631 94.404 4.13249 92.0431 6.2166C89.6822 8.30071 81.925 13.6847 83.2741 17.5055C83.78 19.0686 85.1291 20.1106 86.4782 20.8053Z" fill="#4E977C"/>
<path d="M123.41 50.6773C123.579 51.1983 123.747 51.7193 123.916 52.0667C125.265 55.5402 126.783 58.84 128.3 62.3135C129.481 65.0924 130.493 68.0448 133.022 70.1289C133.528 70.4763 134.034 70.8237 134.54 70.8237C137.407 71.171 140.611 65.6134 142.129 63.7029C144.658 60.4031 147.188 57.1033 149.38 53.6298C149.886 52.7614 150.56 51.7193 150.56 50.5036C150.729 48.4195 148.874 46.6827 147.188 45.6407C144.489 43.9039 140.105 44.0776 137.069 43.9039C133.865 43.7303 124.59 42.1672 123.241 45.988C122.567 47.5511 122.904 49.1142 123.41 50.6773Z" fill="#4E977C"/>
<path d="M140.779 100.869C140.779 101.39 140.947 101.911 140.947 102.432C141.453 106.08 141.959 109.727 142.634 113.374C143.14 116.5 143.308 119.453 145.332 122.058C145.669 122.579 146.007 122.926 146.681 123.274C149.211 124.316 153.932 119.8 155.787 118.411C159.16 115.979 162.196 113.374 165.231 110.422C166.074 109.727 166.917 108.858 167.255 107.816C167.929 105.732 166.58 103.648 165.062 102.259C162.87 100.001 158.654 98.959 155.619 97.9169C152.583 96.8749 143.983 92.8803 141.622 96.1801C140.779 97.5696 140.61 99.3063 140.779 100.869Z" fill="#4E977C"/>
<path d="M149.885 149.846C149.885 150.367 149.885 150.888 149.885 151.409C150.223 155.056 150.391 158.877 150.729 162.524C151.066 165.65 151.066 168.776 152.752 171.381C153.089 171.903 153.427 172.424 153.933 172.597C156.462 173.813 161.353 169.645 163.376 168.429C166.918 166.171 170.122 163.913 173.326 161.308C174.169 160.614 175.012 159.919 175.518 158.877C176.361 156.966 175.181 154.709 173.832 153.146C171.808 150.714 167.592 149.325 164.725 148.109C161.859 146.893 153.595 142.378 150.897 145.33C150.054 146.72 149.885 148.283 149.885 149.846Z" fill="#4E977C"/>
<path d="M153.595 200.734C153.595 201.255 153.595 201.776 153.595 202.297C153.933 205.944 154.101 209.765 154.438 213.412C154.776 216.539 154.776 219.665 156.462 222.27C156.799 222.791 157.137 223.312 157.643 223.486C160.172 224.701 165.063 220.533 167.086 219.317C170.627 217.06 173.832 214.802 177.036 212.197C177.879 211.502 178.722 210.807 179.228 209.765C180.071 207.855 178.891 205.597 177.542 204.034C175.518 201.603 171.302 200.213 168.435 198.997C165.568 197.782 157.305 193.266 154.607 196.219C153.764 197.434 153.595 198.997 153.595 200.734Z" fill="#4E977C"/>
<path d="M168.604 256.657C169.11 257.004 169.447 257.178 169.953 257.351C173.157 259.088 176.361 260.651 179.734 262.214C182.432 263.604 184.962 265.167 188.166 264.993C188.672 264.993 189.346 264.819 189.852 264.646C192.213 263.083 191.201 256.483 191.201 254.225C191.201 250.057 190.864 245.889 190.358 241.721C190.189 240.678 190.021 239.463 189.346 238.594C188.166 236.858 185.636 236.858 183.613 237.205C180.577 237.726 177.373 240.678 174.844 242.589C172.314 244.499 164.219 249.536 165.569 253.357C165.906 254.746 167.255 255.788 168.604 256.657Z" fill="#4E977C"/>
<path d="M223.411 260.825C223.916 260.652 224.422 260.652 224.928 260.478C228.47 259.609 232.011 258.741 235.384 257.873C238.25 257.178 241.286 256.657 243.647 254.573C244.153 254.226 244.49 253.704 244.659 253.183C245.502 250.405 240.78 246.063 239.262 244.152C236.564 241.026 233.866 237.9 230.83 235.121C229.987 234.426 229.144 233.558 228.132 233.384C226.109 232.863 224.254 234.426 222.905 235.99C220.881 238.421 220.207 242.763 219.532 245.889C218.857 249.015 215.653 258.22 219.026 260.304C220.375 261.173 221.893 261.173 223.411 260.825Z" fill="#4E977C"/>
<path d="M36.2246 28.9688C37.7423 29.4898 39.26 28.9688 40.609 28.2741C41.115 28.1004 41.4523 27.7531 41.9582 27.5794C45.1622 25.8426 48.1977 23.9322 51.4018 22.1955C54.0999 20.6324 56.7981 19.4167 58.4844 16.6379C58.8217 16.1168 58.9903 15.5958 59.159 15.0748C59.159 13.338 57.4727 12.817 56.4608 11.9486C54.7745 10.5592 53.0881 9.34346 51.4018 8.12773C48.0291 5.69627 44.4877 3.61217 40.7777 1.70174C39.0913 0.833359 36.8991 -0.0350298 35.0441 0.659673C30.6596 2.39643 32.0086 10.3855 32.3459 14.2064C32.1773 17.1589 32.8518 20.285 33.1891 23.2375C33.3577 24.9743 34.0323 28.2741 36.2246 28.9688Z" fill="#4E977C"/>
<path d="M5.70253 101.218C5.53389 100.871 5.19663 100.524 5.02799 100.176C0.137559 92.7084 -0.705639 82.9826 0.47481 73.9514C3.00435 56.2365 13.9657 38.0006 27.6252 27.059C40.7788 16.4648 57.4737 10.3861 74 12.2966C85.9731 13.686 98.4521 20.4593 103.343 32.2693C109.582 47.5527 108.402 65.4413 101.15 80.2037C93.899 94.9662 83.6122 102.087 69.4468 109.034C58.9914 114.07 47.0182 116.676 35.551 115.286C29.8174 114.592 24.2524 113.028 19.0247 110.423C14.6402 107.818 8.9066 105.56 5.70253 101.218Z" fill="#FBC94F"/>
<path d="M70.7964 76.7313C68.7728 65.9634 70.2905 55.8902 70.1219 45.1223C69.9532 35.0491 72.6514 26.018 69.9533 15.7711C69.7846 15.4238 69.7846 15.0764 69.9533 14.7291C70.1219 14.5554 70.2905 14.3817 70.4592 14.208C73.1573 12.645 76.53 12.8186 79.5655 13.3397C91.37 15.2501 104.186 20.9814 112.787 29.6652C119.869 36.7859 125.94 45.1223 130.493 54.3271C138.925 71 142.467 89.757 145.839 108.34C150.224 132.134 154.608 155.754 156.632 179.895C157.812 193.268 158.318 206.641 160.848 219.84C162.871 230.261 164.389 243.634 171.809 251.796C174.676 255.096 178.555 257.354 182.433 259.264C193.057 264.475 204.525 268.296 215.317 263.259C226.616 258.049 239.601 254.054 251.743 253.012C263.041 252.144 275.014 254.228 284.458 260.654C295.251 268.122 301.659 280.8 305.031 293.652C309.922 312.583 308.404 333.25 300.141 350.965C290.36 371.806 271.473 379.274 250.899 385.006C211.27 396.295 168.099 393.516 130.156 377.364C122.062 373.89 114.304 369.722 107.896 363.643C97.7782 353.744 92.7191 339.676 89.8523 325.609C82.095 288.442 87.8286 250.233 93.7309 213.067C96.5977 195.525 99.4645 177.984 101.319 160.269C103.006 143.77 104.355 126.055 99.4645 110.077C98.6213 107.298 97.4408 104.346 95.5859 102.088C93.7309 99.8302 90.8641 98.2671 87.9973 98.4407C84.9618 98.6144 82.4323 100.699 79.9028 102.609C79.7341 102.783 74.3378 90.4517 74.0005 89.4096C72.8201 85.4151 71.471 80.8995 70.7964 76.7313Z" fill="#FBC94F"/>
<path d="M70.7964 76.7313C68.7728 65.9634 70.2904 55.8902 70.1218 45.1223C69.9532 35.0491 72.6514 26.018 69.9532 15.7711C69.7846 15.4238 69.7846 15.0764 69.9532 14.7291C70.1218 14.5554 70.2905 14.3817 70.4591 14.208C73.1573 12.645 76.53 12.8186 79.5654 13.3397C91.3699 15.2501 104.186 20.9814 112.787 29.6652C119.869 36.7859 125.94 45.1223 130.493 54.3271C138.925 71 142.467 89.757 145.839 108.34C150.224 132.134 154.608 155.754 156.632 179.895C157.812 193.268 158.318 206.641 160.848 219.84C162.871 230.261 164.389 243.634 171.809 251.796C174.676 255.096 178.555 257.354 182.433 259.264C193.057 264.475 204.524 268.296 215.317 263.259C226.616 258.049 239.601 254.054 251.742 253.012C263.041 252.144 275.014 254.228 284.458 260.654C295.25 268.122 301.659 280.8 305.031 293.652C309.922 312.583 308.404 333.25 300.141 350.965C290.36 371.806 271.473 379.274 250.899 385.006C211.27 396.295 168.099 393.516 130.156 377.364C122.062 373.89 114.304 369.722 107.896 363.643C97.7781 353.744 92.719 339.676 89.8522 325.609C82.095 288.442 87.8285 250.233 93.7308 213.067C96.5976 195.525 99.4644 177.984 101.319 160.269C103.006 143.77 104.355 126.055 99.4644 110.077C98.6213 107.298 97.4408 104.346 95.5858 102.088C93.7308 99.8302 90.864 98.2671 87.9972 98.4407C84.9618 98.6144 82.4322 100.699 79.9027 102.609C79.7341 102.783 74.3377 90.4517 74.0005 89.4096C72.82 85.4151 71.4709 80.8995 70.7964 76.7313Z" fill="#FBC94F"/>
<path d="M291.877 326.476C289.516 325.26 287.324 323.523 285.469 321.092C278.892 313.103 276.363 301.814 274.845 291.741C274.171 287.051 273.665 282.015 273.496 277.326C273.496 273.505 272.484 271.942 269.617 269.163C266.751 266.384 262.703 262.737 258.656 262.042C255.452 261.521 251.573 262.563 248.201 262.563C241.624 262.563 233.529 261.869 227.121 264.126C221.894 266.037 217.846 267.773 211.944 267.947C205.199 268.121 198.453 267.252 192.045 265.516C188.841 264.647 185.637 263.432 182.601 262.042C174.001 258.221 168.436 252.316 166.075 242.764C167.087 246.759 170.628 249.364 174.001 251.622C181.758 256.832 189.01 260.479 198.622 261.174C208.234 261.868 217.509 258.742 226.615 255.964C235.553 253.185 244.491 251.274 253.766 249.538C272.99 246.064 287.324 253.879 302.839 264.474C315.318 272.984 327.459 282.015 339.264 291.567C347.19 297.993 353.429 302.682 364.053 303.377C365.402 303.377 366.752 303.551 367.932 304.072C369.112 304.593 370.124 305.982 369.787 307.372C369.618 308.414 368.775 309.108 367.932 309.629C360.681 314.84 351.406 316.924 342.637 315.187C334.711 313.624 327.459 309.282 319.534 308.414C318.016 308.24 316.329 308.24 314.98 308.761C311.945 309.803 310.09 312.929 309.078 315.882C308.066 319.008 307.729 322.308 306.549 325.26C306.211 326.128 305.874 326.823 305.2 327.344C304.525 327.692 303.682 327.865 303.007 327.865C298.623 328.56 295.081 328.039 291.877 326.476Z" fill="#FBC94F"/>
<path d="M150.73 365.553C156.632 368.679 162.366 372.5 168.099 375.973C171.809 378.231 175.519 380.489 179.229 382.573C183.614 385.005 187.155 388.478 191.202 391.604C189.516 391.778 187.998 392.125 186.312 392.473C185.469 392.82 184.457 392.994 183.782 393.688C183.276 394.209 182.77 395.078 182.602 395.772C180.747 400.288 180.916 404.456 180.747 409.319C180.41 418.698 180.241 428.25 179.904 437.628C179.904 439.191 179.735 440.754 179.061 442.144C178.386 443.36 177.374 444.402 176.194 445.096C171.303 448.57 165.064 449.786 158.993 449.265C153.091 448.917 147.188 447.007 141.623 445.096C139.6 444.402 137.407 443.533 135.721 441.97C133.192 439.365 132.686 435.197 132.517 431.376C132.348 427.034 132.18 422.518 132.18 418.177C132.011 403.761 129.144 388.999 129.819 374.41C129.988 369.895 130.493 365.206 134.709 363.121C139.768 361.558 146.176 363.295 150.73 365.553Z" fill="#FBC94F"/>
<path d="M295.924 358.779C288.673 366.768 285.3 377.883 284.625 388.824C284.457 391.777 284.625 394.729 284.625 397.682C284.625 400.113 283.951 402.197 283.782 404.629C283.108 410.36 283.782 416.265 283.614 422.17C283.445 429.291 281.759 437.106 276.194 441.622C274.001 443.359 271.472 444.401 268.774 445.269C260.511 447.7 251.742 446.832 243.31 444.922C241.286 444.401 239.094 443.706 237.745 441.969C236.733 440.58 236.396 438.843 236.227 437.106C235.215 426.859 236.396 416.613 235.721 406.192C235.384 401.329 234.878 396.293 233.192 391.777C231.505 387.088 228.301 382.398 230.493 377.188C231.168 375.451 232.517 374.062 233.697 372.846C251.236 355.826 274.001 361.731 295.25 358.779" fill="#FBC94F"/>
<path d="M51.4028 90.4506C49.2105 90.4506 46.8496 89.7559 44.8259 88.3665C42.6337 86.9771 40.7787 84.7193 39.4296 82.1142C39.261 81.7668 39.4296 81.2458 39.7669 80.8985C40.1041 80.7248 40.6101 80.8985 40.9473 81.2458C42.2964 83.6773 43.8141 85.5877 45.8378 86.8034C48.03 88.1928 50.3909 88.8875 52.5832 88.5402C53.595 88.3665 54.7755 88.0192 56.1245 87.3245C58.4855 86.1087 60.5091 84.5456 62.3641 82.6352C62.7014 82.2879 63.2072 82.2879 63.5445 82.6352C63.8818 82.9826 63.8818 83.5036 63.5445 83.8509C61.5209 85.935 59.3286 87.6718 56.7991 88.8875C55.2814 89.5822 54.1009 90.1033 52.7518 90.2769C52.2459 90.2769 51.9087 90.4506 51.4028 90.4506Z" fill="#5F4A4A"/>
<path d="M19.5309 106.777C16.3268 106.777 13.1228 106.256 10.0874 105.387C9.58145 105.214 9.41279 104.693 9.58142 104.345C9.75006 103.824 10.256 103.651 10.5932 103.824C17.3387 105.908 24.7586 105.561 31.3354 102.782C37.9122 100.177 43.6459 95.1405 47.1872 88.8881C47.3558 88.5408 47.8617 88.3671 48.3676 88.5408C48.7049 88.7145 48.8736 89.2355 48.7049 89.7565C44.8263 96.3562 38.9241 101.566 32.01 104.345C27.9627 105.908 23.7468 106.777 19.5309 106.777Z" fill="#5F4A4A"/>
<path d="M31.6727 42.5156C37.2376 39.9104 43.6458 44.947 46.8499 49.4626C50.5599 54.4992 50.8971 61.2725 46.8499 66.1355C43.3085 70.3037 37.5749 72.0404 32.1786 70.9984C29.8177 70.4773 27.6254 69.609 25.9391 68.0459C23.5782 65.7881 22.3977 62.4883 22.3977 59.3621C22.3977 56.0623 23.2409 52.9361 24.7586 49.9836C26.2763 46.8575 28.6372 43.905 31.6727 42.5156Z" fill="white"/>
<path d="M36.7319 46.51C40.7791 44.5996 45.3323 48.2468 47.6932 51.5466C50.3914 55.1938 50.56 60.0567 47.6932 63.7039C45.1637 66.6564 40.9478 67.8721 37.0692 67.1774C35.3828 66.83 33.6964 66.1353 32.516 64.9196C30.8296 63.3565 29.9865 60.9251 29.9865 58.6673C29.9865 56.2358 30.661 53.978 31.6728 51.8939C32.8533 49.6362 34.371 47.5521 36.7319 46.51Z" fill="#5F4A4A"/>
<path d="M62.5327 58.8433C70.6272 59.0169 74.8431 66.8323 69.1095 73.2583C66.2427 76.5582 62.0268 78.6423 57.6422 78.6423C55.7872 78.6423 53.9322 78.2949 52.4145 77.2529C50.0536 75.5161 49.0418 72.39 49.3791 69.6112C49.7164 66.6587 51.4027 64.0535 53.595 62.3168C56.1245 60.059 59.3286 58.8433 62.5327 58.8433Z" fill="#F08C6D"/>
<path d="M124.422 79.5084C124.422 73.9508 127.457 70.9983 132.179 75.3402C135.215 78.119 135.721 82.9819 134.877 86.8028C134.372 88.7132 133.36 90.6237 131.673 90.971C130.156 91.3184 128.469 90.45 127.457 89.2343C124.928 86.8028 124.422 82.982 124.422 79.5084Z" fill="#EB8B6A"/>
<path d="M121.892 105.733C121.892 101.044 124.591 98.4387 128.469 102.086C130.999 104.517 131.505 108.512 130.661 111.812C130.324 113.375 129.481 114.938 127.963 115.459C126.614 115.806 125.265 115.112 124.422 114.07C122.23 111.985 121.892 108.686 121.892 105.733Z" fill="#EB8B6A"/>
<path d="M118.014 66.8296C116.327 64.9191 115.147 60.0562 118.351 58.8405C121.049 57.7984 123.916 62.1403 124.253 64.3981C124.59 65.9612 123.747 67.8716 122.23 68.3926C120.88 68.9137 119.025 68.0453 118.014 66.8296Z" fill="#EB8B6A"/>
<path d="M135.552 126.4C133.528 124.837 134.203 120.322 134.54 118.064C135.046 115.111 137.913 114.243 139.43 117.369C140.274 119.106 140.779 123.622 139.768 125.358C138.924 126.748 136.901 127.442 135.552 126.4Z" fill="#EB8B6A"/>
<path d="M230.325 264.125C230.325 262.562 231.843 261.52 233.361 260.999C235.553 260.304 241.961 261.346 239.094 264.819C237.408 267.077 229.988 268.293 230.325 264.125Z" fill="#EB8B6A"/>
<path d="M218.689 279.234C217.34 277.671 217.003 275.587 218.689 273.676C219.533 272.808 220.882 272.461 222.062 272.634C223.917 272.634 225.603 273.155 227.29 274.024C228.133 274.371 228.976 275.066 229.482 275.934C231.506 279.408 225.603 281.665 223.242 281.665C221.387 281.318 219.701 280.45 218.689 279.234Z" fill="#EB8B6A"/>
<path d="M211.775 267.425C213.63 263.257 218.521 266.209 216.16 268.988C215.654 269.509 214.811 270.03 214.136 270.204C213.462 270.378 212.45 270.378 211.944 269.857C211.438 269.335 211.438 268.293 211.775 267.425Z" fill="#EB8B6A"/>
<path d="M130.324 377.537C130.324 377.537 216.835 416.961 291.034 365.38" stroke="#EB8B6A" stroke-miterlimit="10"/>
</svg>
