<svg width="334" height="254" viewBox="0 0 334 254" fill="none" xmlns="http://www.w3.org/2000/svg">
<path d="M-34 186.08V0H300.994C291.248 13.1995 277.671 23.5466 262.333 29.3075C253.803 32.5234 244.715 34.3132 235.598 34.6488C227.222 34.9704 218.819 34.0895 210.737 31.9502C209.185 31.5587 207.647 31.1252 206.123 30.6218C204.445 41.9477 197.509 52.6304 191.567 62.4322C185.778 71.9823 178.857 81.1408 169.6 87.405C158.806 94.7179 145.368 97.5564 132.351 96.7454C119.347 95.9204 106.749 91.6138 95.1709 85.6153C93.4091 95.0815 88.5292 103.163 80.4054 108.379C72.2955 113.566 62.0183 115.244 52.6639 112.895C39.4784 139.854 18.141 164.169 -8.94324 177.089C-16.9692 180.934 -25.3728 183.941 -34 186.08Z" fill="white"/>
<path d="M315.154 133.638C315.154 133.638 256.961 97.0929 245.323 100.271C233.296 103.449 242.607 125.694 315.154 133.638Z" fill="#1A2E36"/>
<path d="M215.451 138.008C197.605 143.172 170.836 135.624 170.836 135.624L148.723 86.3676C148.723 86.3676 96.7374 77.6285 88.5904 79.2174C80.0554 80.8063 11 102.654 11 102.654C11 102.654 94.7976 107.818 107.6 134.433C124.282 128.872 171.224 181.704 173.164 195.607C194.889 184.881 202.26 180.909 198.381 196.798C239.892 172.567 263.945 183.69 278.687 199.976C302.352 197.99 326.017 254 326.017 254C326.017 254 336.104 197.196 332.224 186.073C328.345 174.951 308.559 155.883 308.559 155.883C308.559 155.883 277.523 163.431 265.884 161.047C254.246 158.267 243.771 148.733 241.831 137.611C241.055 135.625 239.116 132.447 235.624 130.858C229.805 128.077 221.27 130.858 215.451 138.008Z" fill="#43AA8B"/>
<path d="M278.299 199.976C279.851 198.387 281.402 197.196 282.566 195.607C284.118 194.018 285.282 192.429 286.446 190.84C289.161 187.662 291.489 184.484 293.817 180.909C298.472 174.156 302.74 167.006 306.619 159.856L307.783 161.047C302.74 163.431 297.308 165.417 291.877 166.609C286.446 167.8 280.626 168.198 275.195 167.8C269.764 167.403 263.945 166.211 258.901 164.225C253.47 162.239 248.814 159.061 244.547 155.486C249.202 158.664 253.858 161.445 259.289 163.431C264.72 165.417 270.152 166.211 275.583 166.609C281.014 167.006 286.834 166.211 292.265 165.02C297.696 163.828 303.128 162.239 307.783 159.458C308.171 159.458 308.559 159.458 308.947 159.856C308.947 160.253 308.947 160.253 308.947 160.65C305.067 168.198 300.8 174.951 296.145 181.704C293.817 184.881 291.101 188.059 288.386 191.237C286.834 192.826 285.67 194.415 284.118 195.607C281.402 197.593 279.851 198.785 278.299 199.976Z" fill="#1A2E36"/>
<path d="M325.629 254C325.629 254 327.569 228.974 328.345 204.346C328.345 201.168 328.345 197.99 328.345 195.209C328.345 193.621 328.345 192.032 327.957 190.84C327.957 190.045 327.957 189.251 327.569 188.854L326.793 186.868C325.629 184.484 324.465 181.704 322.913 179.717C321.361 177.334 320.198 175.348 318.646 173.759C313.602 165.814 309.723 161.047 309.723 161.047C309.723 161.047 310.887 162.239 312.827 163.828C313.99 164.623 314.766 165.814 316.318 167.403C317.482 168.595 319.034 170.581 320.198 172.17C321.749 174.156 323.301 176.142 324.465 178.526C325.629 180.909 327.181 183.292 328.345 186.073L329.12 188.059C329.508 188.854 329.508 189.648 329.508 190.443C329.508 192.032 329.508 193.621 329.508 195.209C329.508 198.387 329.508 201.565 329.508 204.346C329.12 216.66 327.957 229.372 327.181 238.508C326.405 248.042 325.629 254 325.629 254Z" fill="#1A2E36"/>
<path d="M146.395 91.1344L154.154 112.188C156.87 119.338 159.198 126.488 161.913 133.241C162.689 134.83 163.465 136.816 164.241 138.405C165.017 139.994 166.181 141.186 167.733 141.98C170.836 143.569 174.716 144.364 178.207 145.158C185.578 146.35 192.949 147.542 199.933 147.939C200.32 147.939 200.32 147.939 200.32 148.336C200.32 150.322 199.933 152.706 199.157 154.692C198.769 156.678 197.993 158.664 197.217 160.65C196.829 161.445 196.441 162.636 196.053 163.431C195.665 164.225 195.277 165.417 194.501 166.211C193.337 168.198 192.174 169.787 191.01 171.376C190.234 172.17 189.846 172.964 189.07 173.759C188.294 174.553 187.518 175.348 187.13 176.142L182.475 180.115C180.923 181.306 178.983 182.498 177.431 183.69C176.655 184.087 175.492 184.881 174.716 185.279C175.492 184.881 176.655 184.484 177.431 183.69C178.983 182.498 180.923 181.306 182.475 180.115L187.13 176.142C187.906 175.348 188.682 174.553 189.07 173.759C189.846 172.964 190.622 172.17 191.01 171.376C192.174 169.787 193.337 167.8 194.501 166.211C194.889 165.417 195.277 164.225 196.053 163.431C196.441 162.636 196.829 161.445 197.217 160.65C198.769 156.678 199.933 152.706 199.933 148.733L200.32 149.13C192.949 148.733 185.578 148.336 178.207 147.144C174.716 146.35 170.836 145.555 167.345 143.966C166.569 143.569 165.793 143.172 165.017 142.377C164.241 141.583 163.465 140.789 163.077 139.994C162.301 138.405 161.525 136.419 160.749 134.83C155.318 120.132 150.663 105.832 146.395 91.1344Z" fill="#1A2E36"/>
<path d="M11 102.654C21.8626 99.4763 32.3373 96.2984 43.2 93.1206C54.0626 90.3399 64.9253 87.5593 75.788 85.1759C81.2193 83.9842 86.6506 83.1897 92.4699 82.7925C95.1855 82.7925 98.2892 82.7925 101.005 82.7925C103.72 82.7925 106.436 83.1897 109.54 83.587C120.402 84.7787 131.265 86.3676 142.516 87.9565C142.904 87.9565 142.904 88.3538 142.904 88.751C142.904 88.751 142.904 89.1482 142.516 89.1482C135.533 95.9012 128.937 102.654 123.118 110.202C120.014 113.777 117.299 117.749 114.583 121.721C113.807 122.913 113.419 123.708 112.643 124.899C111.867 126.091 111.48 126.885 110.704 128.077C111.092 126.885 111.867 126.091 112.255 124.899C113.031 123.708 113.419 122.913 114.195 121.721C116.911 117.749 119.627 113.777 122.342 109.804C128.161 102.257 134.757 95.1067 141.74 88.3538L142.128 89.5455C131.265 87.9565 120.014 86.3676 109.152 85.5731C103.333 84.7787 97.9012 84.3814 92.4699 84.3814C87.0386 84.7787 81.6072 85.5731 76.1759 86.7648C65.3133 89.1482 54.4506 91.5316 43.588 94.3123C32.7253 97.0929 21.8626 99.4763 11 102.654Z" fill="#1A2E36"/>
<path d="M171.612 191.634C171.612 191.634 167.345 194.018 167.345 198.387C166.957 201.168 165.405 202.36 163.853 202.36C162.301 202.757 162.689 205.935 166.569 203.949C163.853 207.126 165.017 209.113 169.672 205.935C166.569 211.099 169.284 212.688 172.776 207.921C176.267 203.551 174.328 196.798 179.371 191.634" fill="#43AA8B"/>
<path d="M199.157 191.634C199.157 191.634 194.889 194.018 194.889 198.387C194.501 201.168 192.949 202.36 191.398 202.36C189.846 202.757 190.234 205.935 194.113 203.949C191.398 207.126 192.561 209.113 197.217 205.935C194.113 211.099 196.829 212.688 200.32 207.921C203.812 203.551 201.872 196.798 206.916 191.634" fill="#43AA8B"/>
<path d="M142.904 86.7648C143.292 86.7648 145.619 79.6146 148.723 79.2174C151.826 78.8202 147.947 83.1897 147.947 83.1897C147.947 83.1897 153.766 79.2174 155.706 81.998C157.258 84.7787 150.663 85.5731 150.663 85.5731C150.663 85.5731 155.706 85.1759 155.706 87.9565C155.706 90.7372 150.275 88.3538 147.559 89.5455" fill="#43AA8B"/>
<path d="M307.395 157.075C307.783 157.075 310.499 150.322 313.214 150.322C315.93 150.322 312.051 154.294 312.051 154.294C312.051 154.294 317.87 151.117 319.422 153.897C320.973 156.678 314.766 156.678 314.766 156.678C314.766 156.678 319.422 156.678 319.422 159.458C319.422 162.239 313.99 159.459 311.663 160.253" fill="#43AA8B"/>
<path d="M210.407 149.13C210.407 149.13 209.243 149.13 207.304 149.528C206.14 149.528 205.364 149.528 203.812 149.528C202.648 149.528 201.096 149.528 199.933 149.528C198.769 149.528 197.217 149.13 196.053 149.13C194.889 149.13 193.725 148.733 192.561 148.733C190.622 148.336 189.458 147.939 189.458 147.939C189.458 147.939 190.622 147.939 192.561 147.542C193.725 147.542 194.501 147.542 196.053 147.542C197.217 147.542 198.769 147.542 199.933 147.542C201.096 147.542 202.648 147.939 203.812 147.939C204.976 147.939 206.14 148.336 207.304 148.336C209.243 148.733 210.407 149.13 210.407 149.13Z" fill="#1A2E36"/>
<path d="M215.451 138.008C215.451 138.008 230.969 124.899 232.133 104.64C243.383 107.421 243.383 107.421 243.383 107.421C243.383 107.421 239.504 128.872 243.383 141.98C229.805 146.35 215.451 138.008 215.451 138.008Z" fill="#43AA8B"/>
<path d="M302.352 120.927C299.636 126.488 296.533 126.885 297.696 122.516C294.205 126.885 291.877 125.296 292.653 122.119C289.549 126.091 284.894 126.488 286.834 120.927C283.73 124.899 279.851 125.694 281.402 120.53C277.911 124.502 274.031 123.31 276.359 118.146C273.255 122.119 270.152 121.324 271.316 116.16C266.272 119.735 265.108 119.338 265.496 114.968C261.617 119.338 258.125 116.16 259.677 112.585C261.229 108.613 302.352 120.927 302.352 120.927Z" fill="white"/>
<path d="M230.581 114.174C230.581 114.174 291.877 143.569 315.154 133.638C312.827 131.255 252.694 123.708 241.443 104.243C274.807 118.543 279.463 116.955 297.308 120.132C315.154 123.31 320.973 124.899 333 124.502C331.06 114.571 308.171 106.229 294.981 104.64C281.79 103.051 258.901 85.1759 244.935 74.4506C230.969 63.7253 197.217 47.836 192.949 54.5889C188.682 61.3419 223.986 78.0257 219.33 90.3399C218.942 91.1344 215.839 98.2846 219.718 105.435C223.21 112.188 229.417 113.777 230.581 114.174Z" fill="#43AA8B"/>
<path d="M247.829 93.0365C250.421 88.745 249.124 83.1148 244.933 80.4612C240.741 77.8075 235.243 79.1353 232.651 83.4268C230.06 87.7184 231.356 93.3485 235.548 96.0021C239.739 98.6558 245.237 97.328 247.829 93.0365Z" fill="white"/>
<path d="M252.152 96.045C254.744 91.7535 253.447 86.1234 249.256 83.4697C245.064 80.8161 239.566 82.1439 236.974 86.4354C234.383 90.7269 235.679 96.3571 239.871 99.0107C244.062 101.664 249.561 100.337 252.152 96.045Z" fill="#1A2E36"/>
<path d="M250.754 79.2174C250.754 79.2174 249.978 78.8202 249.202 78.4229C248.039 77.6285 246.875 76.834 244.935 76.4368C244.159 76.0395 242.995 75.6423 241.831 75.2451C240.667 74.8478 239.504 74.4506 238.34 74.4506C237.176 74.0534 236.012 74.0534 234.848 74.0534C233.684 74.0534 232.52 74.4506 230.969 74.8478C230.193 74.8478 229.805 75.2451 229.029 75.6423C228.253 76.0395 227.865 76.0395 227.477 76.4368C226.313 77.2312 225.537 78.0257 224.761 78.8202C223.986 79.6146 223.21 80.8063 222.822 81.6008C222.046 82.3953 221.658 83.587 221.27 84.3814C220.882 84.7787 220.494 85.5731 220.494 86.3676C220.106 87.1621 220.106 87.9565 220.106 88.3538C219.718 89.5455 219.718 90.3399 219.718 90.3399C219.718 90.3399 219.718 89.5455 219.718 88.3538C219.718 87.5593 219.718 87.1621 220.106 86.3676C220.106 85.5731 220.494 84.7787 220.882 83.587C221.27 82.7925 221.658 81.6008 222.046 80.4091C222.434 79.2174 223.21 78.4229 223.986 77.2312C224.761 76.4368 225.925 75.2451 227.089 74.4506C227.477 74.0534 228.253 73.6561 229.029 73.2589C229.417 73.2589 229.805 72.8617 230.581 72.8617C232.133 72.4644 233.296 72.4644 234.848 72.0672C236.4 72.0672 237.564 72.0672 238.728 72.4644C239.892 72.8617 241.055 73.2589 242.219 73.6561C243.383 74.0534 244.159 74.4506 245.323 75.2451C247.263 76.0395 248.427 77.2312 249.59 78.0257C250.366 78.4229 250.754 79.2174 250.754 79.2174Z" fill="#1A2E36"/>
<path d="M242.607 137.611C249.59 165.417 224.761 194.812 200.32 189.251L242.607 137.611Z" fill="#43AA8B"/>
<path d="M242.607 137.611C242.607 137.611 242.995 138.802 243.383 140.789C243.771 141.98 243.771 143.172 244.159 144.761C244.159 146.35 244.547 147.939 244.159 149.925C244.159 151.911 244.159 153.897 243.383 155.883C242.995 157.87 242.219 160.253 241.831 162.636C241.055 165.02 239.892 167.006 238.728 169.389C237.952 170.581 237.564 171.375 236.788 172.567L234.46 175.745C233.684 176.937 232.908 177.731 232.133 178.526C231.357 179.32 230.581 180.512 229.417 181.306C228.641 182.101 227.477 182.895 226.701 183.69C225.925 184.484 224.761 184.881 223.598 185.676C221.658 186.868 219.718 187.662 217.778 188.854C215.839 189.251 213.899 190.045 211.959 190.443C211.183 190.443 210.019 190.84 209.243 190.84C208.467 190.84 207.692 190.84 206.916 190.84C205.364 190.84 204.2 190.84 203.036 190.443C201.096 190.045 199.933 189.648 199.933 189.648C199.933 189.648 201.096 189.648 203.424 190.045C204.588 190.045 205.752 190.045 207.304 190.045C208.08 190.045 208.855 190.045 209.631 190.045C210.407 190.045 211.183 189.648 211.959 189.648C213.899 189.251 215.451 188.457 217.39 188.059C218.166 187.662 219.33 187.265 220.106 186.47C220.882 186.073 222.046 185.676 222.822 184.881C223.598 184.087 224.761 183.69 225.537 182.895C226.313 182.101 227.477 181.306 228.253 180.512C229.029 179.717 229.805 178.923 230.581 178.128C231.357 177.334 232.133 176.54 232.908 175.348L235.236 172.567C236.012 171.375 236.4 170.581 237.176 169.389C238.34 167.403 239.116 165.02 240.28 163.034C241.055 161.047 241.831 158.664 242.219 156.678C242.607 154.692 242.995 152.706 242.995 150.719C243.383 148.733 242.995 147.144 242.995 145.555C242.995 143.966 242.995 142.775 242.607 141.583C242.995 138.802 242.607 137.611 242.607 137.611Z" fill="#1A2E36"/>
</svg>
