<svg width="110" height="107" viewBox="0 0 110 107" fill="none" xmlns="http://www.w3.org/2000/svg">
<path d="M99.922 107C98.0958 107 96.2696 106.336 94.7754 105.008C90.2929 101.189 88.4667 94.0505 87.3046 87.4098C84.9803 75.2904 83.8181 62.1749 83.486 48.3953C83.486 46.5691 83.486 44.7429 83.486 43.0827C83.32 29.8012 83.3201 16.0216 77.8414 6.22647C77.6754 5.89443 77.5094 5.56239 77.3434 5.39637C77.0114 5.72841 76.6793 6.39249 76.1813 7.55462C69.2085 24.1565 68.7104 43.2487 68.2124 63.6691C67.8803 74.7923 67.5482 86.2476 66.054 97.2049C65.722 99.3631 65.39 101.521 64.2279 103.182C63.0657 104.842 61.4056 105.672 59.5794 105.34C56.259 104.842 53.4366 100.857 51.9424 97.2049C46.9618 84.0894 46.6299 68.8157 46.2978 54.206C46.1318 43.7468 45.7998 32.9555 43.8076 22.9944C43.1435 19.176 41.6493 17.3497 41.3173 17.5158C41.1512 17.5158 40.4872 17.8478 39.325 21.1682C35.1745 33.1215 34.6765 48.8934 34.3444 63.005L34.1785 68.1516C33.8464 78.7768 33.6804 89.734 28.5338 98.201C28.2017 98.6991 27.3716 100.193 25.7114 100.525C24.8813 100.691 22.3911 100.691 21.395 96.2088C19.7348 89.236 19.4027 81.7651 19.0707 74.7923C19.0707 73.2982 18.9047 71.97 18.9047 70.4758C18.0746 56.8623 16.2483 43.2487 13.758 29.9672C13.26 27.1449 12.5959 24.4886 11.2678 22.4963C10.6037 21.5002 9.77361 20.8362 9.10954 21.0022C8.61148 21.0022 7.94738 21.5002 7.11729 22.4963C4.95904 24.9866 3.46489 28.8051 2.46877 34.2837C0.476546 44.7429 0.642566 55.8662 0.808584 66.6574C0.974604 73.6302 0.974644 80.769 0.642606 87.7418C0.144548 96.0428 -1.8477 101.355 -5.50012 103.846C-6.49623 104.51 -7.99044 104.178 -8.65452 103.016C-9.3186 101.853 -8.98652 100.359 -7.9904 99.5292C-5.66614 97.869 -4.33798 93.8845 -3.83993 87.4098C-3.34187 80.603 -3.50793 73.6302 -3.67395 66.6574C-3.83997 55.5341 -4.00593 44.0788 -1.84768 33.1215C-0.519527 26.6468 1.30668 22.1643 3.96299 19.0099C5.45716 17.1837 7.11735 16.1876 8.94356 16.0216C11.1018 15.8556 13.4261 17.1837 15.0863 19.508C16.9125 22.1643 17.5766 25.4847 18.4067 28.8051C21.063 42.2526 22.8891 56.1982 23.7192 70.1438C23.8852 71.638 23.8853 72.9661 23.8853 74.4603C24.2173 80.935 24.5494 87.7418 25.8775 94.0505C29.5299 86.7457 29.6959 77.2826 29.8619 67.9855L30.028 62.839C30.36 49.0594 30.858 32.1254 35.3405 19.342C36.3366 16.5197 37.8309 13.0333 40.8192 12.5352C44.3056 11.8711 47.1279 15.3575 48.4561 21.9983C50.4483 32.2915 50.7803 43.4147 50.9463 54.04C51.2784 68.8156 51.6104 82.9273 56.259 95.2127C57.2551 98.035 59.2473 100.193 60.2434 100.359C60.4094 100.359 60.4095 100.359 60.7415 100.027C61.4056 99.1971 61.5716 97.3709 61.7376 96.3748C63.2318 85.7496 63.5638 74.2943 63.8958 63.337C64.3939 43.4147 65.058 22.8284 72.3628 5.23037C74.8531 -0.5803 77.8415 -0.248262 79.0036 0.249795C80.4978 0.747853 81.3279 2.07599 81.9919 3.40415C88.1346 14.5274 88.1346 28.9711 88.3006 42.9167C88.3006 44.7429 88.3006 46.5691 88.3006 48.2293C88.4666 61.5108 89.7948 74.4603 91.9531 86.2476C92.9492 91.5602 94.4434 98.035 97.7637 100.857C98.9259 101.853 100.586 102.019 102.08 101.355C103.574 100.525 104.57 99.0311 104.57 97.0389C104.57 95.7107 105.733 94.5486 106.895 94.7146C108.223 94.7146 109.053 95.8768 109.053 97.3709C108.887 101.189 106.895 104.51 103.906 106.004C102.412 106.668 101.084 107 99.922 107Z" fill="#F6CA11"/>
<path d="M81.494 15.3574C82.8222 18.1797 83.3202 21.8321 83.4862 24.9865C83.6522 26.9787 83.6522 29.137 84.3163 31.1292C86.9726 22.9942 84.1503 10.3768 79.1697 4.40013C78.6717 3.90207 78.1736 3.404 77.6755 3.23798C77.0114 3.07196 76.3474 3.238 75.8493 3.57004C74.5212 4.40013 73.6911 6.39234 73.027 8.21855C70.3707 15.6894 69.0425 22.9943 68.8765 31.2952C69.0425 25.8166 71.5329 21.002 72.861 15.8554C73.3591 14.0292 74.1892 12.037 75.6834 11.3729C77.0115 10.7088 78.6717 11.3729 79.8338 12.7011C80.4979 13.3652 80.996 14.3613 81.494 15.3574Z" fill="#F6CA11"/>
<path d="M42.8117 32.2914C43.9738 42.2526 44.9699 52.2137 45.634 62.1748C45.8 65.4952 46.1321 69.1476 48.1243 71.3059C47.9583 62.0088 47.6263 52.5457 47.4603 43.2487C47.2943 35.9438 47.1282 28.473 44.97 21.6662C44.4719 19.84 43.6418 18.0138 42.4797 17.1837C40.3215 15.5235 38.6612 17.5157 37.8311 19.84C36.669 22.6623 36.171 25.3186 36.337 28.473C36.835 26.9788 37.4991 25.6507 38.3292 24.6546C38.8273 23.9905 39.4913 23.4924 40.1554 23.6584C40.9855 23.8245 41.4835 24.9866 41.8156 25.9827C42.6457 28.141 42.6456 30.1332 42.8117 32.2914Z" fill="#F6CA11"/>
</svg>
