<svg width="165" height="137" viewBox="0 0 165 137" fill="none" xmlns="http://www.w3.org/2000/svg">
<path d="M105.372 136.171C104.015 136.171 102.658 136.34 101.471 136.34C74.5033 136.849 47.3658 135.492 20.5675 133.966C3.43699 132.948 -13.5239 131.761 -30.4848 129.386C-45.9193 127.182 -61.0145 127.86 -76.6185 126.164C-81.0284 125.655 -85.6078 125.146 -89 122.772C-83.2333 112.765 -65.2547 103.945 -56.0958 95.295C-43.884 83.7616 -33.1986 71.2105 -24.3789 57.8113C-14.7112 43.0553 -10.6405 23.0415 3.43703 10.66C13.444 1.84032 29.7264 1.50108 42.956 4.38443C60.5953 8.28544 71.4503 22.7022 79.9307 35.0837C90.1073 50.0093 106.39 63.0692 113.005 79.1821C119.789 95.6342 138.107 107.507 155.916 115.478C158.121 116.496 160.495 117.514 162.361 119.04C164.227 120.567 165.244 122.772 164.735 124.807C163.887 127.69 160.156 129.217 156.594 130.065C148.283 132.1 140.312 131.083 132.17 132.1C122.842 133.118 114.701 135.662 105.372 136.171Z" fill="#FBC94F"/>
<path d="M54.1505 5.23231C39.2249 -2.23049 16.4972 -2.23049 3.77656 8.6245C-2.8382 14.3912 -7.75687 21.6844 -9.79218 29.4865C-10.6402 33.0483 -13.8628 36.4404 -11.8275 40.1718C-10.4706 42.716 -7.07843 44.4121 -3.85586 44.4121C-2.15977 44.4121 -0.463685 43.9032 1.0628 44.5817C2.75889 45.2601 3.60698 46.9562 3.43737 48.4827C3.26776 50.0091 2.41971 51.5356 1.74128 52.8925C-1.4813 59.3377 -2.6686 66.4613 -1.31172 73.4152C-0.972503 75.2809 0.214783 77.4858 2.4197 77.3162C3.43736 77.3162 4.2854 76.6378 4.96384 76.129C9.37368 72.3976 10.7305 67.1397 13.9531 62.7299C14.6315 61.8818 15.4796 60.8641 16.4972 60.5249C20.3983 58.8288 24.6385 62.5602 28.3699 61.2034C31.0836 60.1857 33.7974 55.9455 35.8327 54.2494C39.9033 50.8572 46.0093 48.6523 51.2671 50.1788C54.9985 51.1964 57.8819 54.0798 61.7829 54.7582C66.8712 55.6063 71.9594 52.5533 73.9948 48.6523C76.0301 44.7513 75.8605 40.3414 75.3517 36.1012C74.8428 32.3698 74.1644 28.4688 72.8075 24.907C69.585 16.4265 62.8006 9.64215 54.1505 5.23231Z" fill="#EF896A"/>
<path d="M90.2769 68.497C88.4112 65.2745 84.8494 55.2675 78.5738 55.946C72.4679 56.6244 78.065 63.5784 78.4042 66.6313C79.0827 71.7196 78.4043 76.8079 79.7611 82.0658C80.1003 83.4227 80.4396 84.7795 81.4572 85.7972C82.3053 86.9844 83.8317 87.8325 85.5278 87.8325C87.7327 87.8325 89.5985 86.4756 90.7857 84.9491C93.3299 81.7265 94.1779 77.4863 92.9906 73.7549C92.3122 72.0588 91.2945 70.1931 90.2769 68.497Z" fill="#EF896A"/>
<path d="M51.945 9.9815C46.8567 6.92853 39.7331 3.70595 33.4576 3.87556C26.334 4.04517 19.0408 5.57164 12.9349 8.79421C11.9172 9.30304 11.0692 9.9815 10.5603 10.8295C10.0515 11.6776 10.0515 12.8649 10.8996 13.5433C11.4084 13.8825 11.9172 14.0521 12.5957 14.2217C16.3271 15.0698 20.3977 14.2217 24.2987 13.8825C31.2527 13.2041 38.3763 13.7129 45.1606 15.409C47.0263 15.9178 49.0617 16.4266 50.9274 16.257C52.9627 16.0874 54.8284 14.7305 54.6587 13.0344C54.3195 11.6776 53.1323 10.8295 51.945 9.9815Z" fill="#D35E42"/>
</svg>
