<svg width="173" height="244" viewBox="0 0 173 244" fill="none" xmlns="http://www.w3.org/2000/svg">
<path d="M35.6888 186.621C31.0123 178.337 23.1558 172.558 17.9182 164.852C15.4865 161.191 13.6159 157.338 12.3065 153.1C10.9971 148.669 10.4358 143.853 11.7453 139.422C13.0547 134.22 17.7312 128.634 23.53 129.019C28.2064 129.404 33.8182 135.184 36.437 138.844C39.0558 142.504 40.5523 146.743 42.0487 150.981C43.9193 143.468 55.8911 125.744 62.9993 138.266C69.1722 148.862 59.2581 162.732 52.7111 170.438C48.0346 176.218 42.984 181.612 37.5593 186.621" fill="#EF896A"/>
<path d="M54.7683 242.488C55.8907 233.626 53.4589 224.572 54.0201 215.517C54.2071 211.472 55.1424 207.233 56.6389 203.573C58.1354 199.527 60.5672 195.674 63.9342 193.17C67.8624 190.28 74.5965 188.932 78.5247 192.592C81.7047 195.674 82.64 203.38 82.453 207.619C82.2659 211.857 81.1436 215.903 79.6471 219.948C85.2588 215.517 104.152 209.738 102.281 223.223C100.598 234.782 85.6329 239.02 76.28 240.754C69.5459 242.103 62.6248 243.066 55.7036 243.451" fill="#EF896A"/>
<path d="M137.057 109.412C136.653 109.619 135.646 108.789 134.839 107.128C133.831 105.467 133.025 102.56 132.622 99.0311C132.42 97.1626 132.42 95.2941 132.622 93.0104C132.823 90.9343 133.428 88.443 134.436 86.1593C135.444 83.8756 136.855 81.3843 139.274 79.5158C141.492 77.4397 144.515 76.194 147.539 75.7788C148.749 75.5712 149.958 75.5712 151.168 75.5712C152.377 75.5712 153.587 75.7788 154.796 75.9864C160.642 77.0244 165.48 80.5538 168.504 84.4984C171.528 88.6506 172.737 93.4256 172.737 96.955C172.737 100.692 171.931 103.599 170.923 105.467C169.915 107.335 169.109 107.958 168.705 107.751C167.698 107.335 169.31 103.391 168.504 97.3702C168.101 94.4637 166.891 90.9343 164.472 88.0277C162.053 85.1212 158.223 82.6299 153.99 82.0071C153.183 81.7995 152.176 81.7994 151.369 81.7994C150.563 81.7994 149.757 81.7995 148.749 82.0071C146.531 82.4223 144.717 83.0451 143.306 84.2908C141.895 85.5364 140.685 87.1973 139.879 88.8582C139.072 90.5191 138.468 92.3876 138.065 94.256C137.661 96.1245 137.46 97.7854 137.46 99.2387C136.653 105.052 138.065 108.996 137.057 109.412Z" fill="#BCD88A"/>
<path d="M141.289 108.58C140.282 108.58 139.274 106.712 139.274 103.182C139.274 101.314 139.677 99.03 141.088 96.7463C142.499 94.4626 144.918 92.1789 148.143 91.556C148.748 91.3484 149.555 91.3484 150.159 91.3484C150.764 91.3484 151.57 91.3484 152.175 91.556C153.989 91.9713 155.4 92.8017 156.408 93.8398C157.618 94.8778 158.424 95.9159 159.029 96.9539C160.44 99.03 161.246 101.106 161.448 103.182C161.65 105.258 161.246 106.919 160.642 107.75C160.037 108.788 159.231 108.995 158.827 108.58C158.424 108.372 158.223 107.75 158.223 106.919C158.021 106.089 157.819 105.258 157.416 104.013C156.812 102.767 156.005 101.521 154.997 100.276C153.788 99.03 152.377 97.7844 150.966 97.5767C150.764 97.5767 150.361 97.5767 150.159 97.5767C149.958 97.5767 149.554 97.5767 149.353 97.5767C147.942 97.7844 146.329 98.8224 145.523 100.068C144.515 101.314 143.91 102.767 143.507 104.013C142.499 106.504 142.096 108.372 141.289 108.58Z" fill="#BCD88A"/>
<path d="M98.9565 105.466C98.5534 105.466 97.9486 105.051 97.5454 104.013C97.1422 102.975 97.1422 101.314 97.5454 99.2377C98.1502 97.3692 99.1581 95.0855 101.376 93.217C103.593 91.3485 106.617 90.1029 109.842 90.3105C110.447 90.3105 111.052 90.3105 111.656 90.5181C112.261 90.5181 112.866 90.7257 113.471 90.9333C116.494 91.7638 119.115 93.8399 120.728 96.1236C122.34 98.4073 123.147 100.691 123.348 102.559C123.55 104.428 123.348 106.089 122.945 107.127C122.542 108.165 122.139 108.58 121.534 108.58C121.131 108.58 120.728 107.957 120.325 107.127C120.123 106.296 119.72 105.051 119.115 103.805C118.107 101.314 115.688 97.9921 111.858 96.954C111.455 96.7464 111.052 96.7464 110.648 96.7464C110.245 96.7464 109.842 96.7464 109.439 96.7464C107.423 96.7464 105.81 97.1616 104.399 97.9921C102.988 98.8225 101.98 100.068 101.174 101.314C100.166 103.182 99.9645 105.258 98.9565 105.466Z" fill="#BCD88A"/>
<path d="M94.7229 77.439C94.3198 77.439 93.7151 76.8162 93.3119 75.1553C92.9087 73.4944 92.9087 71.0031 93.3119 68.0966C93.9166 65.1901 95.1261 61.6607 96.9404 58.3389C97.9483 56.678 99.1578 54.8096 100.771 52.9411C102.383 51.2802 104.601 49.6193 107.02 48.7889C108.028 48.3737 109.035 48.166 110.043 47.9584C111.051 47.7508 112.059 47.7508 113.067 47.7508C118.107 47.9584 122.542 50.2421 125.566 52.9411C128.589 55.64 130.605 58.7541 131.815 61.4531C133.226 64.152 133.629 66.6433 133.629 68.5118C133.427 70.3803 133.024 71.2107 132.419 71.0031C131.411 70.7955 131.21 67.6814 128.186 63.7368C126.573 61.6607 124.759 59.377 122.139 57.3009C119.518 55.2248 116.293 53.7715 112.866 53.7715C112.261 53.7715 111.455 53.7715 110.85 53.9791C110.245 54.1867 109.64 54.1867 108.834 54.3943C105.81 55.4324 103.391 58.1313 101.577 61.0378C99.7626 63.9444 98.3515 66.6433 97.3436 69.1346C95.5293 74.1173 95.5293 77.439 94.7229 77.439Z" fill="#BCD88A"/>
<path d="M106.416 77.232C105.408 77.4396 104.199 75.7787 104.199 72.2494C104.199 70.5885 104.602 68.3048 106.013 66.2287C106.618 65.1906 107.626 64.1526 108.835 63.3221C110.045 62.4917 111.456 61.8689 112.867 61.4536C113.472 61.246 114.076 61.246 114.681 61.246C115.286 61.246 115.891 61.246 116.496 61.246C118.108 61.4537 119.519 62.0765 120.729 63.1145C121.938 64.1526 122.745 65.1906 123.349 66.4363C124.559 68.72 124.76 70.5885 124.962 72.2494C124.962 73.9102 124.76 75.5711 124.156 76.4016C123.551 77.232 122.946 77.6472 122.543 77.4396C121.737 77.0244 121.737 75.3635 120.729 73.2874C120.326 72.2494 119.519 70.7961 118.713 69.5504C117.705 68.3048 116.899 67.6819 115.689 67.6819C115.488 67.6819 115.084 67.6819 114.883 67.6819C114.681 67.6819 114.278 67.6819 114.076 67.8895C113.27 68.0972 112.665 68.3048 112.061 68.72C111.456 69.1352 111.053 69.5504 110.448 69.9657C109.44 71.0037 108.835 72.2494 108.432 73.495C107.626 75.1559 107.424 77.0244 106.416 77.232Z" fill="#BCD88A"/>
<path d="M41.7069 78.2705C41.3038 78.2705 40.699 77.44 40.2958 75.7792C39.8926 74.1183 39.8926 71.4193 40.4974 68.0976C41.1022 64.9834 42.7148 61.2465 45.537 57.7171C46.9481 56.0562 48.7624 54.3953 50.7783 53.1497C51.7862 52.5269 52.9957 51.904 54.4068 51.4888C55.6163 51.0736 57.229 50.866 58.6401 50.6584C59.8496 50.6584 60.8575 50.6584 61.8654 51.0736C62.8734 51.2812 63.8813 51.4888 64.8892 51.904C69.9288 53.7725 73.759 57.5095 75.9764 61.4541C76.9843 63.5302 77.7907 65.6063 77.9922 67.6824C78.1938 69.7585 77.9922 71.627 77.7906 73.2878C76.9843 76.6096 75.3716 78.8933 73.9605 80.139C72.5495 81.3846 71.5415 81.5922 71.3399 81.177C70.7351 80.3466 73.1542 77.8552 73.5574 72.4574C73.7589 69.9661 73.1542 66.8519 71.3399 64.153C69.5256 61.4541 66.7035 58.7551 63.075 57.5095C62.2686 57.3019 61.6639 57.0943 60.8575 56.8867C60.0512 56.679 59.4464 56.679 58.8417 56.679C55.6163 56.679 52.1894 58.9628 49.7703 61.4541C47.3513 63.9454 45.7386 66.8519 44.7307 69.3432C42.7148 74.5335 42.7148 78.2705 41.7069 78.2705Z" fill="#BCD88A"/>
<path d="M50.7775 77.8532C50.3743 78.0608 49.7695 77.6456 49.3663 76.8152C48.9632 75.9847 48.56 74.7391 48.7616 72.8706C48.9632 71.2097 49.7695 69.1336 51.1806 67.4727C52.5917 65.8118 54.8091 64.3586 57.4297 63.7357C58.0345 63.5281 58.6392 63.5281 59.244 63.5281C59.8488 63.5281 60.6551 63.5281 61.2598 63.7357C66.9042 65.3966 69.3233 70.3793 69.1217 73.9086C69.1217 75.5695 68.5169 76.8152 67.9122 77.6456C67.3074 78.476 66.7026 78.6837 66.2995 78.2684C65.4931 77.8532 65.4932 76.1923 64.6868 74.3238C64.2837 73.2858 63.8805 72.4553 62.8726 71.4173C62.4694 71.0021 61.8646 70.5869 61.4614 70.1716C60.8567 69.7564 60.252 69.5488 59.8488 69.5488C59.6472 69.5488 59.4456 69.5488 59.4456 69.5488C59.244 69.5488 59.0424 69.5488 58.8409 69.5488C57.4298 69.7564 56.2202 70.5869 55.2123 71.4173C54.2044 72.2477 53.5997 73.0782 52.9949 74.1162C51.7854 75.9847 51.5838 77.6456 50.7775 77.8532Z" fill="#BCD88A"/>
<path d="M1.79274 73.9083C1.38957 73.9083 0.78485 73.4931 0.38168 72.2474C-0.0214908 71.0017 -0.223076 69.1333 0.38168 66.8495C0.78485 64.5658 1.99435 62.0745 4.21179 59.5832C6.42922 57.2995 9.85618 55.431 13.4847 55.2234C14.2911 55.2234 14.8958 55.2234 15.7022 55.2234C16.5085 55.2234 17.1132 55.2234 17.9196 55.431C21.5481 56.0538 24.7735 58.1299 26.7893 60.4136C28.8052 62.905 29.8131 65.6039 30.2163 67.8876C30.6194 70.1713 30.2163 72.0398 29.8131 73.2854C29.41 74.5311 28.8052 74.9463 28.2004 74.9463C27.1925 74.7387 27.1925 72.2474 25.7814 69.1332C25.1767 67.68 24.1687 65.8115 22.556 64.3582C21.145 62.905 19.1291 61.8669 16.7101 61.4517C16.3069 61.4517 15.7021 61.2441 15.299 61.2441C14.8958 61.2441 14.291 61.2441 13.8878 61.2441C11.4688 61.4517 9.45298 62.2821 7.84029 63.7354C6.22761 64.9811 5.01814 66.6419 4.41338 68.3028C2.8007 71.417 2.80066 73.7007 1.79274 73.9083Z" fill="#BCD88A"/>
<path d="M19.532 94.6708C18.7256 94.2556 18.7256 91.9719 20.1367 88.4425C20.9431 86.7816 21.951 84.7055 24.1684 82.6294C25.1764 81.5914 26.5874 80.7609 27.9985 80.1381C29.6112 79.5153 31.2239 79.3077 32.8366 79.3077C33.4414 79.3077 34.2477 79.5153 34.8525 79.5153C35.4572 79.7229 36.062 79.7229 36.6667 79.9305C39.6905 80.9686 42.3111 82.6295 44.1253 84.7056C45.9396 86.7817 47.1492 88.8577 47.7539 90.9338C48.3587 93.0099 48.1571 94.6708 47.9555 95.7088C47.5523 96.7469 47.1491 97.3697 46.5444 97.3697C45.5365 97.1621 45.3349 95.2936 43.7222 92.8023C42.3111 90.311 39.2873 87.1968 35.054 85.9512C34.6508 85.7436 34.2477 85.7436 33.8446 85.7436C33.4414 85.7436 33.0382 85.536 32.635 85.536C30.6192 85.3284 29.0065 85.9512 27.5954 86.9892C26.1843 88.0273 24.9748 89.4806 23.9668 90.7262C21.951 93.4252 20.5399 95.086 19.532 94.6708Z" fill="#BCD88A"/>
<path d="M64.2841 110.657C63.2762 110.45 62.873 108.789 63.6794 105.882C64.0826 104.429 65.0905 102.768 66.9048 101.522C68.719 100.069 71.3396 99.654 73.7586 99.8616C74.1618 99.8616 74.7666 100.069 75.1698 100.069C75.5729 100.069 75.9761 100.277 76.3792 100.484C78.3951 101.107 80.4109 102.145 81.822 103.599C83.2331 105.052 84.2411 106.92 84.6442 108.374C85.0474 110.035 84.6443 111.28 84.2411 112.111C83.8379 112.941 83.2331 113.149 82.83 112.941C82.0236 112.526 81.6205 111.28 80.6125 109.827C80.0078 109.204 79.403 108.374 78.3951 107.751C77.3871 107.128 76.1777 106.505 74.565 106.09C74.3634 106.09 73.9602 105.882 73.7586 105.882C73.5571 105.882 73.1539 105.882 72.9523 105.675C71.5412 105.467 70.5333 105.675 69.7269 106.09C68.9206 106.505 68.1142 107.128 67.3079 107.958C66.0984 109.619 65.292 110.865 64.2841 110.657Z" fill="#BCD88A"/>
<path d="M143.708 58.754C143.305 58.754 142.498 57.5084 143.305 55.4323C143.708 54.3942 144.313 53.1486 145.321 52.1105C146.53 51.0725 147.941 50.242 149.756 50.242C150.159 50.242 150.36 50.242 150.763 50.242C151.167 50.242 151.368 50.242 151.771 50.242C153.384 50.4496 154.997 51.2801 156.206 52.1105C157.416 52.9409 158.02 53.979 158.625 55.0171C159.633 56.8855 159.432 58.3388 159.028 58.3388C158.625 58.5464 158.021 57.5084 156.811 56.2627C155.602 55.017 153.989 53.5638 151.57 53.3562C151.368 53.3562 151.167 53.3562 150.965 53.3562C150.763 53.3562 150.562 53.3562 150.36 53.3562C147.941 53.5638 146.329 55.017 145.522 56.4703C144.313 57.5084 144.111 58.5464 143.708 58.754Z" fill="#BCD88A"/>
<path d="M79 54.393C78.5968 54.393 77.7904 53.1474 78.5968 51.0713C78.9999 50.0332 79.6047 48.7876 80.6126 47.7495C81.8221 46.7115 83.2332 45.881 85.0475 45.881C85.4507 45.881 85.6523 45.881 86.0554 45.881C86.4586 45.881 86.6602 45.881 87.0634 45.881C88.676 46.0886 90.2887 46.9191 91.4982 47.7495C92.7077 48.58 93.3125 49.618 93.9172 50.656C94.9252 52.5245 94.7236 53.9778 94.3204 53.9778C93.9173 54.1854 93.3125 53.1474 92.103 51.9017C90.8935 50.6561 89.2808 49.2028 86.8618 48.9952C86.6602 48.9952 86.4586 48.9952 86.257 48.9952C86.0554 48.9952 85.8538 48.9952 85.6522 48.9952C83.2332 49.2028 81.6205 50.656 80.8142 52.1093C79.6047 53.1474 79.4031 54.393 79 54.393Z" fill="#BCD88A"/>
<path d="M22.5564 53.7708C22.1532 53.7708 21.3468 52.5252 22.1532 50.4491C22.5563 49.411 23.1611 48.1653 24.169 47.1273C25.3785 46.0893 26.7897 45.2588 28.6039 45.2588C29.0071 45.2588 29.2087 45.2588 29.6119 45.2588C30.015 45.2588 30.2166 45.2588 30.6198 45.2588C32.2325 45.4664 33.8451 46.2969 35.0546 47.1273C36.2641 47.9577 36.8689 48.9958 37.4737 50.0338C38.4816 51.9023 38.28 53.3556 37.8769 53.3556C37.4737 53.5632 36.8689 52.5252 35.6594 51.2795C34.4499 50.0338 32.8372 48.5806 30.4182 48.373C30.2166 48.373 30.015 48.373 29.8135 48.373C29.6119 48.373 29.4102 48.373 29.2087 48.373C26.7896 48.5806 25.177 50.0338 24.3706 51.4871C23.1611 52.5252 23.1611 53.7708 22.5564 53.7708Z" fill="#BCD88A"/>
<path d="M124.558 41.7306C124.357 41.9382 123.954 41.9382 123.55 41.523C123.147 41.1077 122.744 40.0697 122.744 39.0316C122.543 37.1631 122.543 34.6718 122.946 31.3501C123.349 28.0283 124.155 24.0837 126.171 19.7239C127.179 17.6478 128.792 15.5717 130.606 13.7032C132.42 11.8347 134.839 10.1739 137.863 9.34342C139.073 8.92821 140.282 8.72059 141.29 8.72059C142.499 8.72059 143.709 8.72059 144.918 8.92819C150.764 9.96624 155.199 13.4956 158.021 17.6478C160.642 21.8 161.448 26.1598 161.65 29.4816C161.852 33.0109 161.247 35.7099 160.642 37.3708C160.037 39.2393 159.433 40.0697 158.828 39.8621C157.82 39.6545 158.223 35.7099 157.215 29.8968C156.61 26.9903 155.603 23.6685 153.385 20.762C151.168 17.8554 147.741 15.3641 143.911 14.9489C143.104 14.7413 142.298 14.7413 141.693 14.7413C140.887 14.7413 140.282 14.9489 139.476 15.1565C135.847 16.1945 132.823 19.3087 130.808 22.4228C128.792 25.7446 127.784 29.0664 126.977 32.1805C126.171 35.0871 125.566 37.786 124.962 39.2392C124.76 40.0697 124.558 40.4849 124.558 40.9001C124.76 41.3153 124.76 41.523 124.558 41.7306Z" fill="#BCD88A"/>
<path d="M135.443 40.8993C135.04 41.1069 134.435 40.6917 133.831 39.8612C133.226 39.0308 132.823 37.5775 132.823 35.9166C132.823 34.2558 133.226 31.9721 134.435 29.896C135.04 28.8579 135.645 27.8199 136.653 26.7818C137.661 25.7438 138.87 24.9133 140.483 24.2905C141.088 24.0829 141.894 24.0829 142.499 24.0829C143.104 24.0829 143.91 24.0829 144.515 24.2905C147.74 24.9133 149.957 26.9894 151.167 29.2731C152.376 31.3492 152.78 33.6329 152.78 35.2938C152.78 38.6156 151.772 40.2765 150.965 40.2765C149.957 40.2765 149.554 38.408 148.546 36.1243C148.143 34.8786 147.538 33.6329 146.732 32.5949C145.926 31.5568 144.716 30.7264 143.507 30.5188C143.305 30.5188 143.103 30.5188 142.902 30.5188C142.7 30.5188 142.499 30.5188 142.297 30.5188C141.289 30.7264 140.08 31.7644 139.273 33.0101C138.467 34.2558 137.862 35.5014 137.459 36.5395C136.25 38.8232 136.25 40.4841 135.443 40.8993Z" fill="#BCD88A"/>
<path d="M61.2605 43.1828C60.2525 43.3905 58.8414 38.4078 59.2446 30.1034C59.4462 25.9512 60.2526 20.9686 62.0668 15.5707C62.8732 12.8718 64.0827 10.1729 65.8969 7.26635C66.9049 5.81308 68.1144 4.56741 69.5255 3.32176C70.9366 2.28371 72.7508 1.24565 74.5651 0.830427C75.9762 0.415207 77.3873 0.20761 78.7984 0C80.2095 0 81.6206 -3.17395e-06 83.0317 0.207607C86.6602 0.830436 89.8856 2.69892 92.3046 4.77502C94.7236 7.05873 96.7395 9.55004 97.949 12.249C99.3601 14.9479 99.9648 17.6468 100.57 20.1382C100.973 22.6295 101.174 25.1208 100.973 27.1969C100.771 31.3491 99.9648 34.6708 99.1585 36.9546C98.3522 39.0307 97.7474 40.2763 97.1426 40.0687C96.7395 39.8611 96.5379 38.6154 96.5379 36.5393C96.5379 34.2556 96.7395 31.1415 96.3363 27.4045C95.9331 23.6675 95.3284 19.1001 92.9093 14.9479C90.6919 10.7957 86.8618 7.05874 81.8222 6.2283C80.8142 6.02069 79.8063 6.02067 78.7984 6.02067C77.7905 6.02067 76.7825 6.22829 75.9762 6.4359C73.5572 7.05873 71.7429 8.512 70.3318 10.5881C68.9207 12.4566 67.9128 14.9479 66.9049 17.4392C65.0906 22.2142 63.8811 26.7817 63.2763 30.5186C62.2684 38.4078 62.2684 43.1828 61.2605 43.1828Z" fill="#BCD88A"/>
<path d="M72.1461 37.7855C71.1382 37.7855 70.3318 36.1247 70.5334 33.2181C70.735 31.7649 71.1382 29.8964 72.7509 28.0279C73.5572 27.1974 74.5651 26.367 75.7747 25.7442C76.9842 25.1213 78.3953 24.9137 79.8064 25.1213C80.4111 25.1213 80.8143 25.329 81.419 25.329C82.0238 25.5366 82.427 25.5366 83.0317 25.7442C85.4508 26.7822 87.265 28.6507 88.273 30.5192C89.2809 32.3877 89.8856 34.0486 89.8856 35.5018C90.0872 36.9551 89.6841 38.4084 89.2809 39.2388C88.8777 40.0693 88.2729 40.2769 87.8698 40.0693C87.0634 39.654 86.6603 38.4084 85.8539 36.5399C85.0476 34.879 83.2333 32.1801 81.0159 31.3496C80.8143 31.3496 80.6127 31.142 80.4111 31.142C80.2095 31.142 80.0079 31.142 79.8064 31.142C78.5968 30.9344 77.7905 31.3496 77.1858 31.7649C76.3794 32.3877 75.7747 33.4257 75.1699 34.2562C73.7588 36.3323 72.9525 37.7855 72.1461 37.7855Z" fill="#BCD88A"/>
<path d="M2.39692 37.9924C1.79216 37.9924 1.38897 37.162 0.985796 35.5011C0.582626 33.8402 0.17948 31.3489 0.381065 28.0272C0.582651 24.913 1.18741 20.7608 3.40484 16.6086C4.61435 14.5325 6.02544 12.664 8.24288 11.0031C10.2587 9.34226 13.0809 8.30421 15.9031 7.88899C16.5078 7.88899 17.1126 7.88899 17.7174 7.88899C18.3222 7.88899 18.9269 8.09659 19.3301 8.09659C20.5396 8.3042 21.5475 8.51182 22.5554 8.92704C27.7966 11.0031 31.4252 14.7401 33.6426 18.8923C35.8601 23.0445 36.4648 26.9891 36.4648 30.3109C36.4648 33.6326 35.86 36.1239 35.2553 37.7848C34.6505 39.4457 33.8442 40.2761 33.441 40.0685C32.4331 39.8609 33.0378 36.1239 32.0299 30.7261C31.6267 28.0271 30.6189 24.7054 28.8046 21.7989C26.9903 18.8923 23.9665 15.9858 20.5396 14.7401C19.9348 14.5325 19.1285 14.3249 18.5237 14.1173C18.1206 14.1173 17.919 14.1173 17.5158 13.9097C17.1126 13.9097 16.911 13.9097 16.5079 13.9097C13.0809 14.1173 10.0571 16.6086 8.24288 19.3075C6.22702 22.2141 5.42066 25.3282 4.8159 28.2348C4.21115 30.9337 4.00961 33.425 3.60644 35.0859C3.20327 37.162 3.00167 37.9924 2.39692 37.9924Z" fill="#BCD88A"/>
<path d="M10.4607 39.2397C10.0575 39.4473 9.45273 39.0321 9.04956 38.4093C8.64639 37.5788 8.24324 36.5408 8.44483 34.8799C8.64641 33.4266 9.04958 31.5581 10.4607 29.6896C11.8718 28.0288 13.8876 26.5755 16.3066 25.9527C16.7098 25.9527 17.3146 25.7451 17.7178 25.7451C18.1209 25.7451 18.7256 25.7451 19.1288 25.7451C21.7494 25.9527 23.9669 27.1983 25.378 28.6516C26.7891 30.1049 27.5954 31.9734 27.9986 33.4266C28.2001 35.0875 28.2002 36.1255 27.5954 37.1636C27.1922 38.2016 26.3859 38.2017 25.9827 37.994C25.5795 37.7864 25.378 37.3712 25.1764 36.956C24.7732 36.5408 24.37 35.7103 23.9668 35.0875C22.9589 33.6342 21.1447 31.9734 18.7257 31.7657C18.5241 31.7657 18.3225 31.7657 17.9193 31.7657C17.7177 31.7657 17.5161 31.7657 17.113 31.7657C15.9035 31.9734 14.8955 32.3886 14.0892 33.219C13.2828 33.8419 12.6781 34.8799 12.2749 35.7103C11.6702 37.5788 11.4686 39.0321 10.4607 39.2397Z" fill="#BCD88A"/>
</svg>
