<svg width="261" height="161" viewBox="0 0 261 161" fill="none" xmlns="http://www.w3.org/2000/svg">
<path d="M170.651 109.649C170.651 109.649 168.416 143.814 171.29 145.73C174.163 147.646 202.581 150.2 201.942 142.218C200.984 134.235 194.598 135.193 194.598 135.193L197.791 101.986" fill="#277DA1"/>
<path d="M186.934 139.665C186.934 139.665 187.572 139.345 188.53 139.665C188.849 139.984 189.488 140.303 189.807 140.942C190.127 141.58 190.446 142.219 190.765 142.858C190.765 143.496 191.085 144.135 191.085 144.773C191.085 145.412 191.085 146.051 191.085 146.37C190.765 147.328 190.765 147.966 190.765 147.966C190.765 147.966 190.446 147.328 190.446 146.37C190.127 145.412 190.127 144.135 189.807 143.177C189.807 142.538 189.488 142.219 189.169 141.58C188.849 141.261 188.849 140.623 188.53 140.303C187.572 139.665 186.934 139.665 186.934 139.665Z" fill="#1A2E36"/>
<path d="M194.916 138.387C194.916 138.387 195.555 138.387 196.194 139.026C196.832 139.664 197.79 140.303 198.109 141.58C198.429 142.219 198.429 142.857 198.748 143.177C198.748 143.815 198.748 144.134 198.748 144.773C198.748 145.731 198.429 146.05 198.429 146.05C198.429 146.05 198.429 146.05 198.429 145.731C198.429 145.412 198.429 145.092 198.109 144.773C198.109 144.454 197.79 143.815 197.79 143.496C197.79 143.177 197.471 142.538 197.151 142.219C196.832 141.58 196.832 141.261 196.513 140.941C196.194 140.622 196.194 139.984 195.874 139.664C195.236 139.026 194.916 138.387 194.916 138.387Z" fill="#1A2E36"/>
<path d="M196.832 73.5691C219.502 55.0498 205.134 43.8743 193.959 48.6638C202.58 21.8426 179.59 25.9935 177.355 33.0181C185.657 11.625 156.92 9.70923 154.685 17.0531C154.365 -6.25575 125.948 -1.14695 125.309 9.70923C106.47 -11.3645 97.2107 6.83554 100.084 17.6917C89.8668 6.19694 72.6247 19.9268 81.2458 31.1023C68.7931 28.5479 57.2983 40.6813 65.9194 48.3445C48.0386 45.4708 42.2912 50.5796 51.8702 71.0147C158.197 -12.0031 196.832 73.5691 196.832 73.5691Z" fill="#43AA8B"/>
<path d="M132.334 15.1389C170.65 15.1389 187.892 63.0339 216.629 63.0339C245.366 63.0339 262.608 74.5286 260.693 91.7708C258.777 109.013 235.787 112.845 214.714 103.266C193.64 93.6866 201.303 126.255 132.334 122.424C66.5585 118.592 14.5127 78.6795 0.144177 46.4303C-0.494422 44.8338 1.10208 42.918 2.69857 43.8759C26.0074 54.0935 60.1725 58.5637 72.9445 49.6233C86.3551 40.0443 99.7657 15.1389 132.334 15.1389Z" fill="#277DA1"/>
<path d="M222.058 87.6191C227.701 87.6191 232.275 83.0446 232.275 77.4015C232.275 71.7585 227.701 67.184 222.058 67.184C216.415 67.184 211.84 71.7585 211.84 77.4015C211.84 83.0446 216.415 87.6191 222.058 87.6191Z" fill="white"/>
<path d="M217.268 87.618C222.911 87.618 227.486 83.0435 227.486 77.4004C227.486 71.7574 222.911 67.1829 217.268 67.1829C211.625 67.1829 207.051 71.7574 207.051 77.4004C207.051 83.0435 211.625 87.618 217.268 87.618Z" fill="#1A2E36"/>
<path d="M138.401 121.783C138.401 121.783 136.166 155.948 139.04 157.864C141.913 159.78 170.331 162.334 169.692 154.352C169.054 146.369 162.668 147.327 162.668 147.327L165.861 114.439" fill="#277DA1"/>
<path d="M138.401 114.439C138.401 114.439 138.721 115.078 138.721 116.355C138.721 116.993 138.721 117.632 139.04 118.271C139.04 118.909 139.04 119.548 139.04 120.506C139.04 121.144 139.04 122.102 139.04 122.741C139.04 123.379 138.721 124.018 138.721 124.657C138.401 125.614 138.401 126.572 138.401 126.572C138.401 126.572 138.082 125.934 138.082 124.657C138.082 124.018 138.082 123.379 138.082 122.741C138.082 122.102 138.082 121.464 138.082 120.506C138.082 119.867 138.082 118.909 138.082 118.271C138.082 117.632 138.401 116.993 138.401 116.355C138.082 115.078 138.401 114.439 138.401 114.439Z" fill="#1A2E36"/>
<path d="M165.223 121.783C165.223 121.783 165.542 122.102 165.542 122.741C165.542 123.06 165.542 123.379 165.542 123.699C165.542 124.018 165.542 124.337 165.542 124.976C165.542 125.295 165.542 125.614 165.223 126.253C165.223 126.572 164.903 126.892 164.903 127.211C164.584 127.849 164.584 128.169 164.584 128.169C164.584 128.169 164.265 127.849 164.265 127.211C164.265 126.892 164.265 126.572 164.265 126.253C164.265 125.934 164.265 125.614 164.265 124.976C164.265 124.656 164.265 124.337 164.584 123.699C164.584 123.379 164.903 123.06 164.903 122.741C164.903 122.102 165.223 121.783 165.223 121.783Z" fill="#1A2E36"/>
<path d="M154.686 151.797C154.686 151.797 155.324 151.477 156.282 151.797C156.601 152.116 157.24 152.435 157.559 153.074C157.879 153.712 158.198 154.351 158.517 154.99C158.517 155.628 158.836 156.267 158.836 156.905C158.836 157.544 158.836 158.183 158.836 158.502C158.517 159.46 158.517 160.098 158.517 160.098C158.517 160.098 158.198 159.46 158.198 158.502C157.878 157.544 157.879 156.267 157.559 155.309C157.559 154.67 157.24 154.351 156.921 153.712C156.282 153.074 156.282 152.755 155.963 152.435C155.324 151.797 154.686 151.797 154.686 151.797Z" fill="#1A2E36"/>
<path d="M162.986 150.84C162.986 150.84 163.625 150.84 164.263 151.479C164.902 152.118 165.86 152.756 166.179 154.033C166.498 154.672 166.498 155.311 166.818 155.63C166.818 156.268 166.818 156.588 166.818 157.226C166.818 158.184 166.498 158.504 166.498 158.504C166.498 158.504 166.498 158.504 166.498 158.184C166.498 157.865 166.498 157.546 166.179 157.226C166.179 156.907 165.86 156.268 165.86 155.949C165.86 155.63 165.54 154.991 165.221 154.672C164.902 154.033 164.902 153.714 164.583 153.395C164.263 153.075 164.263 152.437 163.944 152.118C163.305 151.16 162.986 150.84 162.986 150.84Z" fill="#1A2E36"/>
<path d="M92.4222 106.775C92.4222 106.775 90.1871 152.435 93.3801 154.351C96.2538 156.266 124.671 158.821 124.033 150.838C123.075 142.856 116.689 143.814 116.689 143.814L119.882 110.607" fill="#277DA1"/>
<path d="M92.4219 110.608C92.4219 110.608 92.7412 111.246 92.7412 112.523C92.7412 113.162 92.7412 113.801 93.0605 114.439C93.0605 115.078 93.0605 115.716 93.0605 116.674C93.0605 117.313 93.0605 118.271 93.0605 118.909C93.0605 119.548 92.7412 120.187 92.7412 120.825C92.4219 121.783 92.4219 122.741 92.4219 122.741C92.4219 122.741 92.1026 122.102 92.1026 120.825C92.1026 120.187 92.1026 119.548 92.1026 118.909C92.1026 118.271 92.1026 117.632 92.1026 116.674C92.1026 116.036 92.1026 115.078 92.1026 114.439C92.1026 113.801 92.4219 113.162 92.4219 112.523C92.4219 111.565 92.4219 110.608 92.4219 110.608Z" fill="#1A2E36"/>
<path d="M119.242 117.951C119.242 117.951 119.561 118.27 119.561 118.908C119.561 119.228 119.561 119.547 119.561 119.866C119.561 120.186 119.561 120.505 119.561 121.144C119.561 121.463 119.561 121.782 119.242 122.421C119.242 122.74 118.923 123.059 118.923 123.379C118.603 124.017 118.603 124.337 118.603 124.337C118.603 124.337 118.284 124.017 118.284 123.379C118.284 123.059 118.284 122.74 118.284 122.421C118.284 122.101 118.284 121.782 118.284 121.144C118.284 120.824 118.284 120.505 118.603 119.866C118.603 119.547 118.923 119.228 118.923 118.908C118.923 118.27 119.242 117.951 119.242 117.951Z" fill="#1A2E36"/>
<path d="M108.705 148.286C108.705 148.286 109.344 147.966 110.302 148.286C110.621 148.605 111.26 148.924 111.579 149.563C111.898 150.202 112.218 150.84 112.537 151.479C112.537 152.117 112.856 152.756 112.856 153.395C112.856 154.033 112.856 154.672 112.856 154.991C112.537 155.949 112.537 156.588 112.537 156.588C112.537 156.588 112.218 155.949 112.218 154.991C111.898 154.033 111.898 152.756 111.579 151.798C111.579 151.159 111.26 150.84 110.94 150.202C110.621 149.882 110.621 149.244 110.302 148.924C109.344 148.286 108.705 148.286 108.705 148.286Z" fill="#1A2E36"/>
<path d="M117.007 147.008C117.007 147.008 117.646 147.008 118.285 147.647C118.923 148.285 119.881 148.924 120.2 150.201C120.52 150.84 120.52 151.478 120.839 151.798C120.839 152.436 120.839 152.755 120.839 153.394C120.839 154.352 120.52 154.671 120.52 154.671C120.52 154.671 120.52 154.671 120.52 154.352C120.52 154.033 120.52 153.713 120.2 153.394C120.2 153.075 119.881 152.436 119.881 152.117C119.881 151.798 119.562 151.159 119.243 150.84C118.923 150.201 118.923 149.882 118.604 149.562C118.285 149.243 118.285 148.605 117.965 148.285C117.327 147.647 117.007 147.008 117.007 147.008Z" fill="#1A2E36"/>
<path d="M253.668 85.3834C253.668 85.3834 253.668 85.7027 253.668 86.022C253.668 86.3413 253.668 86.3413 253.668 86.6606C253.668 86.9799 253.668 87.2992 253.349 87.6185C253.029 88.2571 252.391 89.215 251.433 89.5343C250.475 89.8536 249.517 90.1729 248.24 90.1729C247.282 90.1729 246.324 89.5343 245.366 89.215C244.408 88.5764 243.77 87.9378 243.45 87.2992C243.131 86.6606 242.812 86.022 242.493 85.7027C242.493 85.3834 242.173 85.0641 242.173 85.0641C242.173 85.0641 242.173 85.3834 242.493 85.7027C242.812 86.022 243.131 86.3413 243.77 86.9799C244.408 87.6185 245.047 87.9378 245.686 88.2571C246.324 88.5764 247.282 88.8957 248.24 88.8957C249.198 88.8957 249.836 88.8957 250.794 88.5764C251.433 88.2571 252.072 87.9378 252.391 87.2992C252.71 86.9799 252.71 86.6606 253.029 86.6606C253.349 86.3413 253.349 86.022 253.349 86.022C253.349 85.7027 253.668 85.3834 253.668 85.3834Z" fill="#1A2E36"/>
<path d="M198.429 105.178C198.429 105.178 196.833 106.775 194.597 108.691C193.32 109.649 192.043 110.926 190.447 111.884C188.85 112.842 187.254 114.119 185.338 115.077C183.422 116.035 181.825 116.993 179.91 117.95C177.994 118.908 176.397 119.228 174.801 119.866C173.204 120.186 171.927 120.505 170.969 120.505C170.011 120.505 169.692 120.505 169.692 120.505C169.692 120.505 170.331 120.505 170.969 120.186C171.927 120.186 172.885 119.547 174.482 118.908C175.759 118.27 177.355 117.631 179.271 116.673C180.868 115.715 182.783 114.757 184.38 113.8C187.892 111.884 191.404 109.649 193.959 108.052C196.833 106.456 198.429 105.178 198.429 105.178Z" fill="#1A2E36"/>
<path d="M233.552 66.5452C228.444 56.3276 215.352 54.7311 211.84 66.5452H233.552Z" fill="#277DA1"/>
<path opacity="0.5" d="M144.148 22.7998C154.685 26.3121 155.004 31.4209 144.148 27.5893C132.972 23.4384 136.485 20.2454 144.148 22.7998Z" fill="#43AA8B"/>
<path opacity="0.5" d="M124.032 20.8834C136.804 19.2869 134.569 23.7571 124.032 26.6308C113.495 29.5045 116.369 21.8413 124.032 20.8834Z" fill="#43AA8B"/>
<path opacity="0.5" d="M134.888 36.5316C145.106 37.8088 144.148 29.8263 134.888 27.2719C125.628 24.7175 121.478 34.6158 134.888 36.5316Z" fill="#43AA8B"/>
<path opacity="0.5" d="M110.622 28.8684C117.966 26.9526 115.093 24.7176 110.622 25.3562C105.833 25.9947 102.64 30.7842 110.622 28.8684Z" fill="#43AA8B"/>
<path opacity="0.5" d="M117.008 34.6158C122.436 33.9772 123.714 28.2298 117.008 29.1877C110.303 30.4649 110.303 35.5737 117.008 34.6158Z" fill="#43AA8B"/>
<path opacity="0.5" d="M149.895 34.9333C157.878 38.7649 158.836 35.5719 152.13 33.0175C145.425 30.4631 149.895 34.9333 149.895 34.9333Z" fill="#43AA8B"/>
<path opacity="0.5" d="M159.156 29.5057C165.222 33.018 162.987 28.5478 158.198 25.6741C153.089 22.4811 153.089 25.9934 159.156 29.5057Z" fill="#43AA8B"/>
<path opacity="0.5" d="M102.639 34.9341C105.832 32.3797 107.109 29.8253 101.043 32.0604C94.9758 34.2955 99.7653 37.1692 102.639 34.9341Z" fill="#43AA8B"/>
<path d="M191.085 130.404C191.085 130.404 190.765 130.723 190.127 131.042C189.808 131.042 189.488 131.362 188.85 131.681C188.53 131.681 187.892 132 187.572 132C186.934 132 186.615 132 185.976 132C185.657 132 185.018 131.681 184.699 131.362C184.06 131.042 183.741 130.404 183.741 130.404C183.741 130.404 184.379 130.404 185.018 130.723C185.337 130.723 185.657 130.723 185.976 130.723C186.295 130.723 186.934 130.723 187.253 130.723C187.572 130.723 188.211 130.723 188.53 130.723C188.85 130.723 189.488 130.723 189.808 130.723C190.765 130.404 191.085 130.404 191.085 130.404Z" fill="#1A2E36"/>
<path d="M193.001 126.254C193.001 126.254 192.362 126.254 191.404 126.254C190.446 126.254 189.488 125.935 188.211 125.935C187.572 125.935 187.253 125.615 186.615 125.615C185.976 125.615 185.657 125.615 185.337 125.615C185.018 125.615 184.699 125.615 184.379 125.615C184.06 125.615 184.06 125.615 184.06 125.615C184.06 125.615 184.379 125.296 185.337 124.977C186.295 124.658 187.572 124.658 188.53 124.658C189.169 124.658 189.808 124.977 190.127 124.977C190.765 124.977 191.085 125.296 191.404 125.615C192.681 125.935 193.001 126.254 193.001 126.254Z" fill="#1A2E36"/>
<path d="M157.241 140.941C157.241 140.941 156.921 141.26 156.283 141.58C155.963 141.58 155.644 141.899 155.006 142.218C154.686 142.218 154.048 142.538 153.728 142.538C153.09 142.538 152.77 142.538 152.132 142.538C151.813 142.538 151.174 142.218 150.855 141.899C150.216 141.58 149.897 140.941 149.897 140.941C149.897 140.941 150.535 140.941 151.174 141.26C151.493 141.26 151.813 141.26 152.132 141.26C152.451 141.26 153.09 141.26 153.409 141.26C153.728 141.26 154.367 141.26 154.686 141.26C155.006 141.26 155.644 141.26 155.963 141.26C156.602 140.941 157.241 140.941 157.241 140.941Z" fill="#1A2E36"/>
<path d="M159.155 136.791C159.155 136.791 158.516 136.791 157.558 136.791C156.6 136.791 155.643 136.472 154.365 136.472C153.727 136.472 153.407 136.153 152.769 136.153C152.13 136.153 151.811 136.153 151.492 136.153C151.172 136.153 150.853 136.153 150.534 136.153C150.214 136.153 150.214 136.153 150.214 136.153C150.214 136.153 150.534 135.833 151.492 135.514C152.45 135.195 153.727 135.195 154.685 135.195C155.323 135.195 155.962 135.514 156.281 135.514C156.92 135.514 157.239 135.833 157.558 136.153C158.836 136.472 159.155 136.791 159.155 136.791Z" fill="#1A2E36"/>
<path d="M112.856 137.747C112.856 137.747 112.537 138.066 111.898 138.385C111.579 138.385 111.26 138.705 110.621 139.024C110.302 139.024 109.663 139.343 109.344 139.343C108.705 139.343 108.386 139.343 107.747 139.343C107.428 139.343 106.79 139.024 106.47 138.705C105.832 138.385 105.512 137.747 105.512 137.747C105.512 137.747 106.151 137.747 106.79 138.066C107.109 138.066 107.428 138.066 107.747 138.066C108.067 138.066 108.705 138.066 109.025 138.066C109.344 138.066 109.982 138.066 110.302 138.066C110.621 138.066 111.26 138.066 111.579 138.066C112.537 137.747 112.856 137.747 112.856 137.747Z" fill="#1A2E36"/>
<path d="M114.772 133.597C114.772 133.597 114.134 133.597 113.176 133.597C112.218 133.597 111.26 133.278 109.983 133.278C109.344 133.278 109.025 132.958 108.386 132.958C107.748 132.958 107.428 132.958 107.109 132.958C106.79 132.958 106.471 132.958 106.151 132.958C105.832 132.958 105.832 132.958 105.832 132.958C105.832 132.958 106.151 132.639 107.109 132.32C108.067 132 109.344 132 110.302 132C110.941 132 111.579 132.32 111.899 132.32C112.537 132.32 112.857 132.639 113.176 132.958C114.453 133.278 114.772 133.597 114.772 133.597Z" fill="#1A2E36"/>
</svg>
