<svg width="157" height="360" viewBox="0 0 157 360" fill="none" xmlns="http://www.w3.org/2000/svg">
<path d="M-6.05853 292.812C-5.28648 294.005 -5.28648 295.595 -6.05853 298.378C-7.02358 301.559 -9.53272 303.745 -11.8489 306.131C-16.4811 310.504 -20.7274 315.473 -24.3946 320.641C-25.7456 322.43 -26.9037 324.418 -26.9037 326.804C-26.9037 331.773 -21.4994 334.755 -16.6741 335.947C-4.90046 339.128 7.45224 339.923 18.4539 345.688C25.4023 349.266 31.1926 354.633 36.9829 360C44.7034 346.085 52.6168 332.171 56.863 316.865C58.9861 309.51 59.5652 300.167 53.7749 295.396C51.4587 293.409 48.5636 292.614 45.8614 291.222C43.1593 289.831 40.6501 287.445 40.4571 284.464C40.2641 280.687 43.7383 277.506 47.4055 277.307C51.0727 277.109 54.5469 279.097 57.2491 281.482C60.3372 284.265 64.3905 288.638 68.8297 286.253C71.5319 284.861 74.234 279.494 75.7781 276.711C79.6383 269.754 82.5335 261.604 84.8496 253.852C88.1308 243.316 93.5351 222.047 78.4803 218.27C65.7415 215.09 58.2141 229.203 45.6684 225.824C42.5802 225.029 39.299 222.643 39.299 219.264C39.299 216.481 41.8082 214.493 44.1243 213.102C53.5818 207.536 64.7765 206.343 75.5851 205.946C77.7082 205.747 80.2173 205.548 81.1824 203.759C81.9545 202.566 81.7614 200.976 81.3754 199.386C79.4453 188.254 75.0061 177.52 68.6367 168.376C65.1625 163.407 58.9862 157.444 52.6168 156.847C50.1077 156.648 47.7915 157.841 45.6684 159.431C41.2292 162.811 37.755 167.184 33.1227 170.165C31.1926 171.358 28.2974 171.954 26.9463 170.165C26.3673 169.37 26.3673 168.376 26.3673 167.184C26.5603 162.612 29.0695 158.239 32.3506 155.058C35.6318 151.878 39.8781 149.89 44.1243 148.101C38.141 142.535 25.9813 137.566 18.4539 142.336C15.5587 144.125 -10.4978 169.37 -7.40961 171.557C-14.165 166.786 -21.1134 162.015 -29.0268 159.63C-36.7473 157.245 -46.2048 157.841 -53.5392 161.618C-60.4876 165.196 -66.0849 174.737 -70.7172 181.098C-76.8935 189.447 -82.4909 198.392 -83.4559 208.729C-83.8419 213.499 -83.0699 219.065 -79.4027 222.047C-71.1032 228.607 -55.6623 219.463 -46.0118 220.655C-38.6774 221.649 -31.343 227.215 -30.9569 234.769C-30.7639 237.949 -32.308 241.527 -35.2032 243.117C-40.8005 246.099 -47.7489 241.726 -53.1532 240.335C-59.7156 238.744 -66.664 237.154 -73.4193 236.757C-75.1564 236.558 -80.7538 238.546 -82.2978 239.738C-84.614 241.527 -85 245.304 -85 248.087C-84.807 262.399 -81.5258 279.494 -73.9984 291.818C-68.7871 300.366 -62.4177 307.92 -55.0833 314.28C-52.3812 316.666 -49.486 318.852 -46.0118 319.25C-42.5376 319.846 -38.4844 317.858 -37.7123 314.479C-35.7822 306.926 -30.3779 300.763 -24.0085 296.987C-20.5343 294.204 -8.76068 288.638 -6.05853 292.812Z" fill="#9CB86E"/>
<path d="M31.9648 343.501C30.9998 343.302 30.4207 342.706 30.6137 341.911C33.1229 318.455 25.5955 295.198 18.068 272.736C16.5239 267.965 14.9798 262.995 13.4358 258.225C5.3293 231.787 -0.0749936 204.157 -5.09328 177.52C-5.28629 176.725 -4.70726 175.93 -3.93522 175.731C-3.16318 175.532 -2.39112 176.129 -2.19811 176.924C2.82017 203.56 8.22447 230.992 16.3309 257.231C17.875 262.001 19.4191 266.971 20.9632 271.742C28.4906 294.601 36.2111 318.057 33.5089 342.308C33.3159 342.905 32.7369 343.501 31.9648 343.501Z" fill="#BCD88A"/>
<path d="M-50.4516 295.001C-50.8376 295.001 -51.0306 294.802 -51.4166 294.603C-51.9957 294.007 -52.1887 293.212 -51.6097 292.416C-36.9408 273.731 -18.0258 258.624 3.39846 248.685C4.17051 248.287 4.94255 248.685 5.32857 249.48C5.71459 250.275 5.32856 251.07 4.55652 251.468C-16.2887 261.009 -35.0107 275.918 -49.2935 294.205C-49.6795 294.802 -50.0656 295.001 -50.4516 295.001Z" fill="#BCD88A"/>
<path d="M-7.4101 210.12C-7.60312 210.12 -7.98914 210.12 -8.18214 209.922C-15.7096 205.548 -24.5881 200.778 -34.4316 198.79C-44.4682 196.603 -54.1187 197.995 -61.6462 202.169C-62.4182 202.567 -63.1903 202.368 -63.5763 201.573C-63.9623 200.778 -63.7693 199.983 -62.9972 199.585C-54.8908 195.013 -44.4682 193.622 -33.8526 195.808C-23.623 197.995 -14.3585 202.766 -6.63805 207.337C-5.86601 207.735 -5.673 208.729 -6.05902 209.325C-6.44504 209.723 -6.83107 210.12 -7.4101 210.12Z" fill="#BCD88A"/>
<path d="M-17.4459 191.435C-17.832 191.435 -18.411 191.237 -18.604 190.839C-25.9384 180.701 -38.6771 175.136 -50.8368 176.726C-51.6089 176.726 -52.3809 176.328 -52.3809 175.533C-52.5739 174.738 -51.9949 173.943 -51.2228 173.943C-37.9051 172.154 -24.2013 178.117 -16.2879 189.05C-15.9018 189.646 -15.9018 190.64 -16.4809 191.038C-16.8669 191.435 -17.2529 191.435 -17.4459 191.435Z" fill="#BCD88A"/>
<path d="M15.3653 212.903C15.1723 212.903 14.7863 212.903 14.5933 212.705C14.0142 212.307 13.8212 211.313 14.2072 210.717C24.6298 195.212 42.5798 185.074 60.9159 184.279C61.6879 184.279 62.46 184.875 62.46 185.671C62.46 186.466 61.8809 187.261 61.1089 187.261C43.7379 188.056 26.5599 197.597 16.7164 212.506C16.1373 212.705 15.7513 212.903 15.3653 212.903Z" fill="#BCD88A"/>
<path d="M69.4085 267.17C68.6364 267.17 68.0574 266.574 68.0574 265.977C67.8644 264.188 65.9343 262.598 64.1972 261.406C60.916 259.219 57.6348 257.032 54.1606 255.045C48.1773 251.665 42.966 249.678 38.1407 248.684C32.1574 247.491 26.3671 247.69 21.5418 249.678C20.7697 250.075 19.9977 249.678 19.6117 248.882C19.4187 248.087 19.6117 247.292 20.3837 246.895C25.788 244.708 31.9644 244.31 38.5267 245.901C43.738 247.093 48.9493 249.081 55.3187 252.659C58.7929 254.647 62.2671 256.834 65.5483 259.02C67.8644 260.61 70.1805 262.598 70.7596 265.58C70.9526 266.375 70.3735 267.17 69.6015 267.369C69.6015 267.17 69.4085 267.17 69.4085 267.17Z" fill="#BCD88A"/>
<path d="M2.24031 324.817C2.0473 324.817 1.66128 324.817 1.46827 324.618C0.696226 324.221 0.503207 323.227 0.889229 322.63C7.64461 311.101 10.9258 297.385 10.1538 283.868C10.1538 283.073 10.7328 282.278 11.5048 282.278C12.2769 282.278 13.0489 282.874 13.0489 283.67C14.014 297.783 10.5398 312.095 3.39838 324.221C3.20537 324.618 2.81934 324.817 2.24031 324.817Z" fill="#BCD88A"/>
<path d="M43.9312 318.455C43.1592 318.455 42.5802 317.858 42.5802 317.063C42.5802 310.901 41.6151 305.733 39.878 301.36C37.7549 296.192 34.2807 292.017 30.0344 289.831C29.2624 289.433 29.0694 288.638 29.4554 287.843C29.8414 287.048 30.6135 286.849 31.3855 287.246C36.2108 289.831 40.071 294.403 42.5802 300.167C44.5103 304.938 45.4753 310.305 45.4753 317.063C45.4753 317.858 44.7033 318.455 43.9312 318.455Z" fill="#BCD88A"/>
<path d="M4.55676 182.888C4.36375 182.888 4.17074 182.888 3.97773 182.69C3.20569 182.491 2.81966 181.497 3.20568 180.702C7.64493 167.781 16.9095 156.451 28.2971 149.493C29.0692 149.096 29.8412 149.295 30.2272 150.09C30.6132 150.885 30.4202 151.68 29.6482 152.078C19.0326 158.637 10.3471 168.974 6.10085 181.099C6.10085 181.298 6.10085 181.696 6.10085 181.894C5.71482 182.491 5.1358 182.888 4.55676 182.888Z" fill="#BCD88A"/>
<path d="M78.6735 134.783C80.0246 134.783 81.3756 135.777 83.1127 137.964C85.0428 140.548 85.4289 143.927 85.8149 147.306C86.5869 153.667 88.131 160.028 90.2542 166.19C91.0262 168.377 91.7982 170.563 93.5353 171.955C97.3956 174.937 102.993 171.955 106.66 168.576C115.925 160.426 123.838 150.487 134.454 144.722C141.402 140.945 148.929 139.156 156.457 137.367C149.895 122.856 143.332 108.147 133.682 95.6236C129.049 89.6602 122.101 83.6968 114.767 85.6846C111.871 86.4797 109.555 88.4675 106.853 89.859C104.151 91.2504 100.87 92.0455 98.3606 90.4553C95.2724 88.4675 94.8864 83.6968 96.8165 80.5163C98.7466 77.3359 102.221 75.5468 105.888 74.7517C109.748 73.7578 115.732 72.9627 116.311 67.7944C116.697 64.614 113.994 59.4457 112.643 56.464C109.362 49.1092 104.537 42.1519 99.7117 35.5922C93.3423 26.8459 79.4455 9.94965 67.8649 20.2862C58.0213 29.0325 64.7767 43.7421 54.9332 52.2897C52.424 54.4762 48.7568 55.8677 46.2477 53.8799C44.1245 52.2897 43.9315 49.1092 44.1245 46.3263C45.0896 35.3934 50.6869 25.2557 56.4772 15.913C57.6353 14.124 58.7934 11.9374 57.8283 9.94965C57.2493 8.55819 55.8982 7.96185 54.5471 7.16673C44.7036 2.39603 33.702 -0.188103 22.7003 0.0106762C16.717 0.0106762 8.41752 1.79969 4.36429 6.76918C2.8202 8.75697 2.43418 11.5399 2.43418 14.124C2.43418 19.6898 3.97827 25.2557 3.59225 30.8215C3.39923 33.2068 2.24117 35.9897 0.11805 35.9897C-0.847004 35.9897 -1.81206 35.3934 -2.58411 34.7971C-6.0583 31.8154 -8.18142 27.2435 -8.76045 22.6715C-9.33949 18.0996 -8.56744 13.3289 -7.60239 8.75697C-15.5158 10.546 -26.3245 17.9008 -27.0965 27.0447C-27.0965 30.4239 -22.0782 66.9993 -18.604 65.6079C-26.3244 68.5896 -34.0449 71.5713 -40.4142 76.9383C-46.7836 82.1066 -51.8019 90.2565 -52.96 98.6053C-54.118 106.556 -49.8718 116.694 -47.5556 124.248C-44.4675 134.187 -40.6073 144.126 -32.8868 151.083C-29.4126 154.263 -24.5874 156.649 -19.9551 155.257C-9.91853 152.077 -8.37443 133.789 -1.81206 126.434C3.20623 120.869 11.6987 117.887 17.8751 121.862C20.5772 123.651 22.5073 126.832 21.9283 130.211C20.9632 136.771 13.6288 139.951 9.38258 143.728C4.36429 148.3 -1.04001 153.27 -5.28625 158.637C-6.44432 160.028 -7.98841 165.991 -7.98841 167.781C-7.7954 170.762 -5.09325 173.346 -2.97013 174.937C8.41751 183.087 24.0514 190.044 37.9482 190.839C47.5987 191.435 57.4423 190.441 66.7068 187.857C69.988 186.863 73.4622 185.671 75.9713 183.087C78.2875 180.502 79.2525 176.129 76.9364 173.346C72.1111 167.383 70.181 159.233 70.9531 151.679C71.5321 147.903 73.8482 134.584 78.6735 134.783Z" fill="#528A85"/>
<path d="M140.823 132.003C140.244 132.798 139.279 132.798 138.7 132.201C121.522 116.498 98.7467 109.541 76.5505 102.782C71.9182 101.391 67.0929 99.8003 62.4607 98.4089C36.7902 90.0601 11.8918 78.5309 -12.2346 67.3993C-13.0066 67.0017 -13.1996 66.2066 -13.0066 65.4115C-12.6206 64.6164 -11.8485 64.4176 -11.0765 64.6164C13.0499 75.748 37.7553 87.0785 63.2327 95.4272C67.865 97.0174 72.6902 98.4089 77.3225 99.8003C99.7118 106.758 122.873 113.715 140.437 129.816C141.209 130.611 141.402 131.406 140.823 132.003Z" fill="#70AC9A"/>
<path d="M54.7403 173.546C54.5473 173.745 54.3543 173.944 53.9683 174.143C53.1962 174.341 52.4242 173.944 52.2312 173.149C45.8618 150.09 44.7038 125.442 49.336 101.787C49.529 100.992 50.3011 100.395 51.0731 100.594C51.8452 100.793 52.4242 101.588 52.2312 102.383C47.7919 125.442 48.757 149.693 55.1263 172.354C55.1263 172.552 55.1263 173.149 54.7403 173.546Z" fill="#70AC9A"/>
<path d="M12.2781 88.2699C12.085 88.4687 11.892 88.6675 11.699 88.6675C3.97858 92.4443 -5.09293 97.215 -12.4273 104.371C-19.9548 111.726 -24.587 120.472 -25.3591 129.218C-25.3591 130.014 -26.1311 130.61 -26.9032 130.61C-27.6752 130.61 -28.2542 129.815 -28.2542 129.02C-27.2892 119.478 -22.2709 110.136 -14.3575 102.184C-6.63702 94.8296 2.4345 89.8601 10.541 85.8846C11.313 85.487 12.085 85.8845 12.4711 86.6797C12.6641 87.276 12.6641 87.8723 12.2781 88.2699Z" fill="#70AC9A"/>
<path d="M-8.18115 86.084C-8.37416 86.4816 -8.76019 86.6804 -9.33922 86.6804C-21.6919 87.0779 -33.2726 94.6315 -39.0629 105.763C-39.4489 106.558 -40.221 106.757 -40.993 106.36C-41.7651 105.962 -41.9581 105.167 -41.572 104.372C-35.3957 92.2462 -22.657 84.0962 -9.33922 83.6987C-8.56717 83.6987 -7.79514 84.295 -7.79514 85.0901C-7.98814 85.4877 -7.98814 85.6865 -8.18115 86.084Z" fill="#70AC9A"/>
<path d="M27.7191 70.7786C27.5261 70.9774 27.3331 71.1762 26.947 71.3749C26.175 71.5737 25.4029 71.1762 25.0169 70.5798C18.6476 52.8884 20.9637 32.0166 30.8072 16.1143C31.1933 15.3191 32.1583 15.3191 32.7374 15.7167C33.3164 16.1143 33.5094 17.1082 33.1234 17.7045C23.6658 32.8117 21.5427 52.6897 27.5261 69.5859C28.1051 69.9835 27.9121 70.381 27.7191 70.7786Z" fill="#70AC9A"/>
<path d="M101.835 56.466C101.449 57.0623 100.677 57.2611 100.098 56.8635C98.3606 56.0684 96.2375 56.6648 94.1143 57.4599C90.4471 58.8513 86.7799 60.4416 83.3057 62.2306C77.1294 65.411 72.4971 68.3927 69.0229 71.9708C64.5837 76.3439 61.4955 81.3134 60.1444 86.4817C59.9514 87.2768 59.1793 87.6743 58.4073 87.4756C57.6353 87.2768 57.2492 86.4817 57.4422 85.6865C58.7933 79.9219 62.2675 74.3561 67.0928 69.7842C70.953 66.0074 75.7783 62.8269 82.1476 59.6464C85.8149 57.8574 89.4821 56.0684 93.1493 54.677C95.8514 53.6831 98.7466 52.8879 101.449 54.0806C102.221 54.4782 102.414 55.2733 102.028 56.0684C101.835 56.2672 101.835 56.466 101.835 56.466Z" fill="#70AC9A"/>
<path d="M108.977 146.315C108.784 146.514 108.591 146.713 108.398 146.911C107.626 147.309 106.854 146.911 106.468 146.116C101.256 133.792 92.1848 123.058 80.9902 116.101C80.2181 115.703 80.0251 114.709 80.4112 114.113C80.7972 113.517 81.7622 113.119 82.3413 113.516C94.1149 120.871 103.572 132.003 108.977 144.924C109.363 145.321 109.363 145.918 108.977 146.315Z" fill="#70AC9A"/>
<path d="M127.891 107.553C127.505 108.149 126.54 108.348 125.961 107.95C120.943 104.372 116.311 102.186 111.871 101.192C106.467 99.999 101.256 100.595 97.2025 102.782C96.4305 103.18 95.6584 102.981 95.2724 102.186C94.8864 101.39 95.0794 100.595 95.8515 100.198C100.677 97.6137 106.467 97.0173 112.643 98.4088C117.469 99.6015 122.487 101.788 127.698 105.565C128.277 105.962 128.47 106.758 127.891 107.553Z" fill="#70AC9A"/>
<path d="M-2.39086 62.6279C-2.58387 62.8267 -2.58387 63.0254 -2.77689 63.0254C-3.35592 63.423 -4.32098 63.2242 -4.90001 62.6279C-12.6204 51.2975 -16.2876 37.1841 -15.3226 23.4683C-15.3226 22.6732 -14.5506 22.0769 -13.7785 22.0769C-13.0065 22.0769 -12.4274 22.872 -12.4274 23.6671C-13.3925 36.389 -10.1113 49.7072 -2.9699 60.2425C-2.77689 60.4413 -2.58387 60.6401 -2.39086 60.8389C-2.00484 61.2364 -2.00484 62.0315 -2.39086 62.6279Z" fill="#70AC9A"/>
</svg>
