<svg width="984" height="616" viewBox="0 0 984 616" fill="none" xmlns="http://www.w3.org/2000/svg">
<path d="M965.436 76.8312C965.005 76.8312 964.79 76.6096 964.575 76.1664L960.488 60.6563L947.579 62.4289C947.149 62.4289 946.933 62.2074 946.718 61.9858C946.503 61.5426 946.718 61.3211 946.934 61.0995L958.121 52.015L954.464 38.0559C954.464 37.6128 954.463 37.3912 954.679 37.1696C954.894 36.948 955.324 36.948 955.539 37.1696L966.727 44.7031L974.257 38.499C974.472 38.2775 974.902 38.2775 975.117 38.499C975.332 38.7206 975.548 39.1638 975.548 39.3853L972.966 48.913L983.293 56.0033C983.508 56.2249 983.723 56.4465 983.723 56.8896C983.723 57.3328 983.293 57.5543 983.078 57.5543L970.384 59.3269L965.866 76.1664C966.296 76.6096 965.866 76.8312 965.436 76.8312ZM962.424 60.6563L965.651 72.8429L969.093 59.5485L962.424 60.6563ZM958.981 53.7876L950.591 60.6563L960.272 59.3269L958.981 53.7876ZM960.272 52.6797L961.994 59.1053L969.524 57.9975L971.675 49.7993L967.372 46.9188L960.272 52.6797ZM972.966 50.6856L971.245 57.5543L981.141 56.2249L972.966 50.6856ZM956.83 39.8285L959.627 50.9071L965.651 46.0325L956.83 39.8285ZM968.663 45.811L972.105 48.0267L973.826 41.6011L968.663 45.811Z" fill="#C8D5ED"/>
<path d="M627.662 606.168C627.447 605.725 627.662 605.503 627.877 605.282L639.71 594.868L632.61 583.789C632.395 583.568 632.395 583.124 632.61 582.681C632.825 582.46 633.255 582.238 633.471 582.46L646.379 588.885L656.921 579.579C657.136 579.358 657.567 579.358 657.782 579.579C657.997 579.801 658.212 580.022 658.212 580.466L656.276 594.203L664.881 598.413C665.097 598.635 665.312 598.856 665.312 599.299C665.312 599.742 665.097 599.964 664.666 599.964L655.2 601.737L653.479 614.366C653.479 614.809 653.264 615.031 652.833 615.031C652.403 615.031 652.188 615.031 651.973 614.588L644.873 603.509L628.092 606.611C628.307 606.833 627.877 606.611 627.662 606.168ZM640.57 596.197L631.104 604.395L644.228 601.958L640.57 596.197ZM645.088 590.215L635.407 585.34L640.785 593.76L645.088 590.215ZM646.809 590.879L641.861 595.089L645.949 601.737L653.909 600.186L654.555 594.868L646.809 590.879ZM653.909 601.958L647.025 603.288L652.618 611.929L653.909 601.958ZM656.491 582.238L648.1 589.772L654.985 593.317L656.491 582.238ZM656.276 595.754L655.63 599.964L662.085 598.634L656.276 595.754Z" fill="#C8D5ED"/>
<path d="M71.0862 40.4924C70.6559 40.4924 70.4408 40.2709 70.4408 39.8278L67.8591 24.0961L54.9505 24.7608C54.5202 24.7608 54.3051 24.5392 54.0899 24.0961C53.8748 23.6529 54.0899 23.4314 54.5202 23.2098L66.5682 15.2331L64.2016 1.05249C64.2016 0.609346 64.2017 0.387753 64.6319 0.16618C64.8471 -0.0553932 65.2774 -0.0553932 65.4925 0.16618L75.8194 8.80754L83.7797 3.48977C83.9948 3.2682 84.4251 3.2682 84.6402 3.48977C84.8554 3.71135 85.0705 4.15451 84.8554 4.37609L81.6282 13.6821L91.3097 21.6587C91.5248 21.8803 91.74 22.3235 91.5248 22.5451C91.5248 22.7666 91.0945 23.2098 90.8794 23.2098L77.9708 23.8745L72.1619 40.2709C71.7317 40.2709 71.3014 40.4924 71.0862 40.4924ZM69.3651 23.8745L71.5165 36.5042L76.2497 23.6529L69.3651 23.8745ZM66.5682 16.7841L57.7474 22.7666L67.6439 22.3235L66.5682 16.7841ZM67.8591 15.8979L68.9348 22.3235L76.4648 21.8803L79.2617 13.9037L75.1739 10.5801L67.8591 15.8979ZM80.7677 15.2331L78.4011 21.8803L88.2977 21.4372L80.7677 15.2331ZM65.7077 2.82505L67.6439 14.1253L74.0982 9.69382L65.7077 2.82505ZM76.8951 9.91541L80.1222 12.5743L82.4888 6.14864L76.8951 9.91541Z" fill="#C8D5ED"/>
<path d="M0.0891158 319.452C-0.126027 319.009 0.0891125 318.787 0.304256 318.565L12.1371 308.152L5.03739 297.073C4.82225 296.851 4.82225 296.408 5.03739 295.965C5.25254 295.743 5.68283 295.522 5.89797 295.743L18.8065 302.169L29.3486 292.863C29.5637 292.641 29.994 292.641 30.2091 292.863C30.4243 293.085 30.6394 293.306 30.6394 293.749L28.7031 307.487L37.3088 311.697C37.524 311.918 37.7391 312.14 37.7391 312.583C37.7391 313.026 37.524 313.248 37.0937 313.248L27.6274 315.02L25.9063 327.65C25.9063 328.093 25.6911 328.315 25.2608 328.315C24.8306 328.315 24.6154 328.315 24.4003 327.872L17.3006 316.793L0.519395 319.895C0.519395 319.895 0.0891158 319.895 0.0891158 319.452ZM12.9977 309.481L3.5314 317.679L16.6551 315.242L12.9977 309.481ZM17.5157 303.277L7.83426 298.402L13.2128 306.822L17.5157 303.277ZM19.0217 304.163L14.0734 308.373L18.1611 315.02L26.1214 313.469L26.7668 308.152L19.0217 304.163ZM26.1214 315.02L19.2368 316.35L24.8306 324.991L26.1214 315.02ZM28.7031 295.522L20.3125 303.055L27.1971 306.601L28.7031 295.522ZM28.7031 308.816L28.0577 313.026L34.512 311.697L28.7031 308.816Z" fill="#C8D5ED"/>
</svg>
