<svg width="158" height="138" viewBox="0 0 158 138" fill="none" xmlns="http://www.w3.org/2000/svg">
<path d="M117.834 54.0898C121.771 81.6337 121.541 109.773 117.161 137.259" stroke="#2F1C3B" stroke-miterlimit="10" stroke-linecap="round" stroke-linejoin="round"/>
<path d="M119.697 121.951C124.268 104.837 136.273 89.8553 151.985 81.6729C153.099 89.1639 149.008 95.9249 144.513 101.995C138.213 110.484 129.685 118.494 119.697 121.951Z" fill="#2F1C3B"/>
<path d="M151.082 65.5773C150.717 65.9614 150.333 66.3648 149.968 66.7297L129.455 58.432C135.639 61.6397 141.728 65.0587 147.663 68.7465C143.687 71.9542 139.039 74.3167 134.353 76.3528C131.164 77.7357 127.88 78.9842 124.518 80.0214C122.655 74.3552 120.619 69.0155 118.775 63.2532C117.45 69.5533 116.259 75.8918 115.202 82.2688C107.827 83.5365 100.374 83.4596 93.2673 81.1931C90.3285 80.252 87.4089 78.8498 85.1616 76.7753C90.4629 69.7261 96.7823 63.983 104.062 58.9122C95.8987 61.7357 88.7919 66.8449 82.0307 72.3191C79.4377 65.9614 82.9143 58.4512 87.2552 52.9578C89.0992 50.6145 91.1352 48.4248 93.3249 46.408C98.7607 45.8509 104.331 46.5232 109.517 48.3287C105.138 46.3695 100.528 44.9866 95.8027 44.2567C97.4929 42.8546 99.26 41.5484 101.104 40.3576C107.289 36.3047 114.088 33.558 121.214 32.2327C120.6 35.9398 120.1 39.6661 120.504 43.4308C120.561 43.8534 120.216 43.7381 120.504 44.0455C121.848 39.7429 123.577 35.5748 125.632 31.5796C128.11 31.3299 130.607 31.2339 133.123 31.3107C138.809 31.5028 145.262 33.0586 150.084 36.516C144.321 39.3395 138.79 42.6624 133.584 46.3887C139.539 42.4704 145.839 40.1847 152.638 38.648C154.905 40.9145 156.576 43.7765 157.248 47.3107C158.497 53.8221 155.635 60.6793 151.082 65.5773Z" fill="white"/>
<path d="M104.369 50.4996C102.237 53.2078 100.547 56.9533 102.141 60.0266C103.121 61.9281 105.157 63.0614 107.193 63.7145C113.474 65.7121 120.35 64.0794 126.4 61.448C129.262 60.1995 132.105 58.7012 134.218 56.4155C136.35 54.1298 137.675 50.9221 137.099 47.8489C136.1 42.6244 130.434 40.5308 125.805 40.3771C120.465 40.2043 115.318 41.6832 110.842 44.6028C108.384 46.197 106.194 48.1946 104.369 50.4996Z" fill="#F593AF"/>
<path d="M40.5807 23.7424C47.7836 62.7149 61.0177 100.554 79.6299 135.531" stroke="#2F1C3B" stroke-miterlimit="10" stroke-linecap="round" stroke-linejoin="round"/>
<path d="M74.3477 129.5C50.7415 122.719 31.2649 103.108 24.619 79.4636C35.721 84.2079 44.1148 91.1804 52.0668 100.266C60.0188 109.351 67.8363 119.339 74.3477 129.5Z" fill="#2F1C3B"/>
<path d="M13.4209 43.9693C13.9203 44.1806 14.4197 44.3919 14.9191 44.5648L30.3621 28.7184C25.9827 34.1542 21.7954 39.7244 17.8386 45.4867C22.7558 46.8313 27.9803 47.1194 33.0896 47.1002C36.5662 47.081 40.062 46.9081 43.5578 46.5047C43.0007 40.5696 42.6934 34.8649 42.0788 28.8529C45.8243 34.0966 49.4737 39.4171 53.0079 44.8145C60.2684 43.0089 67.068 39.9357 72.6574 34.9993C74.9623 32.9633 77.0752 30.5047 78.2853 27.7004C70.6022 23.3787 62.5158 20.6511 53.7955 18.9609C62.4197 18.2502 70.9671 20.0749 79.3609 22.3798C79.188 15.5227 72.9647 10.0485 66.7991 6.74479C64.1676 5.34262 61.4209 4.15173 58.6166 3.19135C53.4113 4.86242 48.5902 7.7244 44.5566 11.4507C47.7834 7.89727 51.4329 4.76636 55.4857 2.21174C53.3729 1.6163 51.2216 1.1169 49.0512 0.771161C41.7522 -0.438925 34.4341 -0.227588 27.3657 1.42427C29.4209 4.57434 31.3801 7.78203 32.5133 11.3931C32.6286 11.7964 32.8975 11.5467 32.763 11.9501C29.805 8.55029 26.5397 5.43866 23.0439 2.59592C20.6814 3.36422 18.3573 4.2862 16.0907 5.36183C10.9623 7.82042 5.69938 11.854 2.64535 16.9441C9.06073 17.213 15.4569 18.0197 21.7186 19.345C14.6886 18.1542 8.0043 18.5959 1.16636 19.9212C0.0138979 22.9176 -0.389464 26.2022 0.436467 29.698C1.91546 36.2094 7.29362 41.3379 13.4209 43.9693Z" fill="white"/>
<path d="M50.1267 11.3735C53.1807 12.987 56.2347 15.7529 56.0042 19.1911C55.8698 21.3231 54.4676 23.1863 52.8542 24.5884C47.9178 28.9486 40.9454 30.2163 34.3571 30.2547C31.2263 30.2739 28.0378 30.0242 25.1759 28.7949C22.3139 27.5464 19.7977 25.1647 19.087 22.1106C17.8962 16.9246 22.2563 12.7181 26.4052 10.7205C31.2263 8.41555 36.5468 7.70488 41.8097 8.56923C44.7101 9.04942 47.5336 9.99058 50.1267 11.3735Z" fill="#F593AF"/>
<path d="M72.0081 107.994C72.2002 118.232 75.6192 128.296 80.7284 137.478H115.456C115.744 136.498 115.955 135.595 116.109 134.808C117.146 129.506 117.185 123.994 116.186 118.673C115.648 115.811 114.764 112.892 112.728 110.779C110.712 108.685 107.331 107.648 104.796 109.089C103.374 109.895 102.433 111.298 101.53 112.642C100.666 113.929 99.8209 115.235 98.9565 116.541C98.1114 112.834 96.7284 109.031 94.9421 105.535C94.1738 104.018 93.3287 102.539 92.4067 101.175C90.3131 98.0059 87.6432 95.0094 84.109 93.6457C80.5748 92.2819 76.0033 93.0502 73.8905 96.2195C72.9109 97.6985 72.5459 99.5233 72.3347 101.29C72.0657 103.518 71.9697 105.747 72.0081 107.994Z" fill="#2F1C3B"/>
</svg>
