<svg width="115" height="81" viewBox="0 0 115 81" fill="none" xmlns="http://www.w3.org/2000/svg">
<path d="M-0.474716 0.0546988C-4.27468 -0.175509 -8.07471 0.284901 -11.4276 2.12657C-18.1334 5.80989 -21.4864 14.0974 -28.1922 18.0109C-34.0039 21.464 -41.6038 21.2338 -46.9685 25.3776C-53.4508 30.212 -54.5684 40.3411 -50.9919 47.7078C-47.4155 55.0744 -39.8156 59.4484 -31.9921 61.0598C-18.1334 63.8223 -8.74526 60.8296 4.66639 67.2754C16.9604 73.2608 29.7015 84.0806 44.2308 80.1671C52.2778 78.0952 57.6424 71.8796 64.7953 67.9661C72.8423 63.5921 79.3246 65.4338 87.8187 63.8223C100.783 61.5202 113.077 49.7796 113.971 35.7369C114.195 32.2838 113.748 28.6005 112.183 25.3776C108.383 17.5505 98.7715 14.788 90.2774 13.4068C77.5363 11.5651 66.8071 1.66615 54.2895 0.515108C39.9838 -0.86614 25.9015 3.96823 11.1487 1.66615C7.34871 0.975524 3.32525 0.284907 -0.474716 0.0546988Z" fill="#C8D5ED"/>
</svg>
