<svg width="200" height="269" viewBox="0 0 200 269" fill="none" xmlns="http://www.w3.org/2000/svg">
<path d="M43.388 122.635C43.388 122.635 37.3731 140.315 21.8049 138.193C6.23668 136.072 3.05228 149.862 5.52903 152.337C8.00579 154.813 9.42108 150.216 11.8978 148.094C9.06726 156.934 14.0208 161.885 17.2052 151.63C14.3746 160.47 20.7434 160.824 23.2202 153.752C39.8498 162.592 51.526 147.033 54.0027 134.657" fill="#966C3C"/>
<path d="M122.644 240.034C122.644 240.034 122.998 240.741 122.998 241.802C122.998 242.863 122.998 244.277 122.644 245.692C122.29 246.399 121.936 247.106 121.583 247.46C121.229 248.167 120.521 248.167 120.167 248.521C119.106 248.874 118.398 248.521 118.398 248.521C118.398 248.521 119.106 248.167 119.813 247.813C120.521 247.106 121.229 246.399 121.583 244.985C121.936 244.277 121.936 243.924 122.29 243.217C122.29 242.509 122.644 242.156 122.644 241.802C122.29 240.741 122.644 240.034 122.644 240.034Z" fill="#1A2E36"/>
<path d="M72.4012 172.143C72.4012 172.143 73.8165 211.393 73.1089 241.449C67.4477 241.449 63.5557 253.472 74.1704 256.654C104.245 264.08 118.752 258.776 125.121 255.24C127.598 253.825 128.305 250.289 126.536 247.107C125.828 245.692 124.413 243.924 122.644 241.803C123.706 234.731 116.275 167.546 117.691 165.424" fill="#966C3C"/>
<path d="M93.2768 245.691C93.2768 245.691 92.2153 246.398 90.8 247.105C90.0924 247.459 89.0309 247.813 88.3233 248.166C87.2618 248.52 86.5541 249.227 86.2003 250.288C85.8465 250.641 85.8465 250.995 85.4927 251.702C85.4927 252.056 85.4927 252.763 85.1389 253.117C85.1389 254.177 85.1389 255.238 85.1389 255.945C85.1389 256.653 85.4927 257.36 85.4927 258.067C85.4927 258.421 85.4927 258.774 85.4927 258.774C85.4927 258.774 85.4927 258.421 85.1389 258.067C84.785 257.713 84.4312 257.006 84.4312 255.945C84.4312 255.592 84.0774 255.238 84.0774 254.531C84.0774 254.177 83.7236 253.47 83.7236 252.763C83.7236 252.056 83.7236 251.702 83.7236 250.995C83.7236 250.288 84.0774 249.581 84.4312 249.227C85.1389 248.166 86.2003 247.105 87.2618 246.752C88.3233 246.398 89.3847 246.045 90.0924 246.045C92.2153 246.045 93.2768 245.691 93.2768 245.691Z" fill="#1A2E36"/>
<path d="M82.308 244.276C82.308 244.276 81.2465 244.984 79.8312 245.691C79.1236 246.044 78.0621 246.398 77.3545 246.752C76.293 247.105 75.5853 247.812 75.2315 248.873C74.8777 249.227 74.8777 249.58 74.5239 250.288C74.5239 250.641 74.5239 251.348 74.17 251.702C74.17 252.763 74.17 253.824 74.17 254.531C74.17 255.238 74.5239 255.945 74.5239 256.652C74.5239 257.006 74.5239 257.36 74.5239 257.36C74.5239 257.36 74.5239 257.006 74.17 256.652C73.8162 256.299 73.4624 255.592 73.4624 254.531C73.4624 254.177 73.1086 253.824 73.1086 253.116C73.1086 252.763 72.7548 252.056 72.7548 251.348C72.7548 250.641 72.7548 250.288 72.7548 249.58C72.7548 248.873 73.1086 248.166 73.4624 247.812C74.1701 246.752 75.2315 245.691 76.293 245.337C77.3545 244.984 78.4159 244.63 79.1236 244.63C81.2465 244.276 82.308 244.276 82.308 244.276Z" fill="#1A2E36"/>
<path d="M91.8617 218.818C91.8617 218.818 90.8002 219.171 89.3849 219.171C88.6773 219.171 87.9697 219.171 86.9082 218.818C85.8467 218.818 85.1391 218.464 84.0776 218.11C83.0161 217.757 82.3085 217.05 81.6008 216.696C81.247 216.342 80.8932 215.989 80.5394 215.635C80.1856 215.282 79.8317 214.928 79.8317 214.574C79.1241 213.16 79.1241 212.099 79.1241 212.453C79.1241 212.453 79.1241 212.806 79.4779 212.806C79.8317 213.16 80.1856 213.514 80.5394 214.221C80.8932 214.574 81.6008 215.282 82.3085 215.635C83.0161 215.989 83.7238 216.342 84.4314 216.696C86.2005 217.403 87.9697 217.757 89.0311 218.11C91.1541 218.464 91.8617 218.818 91.8617 218.818Z" fill="#1A2E36"/>
<path d="M88.6769 212.807C88.6769 212.807 88.323 212.807 87.6154 212.807C87.2616 212.807 86.9077 212.807 86.5539 212.454C86.2001 212.454 85.8463 212.1 85.1386 212.1C84.7848 212.1 84.431 211.747 84.0772 211.747C83.7233 211.747 83.3695 211.393 83.0157 211.393C82.308 211.393 81.9542 211.393 81.9542 211.393C81.9542 211.393 81.9542 211.393 81.9542 211.039C81.9542 210.686 82.308 210.686 82.6619 210.332C83.3695 209.978 84.431 209.978 85.4924 210.332C85.8463 210.332 86.5539 210.686 86.9077 211.039C87.2616 211.393 87.6154 211.393 87.9692 211.747C88.323 212.454 88.6769 212.807 88.6769 212.807Z" fill="#1A2E36"/>
<path d="M89.7386 207.148C89.7386 207.148 89.031 207.148 88.3233 206.795C87.9695 206.795 87.2619 206.795 86.908 206.441C86.5542 206.441 85.8466 206.087 85.4928 206.087C85.1389 206.087 84.4313 206.087 84.0775 206.087C83.7236 206.087 83.016 206.087 82.6622 206.087C81.9545 206.087 81.2469 206.441 81.2469 206.441C81.2469 206.441 81.2469 205.734 82.3084 205.027C82.6622 204.673 83.3698 204.319 83.7236 204.319C84.4313 204.319 84.7851 204.319 85.4928 204.319C86.5542 204.673 87.9695 205.027 88.6772 205.734C89.3848 206.795 89.7386 207.148 89.7386 207.148Z" fill="#1A2E36"/>
<path d="M41.6187 56.1596C16.1435 52.27 -3.67059 49.0876 0.575279 24.3354C5.17497 -0.416868 23.5737 10.5448 38.0805 5.24078C52.5872 -0.063265 93.2768 -8.19614 93.2768 20.7993C93.2768 49.7948 78.7701 104.957 93.2768 104.957C107.784 104.957 154.488 84.4479 181.379 171.788C191.286 196.54 214.284 214.928 247.543 211.745C275.495 199.723 261.696 222 227.729 225.182C193.409 228.364 166.164 225.889 142.812 202.905C80.1854 202.551 14.7282 188.761 41.6187 56.1596Z" fill="#966C3C"/>
<path d="M75.8828 27.5807C77.0562 20.4511 72.2242 13.7207 65.0902 12.548C57.9562 11.3752 51.2216 16.2042 50.0481 23.3339C48.8747 30.4635 53.7067 37.1939 60.8407 38.3666C67.9748 39.5393 74.7093 34.7103 75.8828 27.5807Z" fill="white"/>
<path d="M83.6104 29.0114C84.7839 21.8818 79.9519 15.1514 72.8179 13.9786C65.6838 12.8059 58.9493 17.6349 57.7758 24.7645C56.6023 31.8941 61.4343 38.6245 68.5684 39.7973C75.7024 40.97 82.437 36.141 83.6104 29.0114Z" fill="#1A2E36"/>
<path d="M20.3893 42.7206C20.3893 42.7206 20.3893 43.4278 20.0355 44.8422C19.6817 45.5494 19.3279 46.2566 18.6202 46.6102C18.2664 46.9638 17.9126 46.9638 17.2049 47.3174C16.8511 47.3174 16.1435 47.3174 15.7897 47.3174C14.7282 46.9638 14.0205 46.2566 13.6667 45.5494C12.9591 44.8422 12.9591 44.135 12.6053 43.4278C12.2514 42.0134 12.6053 41.3062 12.6053 41.3062C12.6053 41.3062 12.6053 41.6598 12.9591 41.6598C12.9591 42.0134 13.3129 42.367 13.6667 43.0742C14.0205 43.4278 14.3744 44.135 14.7282 44.4886C15.082 44.8422 15.7897 45.1958 16.4973 45.5494C17.5588 45.903 18.9741 45.1958 19.6817 44.135C20.0355 43.7814 20.3893 43.0742 20.3893 43.0742C20.3893 42.7206 20.3893 42.7206 20.3893 42.7206Z" fill="#1A2E36"/>
<path d="M22.1586 32.4663C22.1586 32.4663 23.22 31.7591 24.9892 31.0519C25.6968 30.6982 26.7583 29.991 27.4659 29.2838C27.8197 28.5766 28.1736 28.223 28.5274 27.5158C28.8812 27.1622 28.8812 26.8086 28.5274 26.8086C28.1736 26.455 28.1736 26.8086 27.4659 26.8086C27.1121 26.8086 26.4044 27.5158 26.0506 27.8694C25.6968 28.5766 24.9892 29.2838 24.2815 29.991C22.8662 31.4055 22.1586 32.4663 22.1586 32.4663ZM22.1586 32.4663C22.1586 32.4663 22.5124 31.4055 23.5739 29.6374C23.9277 28.9302 24.6353 27.8694 25.6968 27.1622C26.0506 26.8086 26.7583 26.455 27.4659 26.1014C28.1736 25.7478 29.235 25.7478 29.9427 26.455C30.2965 26.8086 30.2965 27.5158 30.2965 27.8694C30.2965 28.223 29.9427 28.5766 29.5888 28.9302C29.235 28.9302 28.5274 29.6374 28.1736 29.991C27.1121 30.6982 26.0506 31.0519 25.343 31.4055C23.5739 32.1127 22.1586 32.4663 22.1586 32.4663Z" fill="#1A2E36"/>
<path d="M17.205 31.4052C17.205 31.4052 16.8511 30.3444 16.1435 28.5764C15.7897 27.8692 15.4358 27.162 14.7282 26.1012C14.7282 25.7476 14.3744 25.394 14.0205 25.0404C13.6667 25.0404 13.3129 24.6868 12.9591 25.0404C12.6053 25.394 12.6053 25.0404 12.9591 25.7476C12.9591 26.1012 13.3129 26.8084 13.6667 27.162C14.3744 27.8692 14.7282 28.5764 15.4358 29.2836C16.4973 30.698 17.205 31.4052 17.205 31.4052ZM17.205 31.4052C17.205 31.4052 16.1435 30.698 14.7282 29.6372C14.0205 29.2836 13.3129 28.5764 12.6053 27.5156C12.2514 27.162 11.8976 26.8084 11.5438 26.1012C11.5438 25.7476 11.19 25.394 11.5438 24.6868C11.5438 24.3332 11.8976 23.9796 11.8976 23.9796C12.2514 23.626 12.2514 23.9796 12.2514 23.626C12.9591 23.2724 14.0205 23.626 14.7282 23.9796C15.4358 24.3332 15.7897 25.0404 16.1435 25.394C16.8511 26.4548 16.8511 27.5156 17.205 28.5764C17.205 30.3444 17.205 31.4052 17.205 31.4052Z" fill="#1A2E36"/>
<path d="M72.755 9.48276C72.755 9.48276 72.4012 9.12916 72.0474 8.77555C71.6936 8.42195 70.9859 8.06835 70.2783 7.36114C69.5706 6.65393 68.863 6.30033 67.8015 5.94673C66.74 5.59312 65.6786 5.23952 64.6171 5.23952C62.4942 5.23952 60.3712 6.30033 58.9559 7.00754C58.2483 7.36114 57.5407 7.71474 57.1868 8.06835C57.1868 8.77555 56.833 8.77555 56.833 8.77555C56.833 8.77555 57.5407 7.71474 58.6021 6.65393C59.3098 5.94673 60.0174 5.23952 61.0789 4.88592C62.1403 4.53231 63.5556 4.17871 64.6171 4.17871C66.0324 4.17871 67.0939 4.53231 68.1553 5.23952C69.5706 5.59312 70.2783 6.30033 70.9859 7.00754C71.6936 7.71474 72.0474 8.42195 72.4012 8.77555C72.4012 9.48276 72.755 9.48276 72.755 9.48276Z" fill="#1A2E36"/>
<path d="M161.211 247.812C161.211 247.812 161.565 248.519 161.565 249.58C161.565 250.64 161.565 252.055 161.211 253.469C160.857 254.176 160.503 254.884 160.149 255.237C159.796 255.944 159.088 255.944 158.734 256.298C157.673 256.652 156.965 256.298 156.965 256.298C156.965 256.298 157.673 255.944 158.38 255.591C159.088 254.884 159.796 254.176 160.149 252.762C160.503 252.055 160.503 251.701 160.857 250.994C160.857 250.287 161.211 249.933 161.211 249.58C160.857 248.519 161.211 247.812 161.211 247.812Z" fill="#1A2E36"/>
<path d="M111.321 179.921C111.321 179.921 112.737 219.171 112.029 249.227C106.368 249.227 102.476 261.249 113.09 264.432C143.165 271.857 157.672 266.553 164.041 263.017C166.518 261.603 167.225 258.067 165.456 254.884C164.748 253.47 163.333 251.702 161.564 249.58C162.625 242.508 155.195 175.324 156.611 173.202" fill="#966C3C"/>
<path d="M111.322 179.92C112.03 191.589 112.737 202.904 112.737 214.573C112.737 220.231 112.737 226.242 112.737 231.9C112.737 237.557 112.737 243.569 112.384 249.226C112.384 249.58 112.03 249.58 112.03 249.58C111.322 249.58 110.614 249.58 110.261 249.933C109.553 250.287 109.199 250.641 108.845 250.994C107.784 252.055 107.43 253.116 107.076 254.53C106.722 255.945 106.722 257.359 107.43 258.773C107.784 259.481 108.138 260.188 108.491 260.541C108.845 261.249 109.553 261.602 109.907 261.956C109.199 261.602 108.845 260.895 108.491 260.541C108.138 259.834 107.784 259.481 107.43 258.773C106.722 257.359 106.722 255.945 107.076 254.53C107.43 253.116 107.784 251.701 108.845 250.287C109.199 249.58 109.907 249.226 110.614 248.873C111.322 248.519 112.03 248.165 112.737 248.165L112.384 248.519V213.866C110.968 202.904 110.968 191.235 111.322 179.92Z" fill="#1A2E36"/>
<path d="M131.843 253.471C131.843 253.471 130.782 254.178 129.367 254.885C128.659 255.239 127.598 255.592 126.89 255.946C125.828 256.3 125.121 257.007 124.767 258.068C124.413 258.421 124.413 258.775 124.059 259.482C124.059 259.836 124.059 260.543 123.706 260.896C123.706 261.957 123.706 263.018 123.706 263.725C123.706 264.432 124.059 265.14 124.059 265.847C124.059 266.2 124.059 266.554 124.059 266.554C124.059 266.554 124.059 266.2 123.706 265.847C123.352 265.493 122.998 264.786 122.998 263.725C122.998 263.372 122.644 263.018 122.644 262.311C122.644 261.957 122.29 261.25 122.29 260.543C122.29 259.836 122.29 259.482 122.29 258.775C122.29 258.068 122.644 257.36 122.998 257.007C123.706 255.946 124.767 254.885 125.828 254.532C126.89 254.178 127.951 253.824 128.659 253.824C130.782 253.824 131.843 253.471 131.843 253.471Z" fill="#1A2E36"/>
<path d="M121.228 252.055C121.228 252.055 120.167 252.762 118.752 253.469C118.044 253.823 116.983 254.176 116.275 254.53C115.213 254.884 114.506 255.591 114.152 256.652C113.798 257.005 113.798 257.359 113.444 258.066C113.444 258.42 113.444 259.127 113.09 259.48C113.09 260.541 113.09 261.602 113.09 262.309C113.09 263.016 113.444 263.724 113.444 264.431C113.444 264.784 113.444 265.138 113.444 265.138C113.444 265.138 113.444 264.784 113.09 264.431C112.737 264.077 112.383 263.37 112.383 262.309C112.383 261.956 112.029 261.602 112.029 260.895C112.029 260.541 111.675 259.834 111.675 259.127C111.675 258.42 111.675 258.066 111.675 257.359C111.675 256.652 112.029 255.944 112.383 255.591C113.09 254.53 114.152 253.469 115.213 253.115C116.275 252.762 117.336 252.408 118.044 252.408C120.167 252.055 121.228 252.055 121.228 252.055Z" fill="#1A2E36"/>
<path d="M130.782 226.242C130.782 226.242 129.721 226.596 128.305 226.596C127.598 226.596 126.89 226.596 125.829 226.242C124.767 226.242 124.059 225.888 122.998 225.535C121.936 225.181 121.229 224.474 120.521 224.12C120.167 223.767 119.814 223.413 119.46 223.06C119.106 222.706 118.752 222.352 118.752 221.999C118.044 220.584 118.044 219.524 118.044 219.877C118.044 219.877 118.044 220.231 118.398 220.231C118.752 220.584 119.106 220.938 119.46 221.645C119.814 221.999 120.521 222.706 121.229 223.06C121.936 223.413 122.644 223.767 123.352 224.12C125.121 224.828 126.89 225.181 127.951 225.535C129.721 226.242 130.782 226.242 130.782 226.242Z" fill="#1A2E36"/>
<path d="M127.244 220.584C127.244 220.584 126.89 220.584 126.183 220.584C125.829 220.584 125.475 220.584 125.121 220.231C124.767 220.231 124.414 219.877 123.706 219.877C123.352 219.877 122.998 219.523 122.645 219.523C122.291 219.523 121.937 219.17 121.583 219.17C120.875 219.17 120.522 219.17 120.522 219.17C120.522 219.17 120.522 219.17 120.522 218.816C120.522 218.463 120.875 218.463 121.229 218.109C121.937 217.755 122.998 217.755 124.06 218.109C124.414 218.109 125.121 218.463 125.475 218.816C125.829 219.17 126.183 219.17 126.537 219.523C127.244 220.231 127.244 220.584 127.244 220.584Z" fill="#1A2E36"/>
<path d="M128.659 214.926C128.659 214.926 127.951 214.926 127.244 214.572C126.89 214.572 126.182 214.572 125.828 214.219C125.475 214.219 124.767 213.865 124.413 213.865C124.059 213.865 123.352 213.865 122.998 213.865C122.644 213.865 121.936 213.865 121.582 213.865C120.875 213.865 120.167 214.219 120.167 214.219C120.167 214.219 120.167 213.512 121.229 212.804C121.582 212.451 122.29 212.097 122.644 212.097C123.352 212.097 123.705 212.097 124.413 212.097C125.475 212.451 126.89 212.804 127.597 213.512C128.305 214.219 128.659 214.926 128.659 214.926Z" fill="#1A2E36"/>
<path opacity="0.5" d="M148.982 140.419C150.902 136.575 145.796 130.136 137.578 126.038C129.36 121.94 121.141 121.734 119.222 125.578C117.302 129.423 122.408 135.861 130.626 139.96C138.845 144.058 147.063 144.264 148.982 140.419Z" fill="#F3722C"/>
<path opacity="0.5" d="M135.164 118.867C136.473 116.246 132.998 111.859 127.402 109.07C121.807 106.28 116.211 106.144 114.902 108.765C113.594 111.386 117.069 115.772 122.664 118.562C128.259 121.352 133.856 121.488 135.164 118.867Z" fill="#F3722C"/>
<path opacity="0.5" d="M159.269 132.314C160.142 130.567 157.73 127.595 153.884 125.677C150.037 123.759 146.211 123.621 145.339 125.369C144.467 127.116 146.878 130.087 150.725 132.005C154.571 133.923 158.397 134.061 159.269 132.314Z" fill="#F3722C"/>
<path opacity="0.5" d="M116.243 123.865C117.115 122.117 114.704 119.146 110.857 117.228C107.01 115.31 103.185 115.172 102.312 116.919C101.44 118.667 103.851 121.638 107.698 123.556C111.545 125.474 115.371 125.612 116.243 123.865Z" fill="#F3722C"/>
<path opacity="0.5" d="M166.024 148.739C166.896 146.992 164.485 144.02 160.638 142.103C156.791 140.185 152.965 140.047 152.093 141.794C151.221 143.541 153.632 146.513 157.479 148.431C161.326 150.349 165.151 150.487 166.024 148.739Z" fill="#F3722C"/>
<path d="M157.319 190.526C157.319 190.526 157.673 192.294 158.027 194.77C158.027 195.83 158.381 197.598 158.734 199.013C158.734 200.427 159.088 202.195 159.088 203.963C159.088 205.731 159.442 207.146 159.442 208.914C159.442 210.328 159.442 211.743 159.442 213.157C159.442 215.632 159.442 217.4 159.442 217.4C159.442 217.4 159.088 215.632 158.734 213.157C158.734 212.096 158.381 210.328 158.027 208.914C158.027 207.499 157.673 205.731 157.673 203.963C157.673 202.195 157.319 200.781 157.319 199.013C157.319 197.598 157.319 196.184 157.319 194.77C157.319 192.294 157.319 190.526 157.319 190.526Z" fill="#1A2E36"/>
<path d="M59.6635 134.658C59.6635 134.658 59.6635 153.045 44.0953 156.228C28.5271 159.41 30.2962 173.2 33.1268 174.615C36.3112 176.029 36.3112 171.432 37.7265 168.604C37.7265 177.797 43.7415 180.98 43.7415 170.018C43.7415 179.212 49.7565 177.797 49.7565 170.018C68.1552 173.2 74.524 154.46 73.1087 142.083" fill="#CC314A"/>
<path d="M59.6636 134.658C59.6636 134.658 59.6636 153.046 44.0954 156.228C28.5272 159.41 30.2963 173.201 33.1269 174.615C36.3113 176.03 36.3113 171.433 37.7266 168.604C37.7266 177.798 43.7416 180.98 43.7416 170.019C43.7416 179.212 49.7566 177.798 49.7566 170.019C68.1554 173.201 74.5242 154.46 73.1089 142.084" fill="#966C3C"/>
<path d="M50.4644 170.372C50.4644 170.372 51.1721 170.372 52.2335 170.372C52.9412 170.372 53.6488 170.372 54.3565 170.372C55.0641 170.372 56.1256 170.372 56.8332 170.018C57.8947 169.665 58.9562 169.665 60.0176 169.311C61.0791 168.958 62.1406 168.604 63.202 167.897C64.2635 167.19 65.325 166.482 66.0326 165.775C66.7403 164.714 67.8017 164.007 68.5094 162.946C69.217 161.885 69.9247 160.825 70.6323 159.764C71.3399 158.703 71.6938 157.289 72.0476 156.228C72.7552 153.753 73.4629 151.631 73.4629 149.863C73.8167 147.741 73.8167 146.327 73.8167 144.913C73.8167 143.852 73.8167 143.145 73.8167 143.145C73.8167 143.145 73.8167 143.852 74.1705 144.913C74.1705 145.973 74.5243 147.741 74.5243 149.863C74.5243 150.924 74.1705 151.985 74.1705 153.045C73.8167 154.106 73.8167 155.521 73.4629 156.581C73.1091 157.642 72.7552 159.057 72.0476 160.117C71.3399 161.178 70.9861 162.593 69.9247 163.654C69.217 164.714 68.1555 165.775 67.0941 166.836C66.0326 167.543 64.9711 168.604 63.9097 169.311C62.8482 170.018 61.7867 170.372 60.3714 170.726C59.31 171.079 58.2485 171.079 57.187 171.433C56.1256 171.433 55.0641 171.433 54.3565 171.433C53.6488 171.433 52.9412 171.079 52.2335 171.079C51.1721 170.372 50.4644 170.372 50.4644 170.372Z" fill="#1A2E36"/>
<path d="M59.6637 134.658C59.6637 134.658 60.0175 136.426 59.6637 139.255C59.3099 140.669 59.3099 142.084 58.6022 143.852C58.2484 145.62 57.187 147.034 56.4793 148.802C55.7717 149.51 55.4178 150.217 54.7102 150.924C54.0025 151.631 53.6487 152.338 52.9411 152.692C52.2334 153.399 51.5258 153.753 50.8181 154.106C50.1105 154.46 49.4029 154.814 48.6952 155.167C47.2799 155.874 46.2185 155.874 45.5108 155.874C44.8032 155.874 44.4493 156.228 44.4493 156.228C44.4493 156.228 44.8032 156.228 45.5108 155.874C46.2185 155.521 47.2799 155.167 48.3414 154.46C49.049 154.106 49.4029 153.753 50.1105 153.399C50.8181 153.046 51.172 152.338 51.8796 151.985C52.5873 151.631 52.9411 150.924 53.6487 150.217C54.3564 149.51 54.7102 148.802 55.064 148.095C56.8331 145.266 57.8946 141.73 58.6022 139.255C59.3099 136.426 59.6637 134.658 59.6637 134.658Z" fill="#1A2E36"/>
<path d="M111.676 200.074C111.676 200.074 108.845 200.074 104.953 199.721C102.83 199.367 100.353 199.367 97.8765 198.66C95.3997 198.306 92.5691 197.599 90.0924 196.892C87.2618 196.185 84.785 195.478 82.3083 194.417C79.8315 193.71 77.7086 192.649 75.9395 191.588C74.878 191.234 74.1704 190.527 73.4627 190.173C72.7551 189.82 72.0474 189.113 71.6936 188.759C70.6321 188.052 70.2783 187.698 70.2783 187.698C70.2783 187.698 70.986 188.052 72.0474 188.759C72.4013 189.113 73.1089 189.466 73.8165 189.82C74.5242 190.173 75.2318 190.527 76.2933 190.881C78.0624 191.588 80.5392 192.649 82.6621 193.356C85.1389 194.063 87.6156 194.77 90.4462 195.478C92.923 196.185 95.7535 196.892 98.2303 197.246C100.707 197.599 103.184 198.306 104.953 198.66C108.845 199.367 111.676 200.074 111.676 200.074Z" fill="#1A2E36"/>
<path d="M35.9573 125.465C35.9573 125.465 36.3111 127.233 37.0187 129.709C37.7264 132.184 38.434 135.72 39.1417 139.256C39.4955 141.024 39.8493 142.792 40.2031 144.206C40.557 145.974 40.9108 147.389 41.2646 148.45C41.9723 150.925 42.3261 152.693 42.3261 152.693C42.3261 152.693 41.2646 151.278 40.2031 148.803C39.8493 147.389 39.1417 145.974 38.7879 144.56C38.434 142.792 37.7264 141.377 37.3726 139.609C37.0187 137.841 36.6649 136.073 36.3111 134.305C35.9573 132.537 35.9573 131.123 35.9573 129.709C35.9573 127.233 35.9573 125.465 35.9573 125.465Z" fill="#1A2E36"/>
<path d="M59.6634 54.0352C59.6634 54.0352 58.2481 54.7424 56.1252 55.096C54.0022 55.8032 50.8178 56.1568 47.9872 56.5104C46.5719 56.5104 44.8028 56.5104 43.3875 56.5104C41.9723 56.5104 40.557 56.1568 39.4955 56.1568C37.3726 55.8032 35.9573 55.096 35.9573 55.096C35.9573 55.096 37.3726 55.096 39.8493 55.096C41.9723 55.096 45.1567 55.096 47.9872 54.7424C49.4025 54.7424 50.8178 54.7424 52.2331 54.3888C53.6484 54.3888 55.0637 54.0352 56.1252 54.0352C58.2481 54.0352 59.6634 54.0352 59.6634 54.0352Z" fill="#1A2E36"/>
</svg>
