<svg width="188" height="188" viewBox="0 0 188 188" fill="none" xmlns="http://www.w3.org/2000/svg">
<path d="M97.9118 100.655C97.9118 100.655 63.6863 126.456 110.022 152.257C119.5 173.055 88.1707 150.151 85.8013 171.476C84.7482 180.69 122.133 186.482 127.135 167C131.611 149.098 122.396 149.624 131.874 129.089" fill="#CC314A"/>
<path d="M127.924 140.146C127.924 140.146 127.924 139.356 127.924 138.303C127.924 137.777 128.187 136.987 128.187 136.46C128.45 135.671 128.714 135.144 128.714 134.354C128.977 133.564 129.24 133.038 129.503 132.248C129.767 131.721 130.03 131.195 130.293 130.668C130.82 129.615 131.346 129.089 131.346 129.089C131.346 129.089 131.083 129.879 130.82 130.932C130.557 131.458 130.556 131.985 130.293 132.775C130.03 133.301 129.767 134.091 129.503 134.881C129.24 135.671 128.977 136.197 128.714 136.724C128.45 137.25 128.187 138.04 127.924 138.567C128.187 139.62 127.924 140.146 127.924 140.146Z" fill="#1A2E36"/>
<path d="M103.968 169.634C103.968 169.634 103.178 169.897 102.389 170.687C101.599 171.477 100.546 172.53 100.019 173.846C99.7559 174.373 99.4926 175.163 99.2293 175.952C98.9661 176.742 98.9661 177.269 98.9661 177.795C98.7028 178.848 98.7028 179.638 98.7028 179.638C98.7028 179.638 98.7028 179.375 98.7028 179.112C98.7028 178.848 98.4395 178.322 98.4395 177.795C98.4395 177.269 98.4395 176.479 98.4395 175.689C98.4395 174.899 98.7028 174.109 98.9661 173.32C99.2293 172.53 99.7559 172.003 100.282 171.213C100.809 170.687 101.336 170.16 101.862 169.897C103.178 169.634 103.968 169.634 103.968 169.634Z" fill="#1A2E36"/>
<path d="M92.9105 167.264C92.9105 167.264 92.6473 167.79 92.1207 168.58C91.5942 169.37 91.0676 170.423 90.5411 171.739C90.0145 172.793 89.7513 174.109 89.488 174.899C89.488 175.425 89.488 175.689 89.488 175.952C89.488 176.215 89.488 176.478 89.488 176.478C89.488 176.478 88.9614 175.952 88.9614 174.899C88.9614 174.372 88.6982 173.846 88.9614 173.056C88.9614 172.529 89.2247 171.739 89.488 171.213C89.7513 170.686 90.0145 169.897 90.5411 169.37C90.8043 168.843 91.3309 168.58 91.5942 168.054C92.384 167.527 92.9105 167.264 92.9105 167.264Z" fill="#1A2E36"/>
<path d="M4.18686 31.6781C5.76649 29.3086 7.6094 27.2024 9.97886 25.6228C17.0872 20.3573 26.5651 20.094 34.4632 16.6715C43.9411 12.7224 54.7352 8.24677 63.9498 3.50786C86.0647 -8.33942 112.392 11.406 111.602 39.0497C111.076 55.1093 121.343 49.8439 146.354 64.8504C171.628 79.857 175.314 100.392 172.945 113.556C204.538 115.136 234.287 72.4853 233.761 75.9079C226.916 140.41 152.146 147.781 132.401 141.463C117.657 136.987 107.39 132.512 98.9651 113.293C87.1178 86.7021 87.3811 73.8017 70.2683 63.7973C68.6887 63.0075 49.9963 70.1159 47.3636 70.9057C38.6756 72.7486 29.4611 74.3283 20.5098 73.0119C1.8174 70.3792 -5.29097 46.1581 4.18686 31.6781Z" fill="#CC314A"/>
<path d="M122.132 137.777C122.132 137.777 121.079 137.513 119.5 136.724C117.657 135.934 115.287 134.617 112.655 132.775C110.022 130.932 107.126 128.036 104.756 124.613C102.387 121.191 100.281 117.505 98.4379 113.292C96.595 109.343 95.0153 105.131 93.699 101.445C92.1193 97.4959 91.0662 94.0734 90.0132 90.9141C88.9601 87.7548 87.907 85.3854 87.3804 83.5425C86.5906 81.6996 86.3273 80.6465 86.3273 80.6465C86.3273 80.6465 88.4335 84.5956 90.803 90.6509C93.1724 96.7061 96.3317 104.868 99.7543 112.766C101.597 116.715 103.44 120.664 105.81 123.823C108.179 127.246 110.812 129.879 113.181 131.985C115.814 134.091 117.92 135.407 119.763 136.197C121.079 137.513 122.132 137.777 122.132 137.777Z" fill="#1A2E36"/>
<path d="M123.186 110.133C123.186 110.133 95.279 142.516 146.091 158.049C159.781 176.215 124.239 160.419 126.608 182.007C127.662 191.221 165.31 188.852 165.836 168.843C166.626 150.414 157.411 153.047 162.414 130.932" fill="#CC314A"/>
<path d="M123.188 110.132C123.188 110.132 122.661 110.658 122.134 111.711C121.345 112.765 120.555 114.344 119.502 116.187C118.975 117.24 118.449 118.293 118.185 119.346C117.659 120.399 117.395 121.716 117.132 123.032C116.606 124.349 116.606 125.665 116.342 126.981C116.342 128.298 116.079 129.877 116.342 131.194C116.342 131.983 116.342 132.51 116.606 133.3C116.869 134.09 116.869 134.616 117.132 135.406C117.395 136.722 118.185 138.039 118.712 139.092C119.238 140.408 120.028 141.198 120.818 142.251C121.345 143.304 122.398 144.094 122.924 144.884C123.714 145.674 124.241 146.463 125.03 146.99C125.82 147.517 126.347 148.043 126.873 148.57C127.926 149.359 128.453 149.886 128.453 149.886C128.453 149.886 127.926 149.359 126.873 148.833C126.347 148.57 125.82 148.043 125.03 147.517C124.241 146.99 123.451 146.463 122.661 145.674C121.871 144.884 120.818 144.094 120.292 143.041C119.502 141.988 118.712 140.935 118.185 139.882C117.659 138.565 116.869 137.512 116.606 135.933C116.342 135.143 116.342 134.616 116.079 133.826C116.079 133.037 115.816 132.247 115.816 131.72C115.553 130.141 115.816 128.824 115.816 127.245C116.079 125.928 116.342 124.349 116.606 123.032C116.869 121.716 117.395 120.399 117.922 119.346C118.449 118.293 118.975 117.24 119.502 116.187C121.345 112.238 123.188 110.132 123.188 110.132Z" fill="#1A2E36"/>
<path d="M161.096 142.252C161.096 142.252 160.833 141.462 160.833 140.409C160.833 139.882 160.833 139.093 160.833 138.566C160.833 137.776 160.833 137.25 161.096 136.46C161.36 135.67 161.36 135.143 161.623 134.354C161.886 133.564 161.886 133.037 162.149 132.511C162.413 131.458 162.939 130.668 162.939 130.668C162.939 130.668 162.939 131.458 162.939 132.511C162.939 133.037 162.939 133.564 162.676 134.354C162.676 135.143 162.413 135.67 162.413 136.46C162.413 137.25 162.149 137.776 162.149 138.566C162.149 139.356 161.886 139.882 161.886 140.409C161.096 141.725 161.096 142.252 161.096 142.252Z" fill="#1A2E36"/>
<path d="M92.6458 73.8014C92.6458 73.8014 86.5905 89.3345 72.9003 86.965C58.9469 84.5956 55.7876 96.7061 57.8938 99.0756C59.9999 101.445 61.5796 97.4959 63.6858 95.3898C60.7898 103.025 65.0021 107.764 68.4247 98.549C65.5287 106.184 71.0574 106.974 73.6901 100.655C88.1701 109.08 99.2276 95.653 102.124 84.8588" fill="#CC314A"/>
<path d="M74.7439 35.8904C81.1415 35.8904 86.3279 30.7041 86.3279 24.3064C86.3279 17.9087 81.1415 12.7224 74.7439 12.7224C68.3462 12.7224 63.1599 17.9087 63.1599 24.3064C63.1599 30.7041 68.3462 35.8904 74.7439 35.8904Z" fill="white"/>
<path d="M80.2716 35.8902C86.6693 35.8902 91.8556 30.7038 91.8556 24.3062C91.8556 17.9085 86.6693 12.7222 80.2716 12.7222C73.874 12.7222 68.6876 17.9085 68.6876 24.3062C68.6876 30.7038 73.874 35.8902 80.2716 35.8902Z" fill="#1A2E36"/>
<path d="M148.555 77.5052C150.028 75.7045 147.847 71.4833 143.683 68.0768C139.519 64.6702 134.949 63.3684 133.476 65.1691C132.003 66.9697 134.184 71.191 138.348 74.5975C142.512 78.004 147.082 79.3059 148.555 77.5052Z" fill="#EAAC4A"/>
<path d="M164.421 95.3517C166.436 94.1885 165.889 89.4687 163.199 84.8097C160.509 80.1508 156.695 77.3169 154.68 78.4801C152.665 79.6433 153.213 84.3631 155.903 89.0221C158.593 93.681 162.407 96.5149 164.421 95.3517Z" fill="#EAAC4A"/>
<path d="M146.651 91.4649C147.784 90.8106 147.406 88.0345 145.807 85.2643C144.207 82.4942 141.992 80.7789 140.859 81.4332C139.726 82.0875 140.103 84.8636 141.703 87.6338C143.302 90.404 145.518 92.1192 146.651 91.4649Z" fill="#EAAC4A"/>
<path d="M161.017 103.599C161.672 102.466 159.956 100.251 157.186 98.6514C154.416 97.0519 151.64 96.674 150.986 97.8073C150.331 98.9406 152.046 101.156 154.817 102.755C157.587 104.355 160.363 104.733 161.017 103.599Z" fill="#EAAC4A"/>
<path d="M4.45105 50.1058C4.45105 50.1058 4.45105 50.3691 4.71432 50.6324C4.9776 50.8957 5.24087 51.4222 5.76741 51.6855C6.29396 52.212 6.82051 52.7386 7.61032 53.2651C8.40014 53.7917 9.18996 54.3182 10.2431 55.108C14.1921 57.4775 20.2474 59.0571 26.3027 59.0571C32.358 59.0571 38.6765 57.7407 42.6256 55.6346C44.7318 54.5815 46.0482 53.2651 46.838 52.212C47.1012 51.6855 47.3645 51.1589 47.3645 50.8957C47.3645 50.6324 47.3645 50.3691 47.3645 50.3691C47.3645 50.3691 47.3645 50.6324 47.3645 50.8957C47.3645 51.1589 47.1012 51.6855 46.838 52.4753C46.3114 53.7917 44.7318 55.108 42.6256 56.4244C40.5194 57.7407 37.8867 58.5306 35.254 59.3204C32.358 60.1102 29.1987 60.3735 26.0394 60.3735C22.8801 60.3735 19.7209 59.8469 16.8249 59.3204C15.7718 58.5306 14.4554 58.004 13.1391 57.4775C11.8227 56.9509 10.7696 56.4244 9.71651 55.6346C8.66341 55.108 7.8736 54.3182 7.08378 53.5284C6.29396 53.0018 5.76741 52.212 5.50414 51.6855C4.71432 50.8957 4.45105 50.1058 4.45105 50.1058Z" fill="#1A2E36"/>
<path d="M126.346 64.588C117.658 61.4288 122.134 67.2208 126.346 71.4331C130.558 75.6455 130.032 65.9044 126.346 64.588Z" fill="#EAAC4A"/>
<path d="M121.344 59.5859C116.342 57.743 125.03 55.3735 127.926 57.743C130.822 59.8492 128.189 62.2186 121.344 59.5859Z" fill="#EAAC4A"/>
<path d="M143.72 176.216C143.72 176.216 143.194 176.743 142.404 177.532C141.614 178.322 141.087 179.639 140.824 181.218C140.561 182.008 140.561 182.535 140.561 183.324C140.561 184.114 140.561 184.641 140.561 185.167C140.561 186.22 140.824 187.01 140.824 187.01C140.824 187.01 140.824 186.747 140.561 186.484C140.561 186.22 140.298 185.694 140.034 185.167C139.771 184.641 139.771 183.851 139.771 183.061C139.771 182.271 139.771 181.482 139.771 180.692C140.034 179.902 140.298 179.112 140.561 178.586C140.824 177.796 141.614 177.532 141.877 177.006C142.93 176.479 143.72 176.216 143.72 176.216Z" fill="#1A2E36"/>
<path d="M132.4 176.216C132.4 176.216 132.137 176.743 131.874 177.796C131.61 178.586 131.084 179.902 130.82 181.218C130.557 182.535 130.557 183.588 130.557 184.641C130.557 185.167 130.557 185.431 130.82 185.694C130.82 185.957 130.82 186.22 130.82 186.22C130.82 186.22 130.294 185.694 130.031 184.904C129.767 184.378 129.767 183.851 129.767 183.061C129.767 182.535 129.767 181.745 129.767 180.955C130.031 180.165 130.031 179.639 130.294 179.112C130.557 178.586 130.82 178.059 131.084 177.532C131.874 176.743 132.4 176.216 132.4 176.216Z" fill="#1A2E36"/>
<path d="M84.4847 78.0118C84.4847 78.0118 85.2746 79.3282 86.3277 81.1711C86.8542 82.2242 87.3808 83.2773 87.9073 84.3304C88.4338 85.6467 88.9604 86.9631 89.7502 88.2795C90.2767 89.5958 90.8033 90.9122 91.3298 92.2286C91.8564 93.5449 92.1197 94.598 92.3829 95.6511C92.9095 97.7573 93.1728 99.0737 93.1728 99.0737C93.1728 99.0737 92.6462 97.7573 91.5931 95.9144C91.0666 94.8613 90.54 93.8082 90.0135 92.4918C89.4869 91.1755 88.9604 89.8591 88.4338 88.5428C87.9073 87.2264 87.3807 85.91 86.8542 84.5937C86.3277 83.2773 85.8011 82.2242 85.5378 81.1711C84.748 79.3282 84.4847 78.0118 84.4847 78.0118Z" fill="#1A2E36"/>
<path d="M99.4911 75.9077C99.4911 75.9077 99.4911 92.4939 85.5376 95.3899C71.5842 98.2859 73.1638 110.66 75.7965 111.976C78.6925 113.292 78.6925 109.08 80.0089 106.447C80.0089 114.872 85.5376 117.505 85.5376 107.764C85.5376 116.188 91.0664 114.609 91.0664 107.764C107.653 110.66 113.181 93.8103 111.865 82.7528" fill="#CC314A"/>
<path d="M87.382 113.293C87.9086 113.556 88.6984 113.556 89.2249 113.03C89.7515 112.766 90.0147 111.976 90.278 111.45C90.8046 110.134 90.8046 109.08 90.8046 107.764C90.8046 107.501 91.0678 107.501 91.0678 107.501L93.4373 107.764C94.2271 107.764 95.0169 107.764 95.8068 107.764C96.5966 107.764 97.3864 107.501 98.1762 107.501C98.966 107.501 99.7558 107.238 100.282 106.711C101.072 106.448 101.599 106.184 102.389 105.658C103.178 105.395 103.705 104.868 104.231 104.342C105.548 103.288 106.338 102.235 107.391 100.919C107.917 100.392 108.181 99.6026 108.707 98.8128C109.234 98.2863 109.497 97.4965 109.76 96.7066C110.023 95.9168 110.287 95.127 110.55 94.6005C110.813 93.8106 111.077 93.0208 111.077 92.231C111.34 91.4412 111.34 90.6514 111.603 89.8615C111.866 89.0717 111.866 88.2819 111.866 87.4921C112.13 85.9124 112.13 84.3328 111.866 82.7532C112.13 84.3328 112.13 85.9124 112.13 87.4921C112.13 88.2819 112.13 89.0717 112.13 89.8615C112.13 90.6514 111.866 91.4412 111.866 92.231C111.603 93.0208 111.603 93.8106 111.34 94.6005C111.077 95.3903 110.813 96.1801 110.55 96.9699C110.287 97.7597 110.023 98.5495 109.497 99.0761C108.97 99.8659 108.707 100.656 108.181 101.182C107.654 101.972 107.391 102.499 106.601 103.025C106.074 103.552 105.548 104.342 104.758 104.605C104.231 105.131 103.442 105.658 102.652 105.921C101.862 106.448 101.335 106.711 100.546 106.974C99.7558 107.238 98.966 107.501 98.1762 107.764C97.3864 108.027 96.5966 108.027 95.8068 108.027C95.0169 108.027 94.2271 108.027 93.4373 108.027L91.0678 107.764L91.3311 107.501C91.3311 108.817 91.0678 110.134 90.5413 111.45C90.278 111.976 89.7515 112.503 89.2249 113.03C88.6984 113.556 87.9086 113.556 87.382 113.293Z" fill="#1A2E36"/>
<path d="M99.4909 75.9072C99.4909 75.9072 99.7542 78.2767 98.9643 81.6992C98.7011 83.5421 97.9112 85.385 96.8582 87.4912C96.5949 88.0178 96.3316 88.5443 96.0683 89.0709C95.8051 89.5974 95.5418 90.124 95.0152 90.3872C94.2254 91.4403 93.4356 92.2301 92.3825 93.02C91.3294 93.8098 90.2763 94.3363 89.2232 94.8629C88.1702 95.3894 86.8538 95.6527 85.8007 95.916C83.6945 96.4425 81.8516 96.9691 80.272 97.7589C78.6923 98.5487 77.6392 99.6018 76.8494 100.392C76.0596 101.181 75.7963 101.708 75.7963 101.708C75.7963 101.708 76.0596 101.181 76.5861 100.392C77.1127 99.6018 78.1658 98.5487 79.7454 97.4956C81.3251 96.4425 83.168 95.6527 85.5374 95.1261C86.5905 94.8629 87.6436 94.5996 88.6967 94.0731C89.7498 93.5465 90.8029 93.02 91.5927 92.4934C92.3825 91.7036 93.4356 91.177 93.9622 90.124C94.4887 89.5974 94.752 89.3341 95.0152 88.8076C95.2785 88.281 95.5418 88.0178 95.8051 87.4912C96.8582 85.6483 97.648 83.8054 98.1745 81.9625C99.2276 78.2767 99.4909 75.9072 99.4909 75.9072Z" fill="#1A2E36"/>
<path d="M85.8007 104.868C85.8007 104.868 85.8007 105.395 86.064 105.921C86.064 106.185 86.064 106.448 86.064 106.974C86.064 107.238 86.064 107.764 86.064 108.027C86.064 108.817 86.064 109.607 86.064 110.134C86.064 110.66 85.8007 111.187 85.8007 111.187C85.8007 111.187 85.5375 110.923 85.2742 110.397C85.2742 110.134 85.0109 109.87 85.0109 109.344C85.0109 109.081 85.0109 108.554 85.0109 108.291C85.0109 108.027 85.0109 107.501 85.0109 107.238C85.0109 106.974 85.2742 106.448 85.2742 106.185C85.5375 105.395 85.8007 104.868 85.8007 104.868Z" fill="#1A2E36"/>
<path d="M80.274 103.817C80.274 103.817 80.274 104.344 80.5373 104.87C80.5373 105.134 80.8006 105.397 80.8006 105.924C80.8006 106.187 80.8006 106.713 81.0638 106.977C81.0638 107.766 81.0638 108.556 81.0638 109.083C81.0638 109.609 81.0638 110.136 81.0638 110.136C81.0638 110.136 80.8006 109.873 80.5373 109.346C80.5373 109.083 80.274 108.82 80.274 108.293C80.274 108.03 80.0107 107.503 80.0107 107.24C80.0107 106.713 80.0107 106.45 80.0107 106.187C80.0107 105.924 80.0107 105.397 80.274 105.134C80.0107 104.344 80.274 103.817 80.274 103.817Z" fill="#1A2E36"/>
<path d="M70.0044 95.6539C70.0044 95.6539 69.7412 96.1805 69.7412 96.707C69.7412 96.9703 69.4779 97.2336 69.4779 97.4968C69.2146 97.7601 69.2146 98.2867 68.9513 98.5499C68.6881 99.3397 68.4248 99.8663 68.1615 100.393C67.8982 100.919 67.635 101.183 67.635 101.183C67.635 101.183 67.3717 100.656 67.3717 100.13C67.3717 99.8663 67.3717 99.3397 67.3717 99.0765C67.3717 98.8132 67.635 98.2867 67.635 98.0234C67.8983 97.7601 67.8982 97.2336 68.1615 96.9703C68.4248 96.707 68.6881 96.4437 68.9513 96.1805C69.4779 95.9172 70.0044 95.6539 70.0044 95.6539Z" fill="#1A2E36"/>
<path d="M64.4778 92.7572C64.4778 92.7572 64.4778 93.2838 64.4778 93.8103C64.4778 94.0736 64.4778 94.6001 64.2145 94.8634C64.2145 95.1267 63.9512 95.6532 63.9512 96.1797C63.6879 96.9696 63.4247 97.7594 63.1614 98.2859C62.8981 98.8125 62.6349 99.339 62.6349 99.339C62.6349 99.339 62.3716 98.8125 62.3716 98.2859C62.3716 98.0227 62.3716 97.4961 62.3716 97.2328C62.3716 96.7063 62.6349 96.443 62.6349 95.9165C62.8981 95.3899 62.8981 95.1267 63.1614 94.8634C63.4247 94.6001 63.4247 94.0736 63.6879 93.8103C64.2145 93.0205 64.4778 92.7572 64.4778 92.7572Z" fill="#1A2E36"/>
<path d="M26.0385 41.9441C26.0385 41.9441 26.0385 40.6277 26.565 39.0481C26.8283 38.2583 27.0915 37.2052 27.6181 36.1521C27.8814 35.6255 28.4079 35.099 28.6712 34.5725C29.1977 34.0459 29.9875 33.7826 30.7774 34.0459C31.0406 34.0459 31.0406 34.0459 31.3039 34.3092C31.5672 34.5725 31.5672 34.8357 31.5672 35.099C31.5672 35.6255 31.5672 35.8888 31.3039 36.1521C31.0406 36.6786 30.7774 37.2052 30.2508 37.7317C29.461 38.5215 28.6712 39.3114 28.1446 39.8379C26.8283 41.1543 26.0385 41.9441 26.0385 41.9441ZM26.0385 41.9441C26.0385 41.9441 26.8283 41.1543 27.8814 39.5746C28.4079 38.7848 29.1977 37.995 29.7243 37.2052C29.9875 36.6786 30.2508 36.4154 30.5141 35.8888C30.5141 35.6255 30.7774 35.3623 30.5141 35.3623C30.7774 35.3623 30.2508 35.3623 30.2508 35.099C29.9875 35.099 29.461 35.099 29.1977 35.3623C28.9345 35.6255 28.4079 36.1521 28.1446 36.4154C27.6181 37.2052 27.0915 38.2583 26.8283 39.0481C26.3017 40.6277 26.0385 41.9441 26.0385 41.9441Z" fill="#1A2E36"/>
<path d="M11.557 41.945C11.557 41.945 10.2406 41.4184 8.66099 39.8388C8.13444 39.3123 7.87117 39.049 7.34462 38.5224C7.08135 37.9959 6.55481 37.4693 6.29153 36.6795C6.02826 35.8897 6.02826 35.0999 6.02826 34.3101C6.02826 33.5203 6.55481 32.7304 7.08135 31.9406C7.34462 31.4141 7.87117 31.1508 8.39772 31.4141C8.92426 31.6773 9.18753 31.9406 9.45081 32.4672C9.97735 33.257 9.97735 33.7835 10.2406 34.5733C10.7672 35.8897 10.7672 37.2061 11.0304 38.2592C11.557 40.3654 11.557 41.945 11.557 41.945ZM11.557 41.945C11.557 41.945 11.2937 40.6286 10.7672 38.2592C10.5039 37.2061 10.2406 35.8897 9.71408 34.5733C9.45081 34.0468 9.18753 33.257 8.92426 32.7304C8.66099 32.4672 8.66099 32.2039 8.39772 32.2039C8.39772 32.2039 8.13444 32.2039 8.13444 32.4672L7.87117 32.7304L7.6079 33.257C7.34462 33.5203 7.34462 33.7835 7.34462 34.0468C7.34462 34.5733 7.34462 35.3632 7.6079 35.8897C7.87117 37.2061 8.66099 38.2592 9.45081 39.049C10.2406 40.8919 11.557 41.945 11.557 41.945Z" fill="#1A2E36"/>
<path d="M68.6878 63.7975C68.6878 63.7975 70.0042 63.271 71.8471 62.4812C72.6369 61.9546 73.9533 61.4281 75.0064 60.9015C76.0594 60.375 77.3758 59.8484 78.4289 59.0586C79.7453 58.5321 80.7984 57.7422 81.8514 57.2157C82.9045 56.6891 83.9576 55.8993 84.7474 55.3728C85.5373 54.8462 86.3271 54.3197 86.5904 53.7931C87.1169 53.2666 87.3802 53.2666 87.3802 53.2666C87.3802 53.2666 87.1169 53.5299 86.8536 54.0564C86.5904 54.583 86.0638 55.1095 85.274 55.8993C84.4842 56.6891 83.6944 57.479 82.378 58.0055C81.3249 58.7953 80.0085 59.3219 78.9554 60.1117C76.586 61.4281 73.9533 62.2179 72.1104 63.0077C70.0042 63.5342 68.6878 63.7975 68.6878 63.7975Z" fill="#1A2E36"/>
<path d="M62.6317 9.56295C62.6317 9.56295 62.8949 9.0364 63.1582 8.24658C63.1582 7.72004 63.6847 7.19349 63.948 6.66695C64.2113 6.40367 64.2113 6.1404 64.4746 5.61385C64.7378 5.35058 65.0011 5.08731 65.2644 4.82404C65.7909 4.03422 66.5807 3.77094 67.3706 3.2444C68.1604 2.71785 69.2135 2.19131 70.2666 1.92803C71.3197 1.66476 72.3727 1.40149 73.4258 1.40149C74.4789 1.40149 75.7953 1.40149 76.8484 1.40149C77.9015 1.40149 78.9546 1.92803 80.0077 2.19131C81.0608 2.71785 82.1138 2.98113 82.9037 3.77094C83.4302 4.03422 83.6935 4.29749 84.22 4.56076C84.4833 4.82404 85.0099 5.35058 85.2731 5.61385C86.0629 6.1404 86.5895 6.93022 86.8528 7.72004C87.3793 8.24658 87.6426 9.0364 87.9059 9.82622C88.1691 10.3528 88.4324 10.8793 88.4324 11.4059C88.6957 12.4589 88.6957 12.9855 88.6957 12.9855C88.6957 12.9855 88.4324 12.4589 88.1691 11.6691C87.9058 11.1426 87.9059 10.616 87.3793 10.0895C87.116 9.56295 86.5895 8.77313 86.0629 8.24658C85.5364 7.72004 85.0098 6.93022 84.22 6.40367C84.4833 5.87713 84.22 5.61385 83.6935 5.08731C83.1669 4.82404 82.9037 4.56076 82.3771 4.29749C81.5873 3.77094 80.5342 3.50767 79.7444 2.98113C78.6913 2.71785 77.9015 2.45458 76.8484 2.45458C75.7953 2.19131 74.7422 2.19131 73.6891 2.19131C72.636 2.19131 71.5829 2.45458 70.7931 2.71785C69.74 2.98113 68.9502 3.50767 68.1604 3.77094C67.1073 4.29749 66.3175 4.56076 65.7909 5.08731C65.5277 5.35058 65.2644 5.61385 65.0011 5.87713C64.7378 6.1404 64.4746 6.40367 64.4746 6.66695C63.948 7.19349 63.6847 7.72004 63.4215 7.98331C62.8949 9.0364 62.6317 9.56295 62.6317 9.56295Z" fill="#1A2E36"/>
<path d="M122.133 136.722C122.133 136.722 122.923 135.932 124.239 134.879C125.029 134.353 125.819 133.826 126.609 133.563C127.662 133.036 128.452 132.773 129.505 132.51C130.558 132.247 131.611 131.983 132.664 131.983C133.717 131.983 134.77 132.247 135.56 132.51C137.14 133.036 137.929 133.826 137.929 133.826C137.929 133.826 137.666 133.826 137.14 133.563C136.613 133.3 136.087 133.3 135.297 133.036C134.507 133.036 133.717 132.773 132.664 133.036C131.611 133.036 130.558 133.3 129.768 133.563C127.662 134.089 125.819 134.879 124.503 135.669C123.186 136.196 122.133 136.722 122.133 136.722Z" fill="#1A2E36"/>
<path d="M126.345 142.252C126.345 142.252 127.135 142.516 128.188 142.516C129.241 142.779 130.82 142.779 132.4 142.252C133.19 142.252 133.98 141.989 134.506 141.726C135.033 141.462 135.823 141.199 136.349 140.936C136.876 140.673 137.402 140.409 137.665 140.146C137.929 139.883 138.192 139.883 138.192 139.883C138.192 139.883 138.192 140.146 137.929 140.409C137.665 140.673 137.402 141.199 136.876 141.462C136.349 141.726 135.823 142.252 135.033 142.516C134.243 142.779 133.453 143.042 132.663 143.305C131.873 143.305 131.084 143.569 130.294 143.569C129.504 143.569 128.714 143.305 128.188 143.042C126.871 142.779 126.345 142.252 126.345 142.252Z" fill="#1A2E36"/>
<path d="M126.345 137.778C126.345 137.778 126.871 137.515 127.398 137.515C127.661 137.515 127.924 137.251 128.451 137.251C128.714 137.251 129.241 136.988 129.504 136.988C129.767 136.988 130.294 136.988 130.557 136.725C130.82 136.725 131.347 136.725 131.61 136.462C132.137 136.462 132.663 136.198 132.663 136.198C132.663 136.198 132.4 136.462 131.874 136.988C131.347 137.251 130.557 137.778 129.767 137.778C129.241 137.778 128.978 137.778 128.451 137.778C128.188 137.778 127.661 137.778 127.398 137.778C126.608 138.041 126.345 137.778 126.345 137.778Z" fill="#1A2E36"/>
<path d="M91.0655 129.351C91.0655 129.351 91.3288 128.825 92.1186 128.298C92.9084 127.772 93.9615 127.508 95.2779 127.245C95.8044 127.245 96.5942 127.245 97.1208 127.508C97.6473 127.772 98.1739 128.035 98.4371 128.298C98.9637 128.561 98.9637 128.825 99.227 129.088C99.4902 129.351 99.4902 129.351 99.4902 129.351C99.4902 129.351 99.2269 129.351 98.9637 129.351C98.7004 129.351 98.4371 129.088 97.9106 129.088C97.6473 128.825 97.1208 128.825 96.5942 128.825C96.0677 128.825 95.5411 128.561 95.0146 128.825C94.488 128.825 93.9615 128.825 93.435 128.825C92.9084 128.825 92.3819 129.088 92.1186 129.088C91.592 129.088 91.0655 129.351 91.0655 129.351Z" fill="#1A2E36"/>
<path d="M91.0655 132.249C91.0655 132.249 91.592 132.513 92.3819 132.776C93.1717 133.039 94.2248 133.039 95.2779 132.776C96.331 132.776 97.384 132.513 98.1739 132.513C98.9637 132.513 99.4902 132.513 99.4902 132.513C99.4902 132.513 98.9637 132.776 98.1739 133.302C97.6473 133.566 97.384 133.829 96.8575 133.829C96.3309 134.092 95.8044 134.092 95.2779 134.092C94.7513 134.092 93.9615 134.092 93.435 134.092C92.9084 134.092 92.3819 133.829 91.8553 133.566C91.3288 133.039 91.0655 132.249 91.0655 132.249Z" fill="#1A2E36"/>
<path d="M89.2251 124.878C89.2251 124.878 89.7516 124.614 90.5415 124.614C90.8047 124.614 91.3313 124.351 91.8578 124.351C92.3844 124.351 92.9109 124.351 93.4375 124.351C93.964 124.351 94.4905 124.351 95.0171 124.351C95.5436 124.351 96.0702 124.351 96.3335 124.614C97.1233 124.878 97.6498 124.878 97.6498 124.878C97.6498 124.878 97.1233 125.141 96.3335 125.141C96.0702 125.141 95.5436 125.404 95.0171 125.404C94.4905 125.404 93.964 125.404 93.4375 125.404C92.9109 125.404 92.3844 125.404 91.8578 125.404C91.3313 125.404 90.8047 125.404 90.5415 125.141C89.7516 124.878 89.2251 124.878 89.2251 124.878Z" fill="#1A2E36"/>
</svg>
