<svg width="270" height="144" viewBox="0 0 270 144" fill="none" xmlns="http://www.w3.org/2000/svg">
<path d="M263.402 106.552C261.789 104.938 260.56 102.941 259.83 100.77C258.543 97.0055 258.946 92.4726 261.693 89.5914C262.288 88.9768 262.98 88.4389 263.787 88.1316C265.304 87.5554 267.167 87.9395 268.32 89.0728C268.339 87.8051 269.357 86.6718 270.26 85.7691C272.353 83.6754 275.522 82.5806 278.404 83.2528C281.285 83.9251 283.724 86.499 283.935 89.4762C284.127 92.3189 282.437 94.9311 280.612 97.1208C282.975 96.8903 285.165 99.0032 285.645 101.347C286.279 104.516 284.531 107.858 281.919 109.76C279.498 111.527 276.329 112.257 273.371 111.738C271.143 111.335 269.088 110.278 267.071 109.222C266.226 108.78 265.323 108.28 264.881 107.435" fill="white"/>
<path d="M262.423 128.006C262.903 129.446 262.73 131.041 262.173 132.443C261.616 133.845 260.694 135.094 259.657 136.188C258.082 137.879 256.257 139.338 254.24 140.452C253.011 141.144 251.705 141.893 250.437 142.431C251.397 136.265 256.929 130.541 262.423 128.006Z" fill="#2F1C3B"/>
<path d="M237.971 80.0273C237.837 80.3731 237.683 80.6996 237.51 81.0261L222.451 80.4499C227.157 81.0645 231.844 81.8521 236.492 82.8509C234.687 85.828 232.266 88.4211 229.731 90.8028C228.002 92.4163 226.197 93.9913 224.276 95.4127C221.76 92.2242 219.224 89.2662 216.727 86.0009C217.342 90.3418 218.053 94.6828 218.84 99.0045C214.422 101.521 209.621 103.192 204.55 103.384C202.456 103.461 200.247 103.249 198.346 102.424C200.113 96.6804 202.821 91.5519 206.317 86.6155C201.745 90.3226 198.365 95.2398 195.311 100.311C192.18 96.834 192.679 91.2254 194.178 86.6924C194.811 84.7716 195.618 82.8892 196.54 81.0837C199.882 79.4703 203.609 78.6059 207.354 78.5675C204.089 78.3178 200.823 78.5099 197.616 79.1438C198.384 77.8569 199.21 76.6084 200.113 75.4175C203.148 71.4031 206.855 68.0609 211.119 65.5639C211.58 68.0801 212.137 70.5771 213.251 72.9013C213.385 73.151 213.136 73.1509 213.385 73.2854C213.251 70.2122 213.404 67.1581 213.789 64.1041C215.306 63.3742 216.9 62.7404 218.533 62.2026C222.221 61.0117 226.715 60.5123 230.595 61.6071C227.561 64.7572 224.795 68.157 222.317 71.7488C225.236 67.8496 228.732 64.9493 232.727 62.3754C234.706 63.2974 236.434 64.738 237.683 66.8509C240.007 70.7884 239.757 75.84 237.971 80.0273Z" fill="white"/>
<path d="M204.569 81.1794C203.82 83.4075 203.608 86.1926 205.337 87.7868C206.413 88.7664 207.969 89.0353 209.428 88.9777C213.904 88.8048 217.937 86.1541 221.203 83.0809C222.759 81.6211 224.218 80.0077 225.044 78.0485C225.87 76.0893 225.985 73.7267 224.91 71.902C223.066 68.7904 218.936 68.752 215.959 69.7316C212.502 70.8456 209.544 72.9969 207.354 75.8973C206.144 77.4915 205.184 79.2778 204.569 81.1794Z" fill="#F3C24C"/>
<path d="M237.145 125.434C234.955 114.658 239.661 102.788 248.651 96.4301C250.091 100.925 250.13 105.381 248.458 109.799C246.211 115.657 241.659 121.112 237.145 125.434Z" fill="#2F1C3B"/>
<path d="M222.739 132.791C224.142 132.234 225.755 132.291 227.196 132.772C228.636 133.252 229.923 134.097 231.095 135.057C232.881 136.517 234.437 138.265 235.685 140.205C236.454 141.396 237.28 142.664 237.894 143.893C231.652 143.297 225.601 138.13 222.739 132.791Z" fill="#2F1C3B"/>
<path d="M152.925 122.994C152.476 123.226 151.351 122.299 150.451 120.446C149.327 118.593 148.427 115.349 147.977 111.411C147.752 109.327 147.752 107.242 147.977 104.694C148.202 102.377 148.877 99.5975 150.001 97.0493C151.126 94.5012 152.701 91.7215 155.4 89.6366C157.874 87.3202 161.248 85.9303 164.622 85.467C165.971 85.2353 167.321 85.2353 168.67 85.2353C170.02 85.2353 171.369 85.467 172.719 85.6986C179.242 86.8568 184.64 90.7949 188.014 95.1962C191.388 99.8291 192.737 105.157 192.737 109.095C192.737 113.265 191.838 116.508 190.713 118.593C189.588 120.677 188.689 121.372 188.239 121.141C187.114 120.677 188.914 116.276 188.014 109.558C187.564 106.315 186.214 102.377 183.515 99.1342C180.816 95.8911 176.543 93.1113 171.819 92.4164C170.919 92.1847 169.795 92.1847 168.895 92.1847C167.995 92.1847 167.096 92.1847 165.971 92.4164C163.497 92.8797 161.473 93.5746 159.898 94.9645C158.324 96.3544 156.974 98.2076 156.074 100.061C155.175 101.914 154.5 103.999 154.05 106.084C153.6 108.168 153.375 110.022 153.375 111.643C152.476 118.129 154.05 122.531 152.925 122.994Z" fill="#BCD88A"/>
<path d="M157.648 122.067C156.524 122.067 155.399 119.982 155.399 116.044C155.399 113.959 155.849 111.411 157.423 108.863C158.998 106.315 161.697 103.766 165.296 103.072C165.97 102.84 166.87 102.84 167.545 102.84C168.22 102.84 169.119 102.84 169.794 103.072C171.819 103.535 173.393 104.461 174.518 105.62C175.867 106.778 176.767 107.936 177.442 109.094C179.016 111.411 179.916 113.727 180.141 116.044C180.366 118.36 179.916 120.213 179.241 121.14C178.566 122.298 177.667 122.53 177.217 122.067C176.767 121.835 176.542 121.14 176.542 120.213C176.317 119.287 176.092 118.36 175.642 116.97C174.967 115.58 174.068 114.191 172.943 112.801C171.594 111.411 170.019 110.021 168.445 109.789C168.22 109.789 167.77 109.789 167.545 109.789C167.32 109.789 166.87 109.789 166.645 109.789C165.071 110.021 163.271 111.179 162.372 112.569C161.247 113.959 160.572 115.58 160.122 116.97C158.998 119.75 158.548 121.835 157.648 122.067Z" fill="#BCD88A"/>
<path d="M110.414 118.592C109.964 118.592 109.289 118.129 108.839 116.971C108.39 115.813 108.39 113.959 108.839 111.643C109.514 109.558 110.639 107.01 113.113 104.925C115.587 102.84 118.961 101.45 122.56 101.682C123.235 101.682 123.909 101.682 124.584 101.914C125.259 101.914 125.934 102.145 126.609 102.377C129.982 103.304 132.906 105.62 134.706 108.168C136.505 110.716 137.405 113.264 137.63 115.349C137.855 117.434 137.63 119.287 137.18 120.445C136.73 121.604 136.28 122.067 135.606 122.067C135.156 122.067 134.706 121.372 134.256 120.445C134.031 119.519 133.581 118.129 132.906 116.739C131.782 113.959 129.083 110.253 124.809 109.095C124.359 108.863 123.909 108.863 123.46 108.863C123.01 108.863 122.56 108.863 122.11 108.863C119.861 108.863 118.061 109.326 116.487 110.253C114.912 111.18 113.788 112.57 112.888 113.959C111.764 116.044 111.539 118.361 110.414 118.592Z" fill="#BCD88A"/>
<path d="M105.69 87.32C105.24 87.32 104.565 86.625 104.116 84.7718C103.666 82.9187 103.666 80.1389 104.116 76.8958C104.79 73.6528 106.14 69.7148 108.164 66.0084C109.289 64.1552 110.638 62.0704 112.438 59.9856C114.237 58.1324 116.711 56.2792 119.41 55.3526C120.535 54.8893 121.66 54.6577 122.784 54.426C123.909 54.1944 125.034 54.1944 126.158 54.1944C131.781 54.426 136.73 56.9741 140.104 59.9856C143.477 62.997 145.727 66.4717 147.076 69.4831C148.651 72.4945 149.101 75.2743 149.101 77.3591C148.876 79.444 148.426 80.3705 147.751 80.1389C146.626 79.9072 146.401 76.4325 143.028 72.0312C141.228 69.7148 139.204 67.1666 136.28 64.8502C133.356 62.5337 129.757 60.9121 125.933 60.9121C125.258 60.9121 124.359 60.9122 123.684 61.1438C123.009 61.3754 122.334 61.3754 121.435 61.6071C118.061 62.7653 115.362 65.7767 113.337 69.0198C111.313 72.2629 109.739 75.2743 108.614 78.0541C106.59 83.6136 106.59 87.32 105.69 87.32Z" fill="#BCD88A"/>
<path d="M118.737 87.0889C117.613 87.3205 116.263 85.4673 116.263 81.5293C116.263 79.6761 116.713 77.128 118.287 74.8115C118.962 73.6533 120.087 72.4951 121.436 71.5685C122.786 70.6419 124.36 69.9469 125.935 69.4836C126.61 69.252 127.284 69.252 127.959 69.252C128.634 69.252 129.309 69.252 129.984 69.252C131.783 69.4836 133.357 70.1786 134.707 71.3368C136.057 72.495 136.956 73.6533 137.631 75.0432C138.981 77.5913 139.205 79.6761 139.43 81.5293C139.43 83.3825 139.206 85.2357 138.531 86.1623C137.856 87.0888 137.181 87.5521 136.731 87.3205C135.832 86.8572 135.832 85.004 134.707 82.6875C134.257 81.5293 133.357 79.9078 132.458 78.5179C131.333 77.128 130.433 76.4331 129.084 76.4331C128.859 76.4331 128.409 76.4331 128.184 76.4331C127.959 76.4331 127.509 76.4331 127.284 76.6647C126.385 76.8964 125.71 77.128 125.035 77.5913C124.36 78.0546 123.911 78.5179 123.236 78.9812C122.111 80.1394 121.436 81.5293 120.987 82.9192C120.087 84.7724 119.862 86.8572 118.737 87.0889Z" fill="#BCD88A"/>
<path d="M46.5357 88.2473C46.0858 88.2473 45.411 87.3208 44.9612 85.4676C44.5113 83.6144 44.5113 80.603 45.1861 76.8966C45.8609 73.4219 47.6603 69.2522 50.8092 65.3142C52.3837 63.461 54.4081 61.6079 56.6573 60.218C57.7819 59.523 59.1315 58.8281 60.7059 58.3648C62.0555 57.9015 63.8549 57.6699 65.4294 57.4382C66.7789 57.4382 67.9036 57.4382 69.0282 57.9015C70.1528 58.1332 71.2775 58.3648 72.4021 58.8281C78.0252 60.9129 82.2988 65.0826 84.773 69.4839C85.8976 71.8004 86.7973 74.1168 87.0222 76.4333C87.2471 78.7498 87.0222 80.8346 86.7973 82.6878C85.8976 86.3942 84.0982 88.9423 82.5237 90.3322C80.9492 91.722 79.8246 91.9537 79.5996 91.4904C78.9249 90.5638 81.624 87.784 82.0738 81.7612C82.2988 78.9814 81.624 75.5067 79.5996 72.4953C77.5753 69.4839 74.4264 66.4725 70.3778 65.0826C69.4781 64.8509 68.8033 64.6193 67.9036 64.3876C67.0039 64.156 66.3291 64.156 65.6543 64.156C62.0555 64.156 58.2318 66.7041 55.5327 69.4839C52.8336 72.2637 51.0342 75.5067 49.9096 78.2865C47.6603 84.0777 47.6603 88.2473 46.5357 88.2473Z" fill="#BCD88A"/>
<path d="M56.6565 87.7818C56.2067 88.0135 55.5319 87.5502 55.082 86.6236C54.6322 85.697 54.1824 84.3071 54.4073 82.2223C54.6322 80.3691 55.5319 78.0526 57.1064 76.1994C58.6808 74.3463 61.155 72.7247 64.0791 72.0298C64.7538 71.7981 65.4286 71.7981 66.1034 71.7981C66.7781 71.7981 67.6778 71.7981 68.3526 72.0298C74.6505 73.883 77.3497 79.4425 77.1248 83.3805C77.1248 85.2337 76.45 86.6236 75.7752 87.5502C75.1004 88.4768 74.4256 88.7084 73.9758 88.2451C73.0761 87.7818 73.0761 85.9286 72.1764 83.8438C71.7265 82.6856 71.2767 81.759 70.1521 80.6007C69.7022 80.1374 69.0274 79.6742 68.5776 79.2109C67.9028 78.7476 67.228 78.5159 66.7782 78.5159C66.5533 78.5159 66.3283 78.5159 66.3283 78.5159C66.1034 78.5159 65.8785 78.5159 65.6536 78.5159C64.0791 78.7476 62.7295 79.6741 61.6049 80.6007C60.4802 81.5273 59.8055 82.4539 59.1307 83.6122C57.7812 85.697 57.5562 87.5502 56.6565 87.7818Z" fill="#BCD88A"/>
<path d="M2.00031 83.3805C1.55046 83.3805 0.875722 82.9172 0.425871 81.5273C-0.0239791 80.1374 -0.248904 78.0526 0.425871 75.5045C0.875722 72.9564 2.22526 70.1766 4.69944 67.3968C7.17362 64.8487 10.9974 62.7639 15.046 62.5322C15.9457 62.5322 16.6205 62.5322 17.5202 62.5322C18.4199 62.5322 19.0946 62.5322 19.9943 62.7639C24.043 63.4588 27.6418 65.7753 29.8911 68.3234C32.1404 71.1032 33.2649 74.1146 33.7148 76.6627C34.1646 79.2109 33.7148 81.2957 33.265 82.6856C32.8151 84.0755 32.1403 84.5388 31.4655 84.5388C30.3409 84.3071 30.3409 81.5273 28.7665 78.0526C28.0917 76.4311 26.9671 74.3463 25.1677 72.7247C23.5932 71.1032 21.3439 69.945 18.6448 69.4817C18.195 69.4817 17.5202 69.25 17.0703 69.25C16.6205 69.25 15.9457 69.25 15.4958 69.25C12.7967 69.4817 10.5475 70.4083 8.74807 72.0298C6.94866 73.4197 5.59915 75.2728 4.92438 77.126C3.12497 80.6007 3.12493 83.1489 2.00031 83.3805Z" fill="#BCD88A"/>
<path d="M21.7938 106.547C20.8941 106.084 20.8941 103.536 22.4685 99.5977C23.3682 97.7445 24.4929 95.428 26.967 93.1116C28.0917 91.9533 29.6661 91.0267 31.2406 90.3318C33.04 89.6368 34.8395 89.4052 36.6389 89.4052C37.3136 89.4052 38.2133 89.6369 38.8881 89.6369C39.5629 89.8685 40.2377 89.8685 40.9124 90.1001C44.2863 91.2584 47.2103 93.1116 49.2346 95.428C51.259 97.7445 52.6085 100.061 53.2833 102.377C53.9581 104.694 53.7332 106.547 53.5083 107.705C53.0584 108.864 52.6085 109.559 51.9338 109.559C50.8091 109.327 50.5842 107.242 48.7848 104.462C47.2103 101.683 43.8364 98.2078 39.113 96.8179C38.6631 96.5863 38.2133 96.5863 37.7635 96.5863C37.3136 96.5863 36.8638 96.3546 36.4139 96.3546C34.1647 96.123 32.3653 96.8179 30.7908 97.9762C29.2163 99.1344 27.8667 100.756 26.7421 102.146C24.4928 105.157 22.9184 107.01 21.7938 106.547Z" fill="#BCD88A"/>
<path d="M71.7273 124.385C70.6026 124.153 70.1528 122.3 71.0525 119.057C71.5024 117.435 72.627 115.582 74.6513 114.192C76.6757 112.571 79.5997 112.107 82.2988 112.339C82.7486 112.339 83.4234 112.571 83.8733 112.571C84.3231 112.571 84.7729 112.802 85.2228 113.034C87.472 113.729 89.7213 114.887 91.2958 116.509C92.8703 118.13 93.9949 120.215 94.4447 121.837C94.8946 123.69 94.4448 125.08 93.9949 126.006C93.5451 126.933 92.8703 127.164 92.4204 126.933C91.5207 126.47 91.0708 125.08 89.9462 123.458C89.2714 122.763 88.5966 121.837 87.472 121.142C86.3474 120.447 84.9979 119.752 83.1985 119.288C82.9735 119.288 82.5237 119.057 82.2988 119.057C82.0738 119.057 81.624 119.057 81.3991 118.825C79.8246 118.594 78.7 118.825 77.8003 119.288C76.9006 119.752 76.0008 120.447 75.1011 121.373C73.7516 123.226 72.8519 124.616 71.7273 124.385Z" fill="#BCD88A"/>
<path d="M160.347 66.472C159.897 66.472 158.998 65.0821 159.897 62.7656C160.347 61.6074 161.022 60.2175 162.147 59.0593C163.496 57.901 165.071 56.9745 167.095 56.9745C167.545 56.9745 167.77 56.9745 168.22 56.9745C168.669 56.9745 168.894 56.9745 169.344 56.9745C171.144 57.2061 172.943 58.1327 174.293 59.0593C175.642 59.9859 176.317 61.1441 176.992 62.3024C178.116 64.3872 177.891 66.0087 177.441 66.0087C176.992 66.2404 176.317 65.0821 174.967 63.6922C173.618 62.3024 171.818 60.6808 169.119 60.4492C168.894 60.4492 168.669 60.4492 168.444 60.4492C168.219 60.4492 167.995 60.4492 167.77 60.4492C165.071 60.6808 163.271 62.3023 162.371 63.9239C161.022 65.0821 160.797 66.2404 160.347 66.472Z" fill="#BCD88A"/>
<path d="M88.1472 61.6056C87.6973 61.6056 86.7976 60.2157 87.6973 57.8993C88.1472 56.741 88.8219 55.3511 89.9466 54.1929C91.2961 53.0347 92.8706 52.1081 94.895 52.1081C95.3448 52.1081 95.5697 52.1081 96.0196 52.1081C96.4694 52.1081 96.6944 52.1081 97.1442 52.1081C98.9436 52.3397 100.743 53.2663 102.093 54.1929C103.442 55.1195 104.117 56.2777 104.792 57.436C105.916 59.5208 105.691 61.1423 105.242 61.1423C104.792 61.374 104.117 60.2157 102.767 58.8259C101.418 57.436 99.6184 55.8144 96.9193 55.5828C96.6943 55.5828 96.4694 55.5828 96.2445 55.5828C96.0196 55.5828 95.7946 55.5828 95.5697 55.5828C92.8706 55.8144 91.0712 57.436 90.1715 59.0575C88.822 60.2157 88.597 61.6056 88.1472 61.6056Z" fill="#BCD88A"/>
<path d="M25.168 60.9108C24.7182 60.9108 23.8185 59.5209 24.7182 57.2044C25.168 56.0462 25.8428 54.6563 26.9674 53.4981C28.317 52.3398 29.8915 51.4132 31.9158 51.4132C32.3657 51.4132 32.5906 51.4132 33.0404 51.4132C33.4903 51.4132 33.7152 51.4132 34.1651 51.4132C35.9645 51.6449 37.7638 52.5715 39.1134 53.4981C40.4629 54.4247 41.1377 55.5829 41.8125 56.7411C42.9371 58.826 42.7122 60.4475 42.2624 60.4475C41.8125 60.6791 41.1377 59.5209 39.7882 58.131C38.4386 56.7411 36.6392 55.1196 33.9401 54.888C33.7152 54.888 33.4903 54.888 33.2654 54.888C33.0404 54.888 32.8155 54.888 32.5906 54.888C29.8914 55.1196 28.0921 56.7411 27.1924 58.3627C25.8428 59.5209 25.8428 60.9108 25.168 60.9108Z" fill="#BCD88A"/>
<path d="M138.98 47.4766C138.755 47.7083 138.306 47.7083 137.856 47.245C137.406 46.7817 136.956 45.6234 136.956 44.4652C136.731 42.3804 136.731 39.6006 137.181 35.8942C137.631 32.1879 138.53 27.7866 140.78 22.922C141.904 20.6055 143.704 18.289 145.728 16.2042C147.752 14.1194 150.451 12.2662 153.825 11.3396C155.175 10.8763 156.524 10.6447 157.649 10.6447C158.999 10.6447 160.348 10.6447 161.698 10.8763C168.221 12.0345 173.169 15.9726 176.318 20.6055C179.242 25.2385 180.142 30.1031 180.367 33.8094C180.591 37.7474 179.917 40.7589 179.242 42.612C178.567 44.6969 177.892 45.6234 177.218 45.3918C176.093 45.1601 176.543 40.7588 175.418 34.2727C174.743 31.0296 173.619 27.3233 171.145 24.0802C168.67 20.8372 164.847 18.0574 160.573 17.5941C159.673 17.3624 158.774 17.3624 158.099 17.3624C157.199 17.3624 156.525 17.5941 155.625 17.8257C151.576 18.984 148.202 22.4587 145.953 25.9334C143.704 29.6398 142.579 33.3461 141.679 36.8208C140.78 40.0639 140.105 43.0753 139.43 44.6968C139.205 45.6234 138.98 46.0867 138.98 46.55C139.205 47.0133 139.205 47.245 138.98 47.4766Z" fill="#BCD88A"/>
<path d="M151.125 46.5495C150.676 46.7812 150.001 46.3179 149.326 45.3913C148.651 44.4647 148.201 42.8431 148.201 40.99C148.201 39.1368 148.651 36.5887 150.001 34.2722C150.676 33.1139 151.35 31.9557 152.475 30.7975C153.6 29.6392 154.949 28.7126 156.749 28.0177C157.423 27.7861 158.323 27.7861 158.998 27.7861C159.673 27.7861 160.572 27.7861 161.247 28.0177C164.846 28.7126 167.32 31.0291 168.67 33.5772C170.019 35.8937 170.469 38.4419 170.469 40.295C170.469 44.0014 169.344 45.8546 168.445 45.8546C167.32 45.8546 166.87 43.7697 165.745 41.2216C165.296 39.8317 164.621 38.4418 163.721 37.2836C162.822 36.1254 161.472 35.1988 160.122 34.9671C159.898 34.9671 159.673 34.9671 159.448 34.9671C159.223 34.9671 158.998 34.9671 158.773 34.9671C157.648 35.1988 156.299 36.357 155.399 37.7469C154.499 39.1368 153.825 40.5267 153.375 41.6849C152.025 44.233 152.025 46.0862 151.125 46.5495Z" fill="#BCD88A"/>
<path d="M68.3534 49.097C67.2288 49.3286 65.6543 43.7691 66.1041 34.5032C66.3291 29.8703 67.2288 24.3107 69.2532 18.2879C70.1529 15.2765 71.5024 12.265 73.5267 9.02197C74.6513 7.40044 76.0009 6.01055 77.5753 4.62066C79.1498 3.46243 81.1742 2.30418 83.1985 1.84088C84.773 1.37759 86.3475 1.14595 87.9219 0.914307C89.4964 0.914307 91.0709 0.914303 92.6454 1.14595C96.694 1.84089 100.293 3.92571 102.992 6.24219C105.691 8.79031 107.94 11.5701 109.29 14.5815C110.864 17.5929 111.539 20.6043 112.214 23.3841C112.664 26.1639 112.889 28.9437 112.664 31.2601C112.439 35.8931 111.539 39.5994 110.639 42.1476C109.74 44.464 109.065 45.8539 108.39 45.6223C107.94 45.3906 107.715 44.0008 107.715 41.6843C107.715 39.1362 107.94 35.6614 107.49 31.4918C107.041 27.3221 106.366 22.2259 103.667 17.5929C101.193 12.96 96.9189 8.79032 91.2958 7.86373C90.1712 7.63209 89.0466 7.63207 87.9219 7.63207C86.7973 7.63207 85.6727 7.86373 84.773 8.09538C82.0739 8.79032 80.0495 10.4119 78.475 12.7283C76.9006 14.8132 75.776 17.5929 74.6513 20.3727C72.627 25.7006 71.2774 30.7968 70.6027 34.9665C69.478 43.7691 69.478 49.097 68.3534 49.097Z" fill="#BCD88A"/>
<path d="M80.4995 43.0756C79.3749 43.0756 78.4752 41.2225 78.7001 37.9794C78.925 36.3579 79.3749 34.273 81.1743 32.1882C82.074 31.2616 83.1986 30.335 84.5482 29.6401C85.8977 28.9451 87.4722 28.7135 89.0467 28.9451C89.7215 28.9451 90.1713 29.1768 90.8461 29.1768C91.5208 29.4084 91.9707 29.4084 92.6455 29.6401C95.3446 30.7983 97.3689 32.8831 98.4936 34.968C99.6182 37.0528 100.293 38.906 100.293 40.5275C100.518 42.149 100.068 43.7706 99.6182 44.6972C99.1683 45.6237 98.4935 45.8554 98.0437 45.6237C97.144 45.1604 96.6941 43.7706 95.7944 41.6857C94.8947 39.8326 92.8704 36.8211 90.3962 35.8946C90.1713 35.8946 89.9464 35.6629 89.7214 35.6629C89.4965 35.6629 89.2716 35.6629 89.0467 35.6629C87.6971 35.4313 86.7975 35.8945 86.1227 36.3578C85.223 37.0528 84.5482 38.211 83.8734 39.1376C82.299 41.4541 81.3993 43.0756 80.4995 43.0756Z" fill="#BCD88A"/>
<path d="M2.67465 43.3056C1.99988 43.3056 1.55 42.379 1.10015 40.5258C0.650299 38.6727 0.200476 35.8929 0.425401 32.1865C0.650326 28.7118 1.3251 24.0789 3.79928 19.4459C5.14883 17.1294 6.72329 15.0446 9.19747 13.1914C11.4467 11.3382 14.5957 10.18 17.7446 9.7167C18.4194 9.7167 19.0942 9.7167 19.769 9.7167C20.4438 9.7167 21.1185 9.94834 21.5684 9.94834C22.9179 10.18 24.0426 10.4116 25.1672 10.8749C31.0152 13.1914 35.0639 17.3611 37.5381 21.994C40.0122 26.627 40.687 31.0283 40.687 34.7346C40.687 38.441 40.0122 41.2208 39.3374 43.074C38.6627 44.9271 37.763 45.8537 37.3131 45.6221C36.1885 45.3904 36.8633 41.2208 35.7386 35.1979C35.2888 32.1865 34.1642 28.4802 32.1399 25.2371C30.1156 21.994 26.7417 18.751 22.9179 17.3611C22.2432 17.1294 21.3435 16.8978 20.6687 16.6661C20.2188 16.6661 19.9939 16.6661 19.5441 16.4345C19.0942 16.4345 18.8693 16.4345 18.4194 16.4345C14.5957 16.6661 11.2218 19.4459 9.19747 22.4573C6.94822 25.7004 6.04849 29.1751 5.37372 32.4182C4.69894 35.4296 4.47407 38.2093 4.02422 40.0625C3.57437 42.379 3.34943 43.3056 2.67465 43.3056Z" fill="#BCD88A"/>
<path d="M11.6717 44.6977C11.2219 44.9293 10.5471 44.4661 10.0972 43.7711C9.64739 42.8445 9.19756 41.6863 9.42249 39.8331C9.64742 38.2116 10.0973 36.1267 11.6717 34.0419C13.2462 32.1887 15.4955 30.5672 18.1946 29.8723C18.6444 29.8723 19.3192 29.6406 19.7691 29.6406C20.2189 29.6406 20.8937 29.6406 21.3435 29.6406C24.2675 29.8723 26.7417 31.2621 28.3162 32.8837C29.8907 34.5052 30.7903 36.59 31.2402 38.2116C31.4651 40.0648 31.4652 41.223 30.7904 42.3812C30.3405 43.5395 29.4408 43.5395 28.9909 43.3078C28.5411 43.0762 28.3162 42.6129 28.0913 42.1496C27.6414 41.6863 27.1915 40.7597 26.7417 40.0648C25.6171 38.4432 23.5928 36.59 20.8937 36.3584C20.6688 36.3584 20.4438 36.3584 19.9939 36.3584C19.769 36.3584 19.5441 36.3584 19.0942 36.3584C17.7447 36.59 16.6201 37.0533 15.7204 37.9799C14.8207 38.6749 14.1459 39.8331 13.6961 40.7597C13.0213 42.8445 12.7964 44.4661 11.6717 44.6977Z" fill="#BCD88A"/>
</svg>
