<svg width="277" height="184" viewBox="0 0 277 184" fill="none" xmlns="http://www.w3.org/2000/svg">
<path d="M53.434 0.0546988C49.634 -0.175509 45.834 0.284901 42.4811 2.12657C35.7752 5.80989 32.4223 14.0974 25.7165 18.0109C19.9048 21.464 12.3049 21.2338 6.94021 25.3776C0.457912 30.212 -0.659698 40.3411 2.91674 47.7078C6.49318 55.0744 14.0931 59.4484 21.9166 61.0598C35.7753 63.8223 45.1634 60.8296 58.5751 67.2754C70.8691 73.2608 83.6102 84.0806 98.1395 80.1671C106.186 78.0952 111.551 71.8796 118.704 67.9661C126.751 63.5921 133.233 65.4338 141.727 63.8223C154.692 61.5202 166.986 49.7796 167.88 35.7369C168.104 32.2838 167.657 28.6005 166.092 25.3776C162.292 17.5505 152.68 14.788 144.186 13.4068C131.445 11.5651 120.716 1.66615 108.198 0.515108C93.8925 -0.86614 79.8102 3.96823 65.0574 1.66615C61.2574 0.975524 57.2339 0.284907 53.434 0.0546988Z" fill="#C8D5ED"/>
<path d="M206.214 94.5018C181.903 90.0704 179.321 116.216 160.819 124.636C153.289 128.181 146.189 126.408 141.025 135.05C134.571 145.464 138.874 161.195 149.846 166.735C164.046 174.047 181.042 163.633 196.747 165.848C215.25 168.286 230.74 187.784 248.812 183.131C259.354 180.251 266.884 169.615 277.426 167.621C283.665 166.513 289.904 168.507 296.359 168.729C309.698 169.393 323.682 161.638 328.2 148.566C332.718 135.714 325.833 119.096 312.71 115.551C304.104 113.336 294.853 116.659 285.817 115.773C273.984 114.443 263.872 105.58 252.254 103.586C244.724 102.257 236.764 103.808 229.234 102.257C221.274 100.927 214.174 96.0529 206.214 94.5018Z" fill="#C8D5ED"/>
</svg>
