<svg width="174" height="232" viewBox="0 0 174 232" fill="none" xmlns="http://www.w3.org/2000/svg">
<path d="M130.923 67.5386C126.985 58.8689 123.289 45.4776 134.196 39.4941C142.173 35.1446 153.876 42.4129 161.213 45.6255C180.766 54.3562 198.844 66.0728 214.591 80.5369C216.232 81.9964 217.763 83.6478 218.886 85.5753C223.01 94.3527 211.101 110.247 207.974 118.676C203.411 130.881 198.552 143.171 192.574 154.815C185.157 168.953 174.017 182.223 158.905 187.314C156.715 188.096 154.449 188.578 152.253 188.078C145.556 186.77 143.884 177.618 145.717 171C147.661 164.191 151.876 158.182 152.183 151.195C152.284 148.439 151.715 145.552 150.033 143.302C146.483 138.694 139.604 138.56 134.11 140.761C115.141 148.23 107.622 174.591 88.3505 180.863C83.1889 182.488 77.0907 182.293 73.3946 178.368C63.988 168.844 77.1212 152.121 80.5405 142.326C80.9081 141.259 81.2757 140.192 80.9736 138.994C80.4448 136.897 77.4688 136.458 75.3135 136.749C66.8787 138.02 59.7985 143.398 52.6025 147.687C40.6578 154.607 26.0644 159.229 13.7371 153.903C7.89065 151.551 2.51261 145.376 4.42119 139.058C5.4485 135.558 8.33896 133.133 11.1942 131.2C20.5002 124.547 31.3421 120.829 41.9623 117.494C50.2058 114.834 62.3216 113.641 68.43 106.934C70.4291 104.762 71.9046 101.776 71.6327 98.8051C71.4313 94.851 68.2589 91.7401 65.0159 89.612C61.7729 87.4838 58.1976 85.9313 55.5841 83.1431C52.9706 80.355 51.3542 75.8399 53.5347 72.4935C54.9749 69.9989 58.0568 68.9638 60.917 68.3126C76.2205 64.6113 90.1089 69.8155 103.519 76.2784C109.33 79.1218 115.771 81.3052 122.282 82.5059C125.258 82.9449 128.717 83.4072 131.2 81.2586C134.534 78.0663 132.837 71.9695 130.923 67.5386Z" fill="#9CB86E"/>
<path d="M206.875 94.7604C207.358 94.7836 207.62 95.1907 207.771 95.7896C207.922 96.3885 207.479 97.1561 206.774 97.5166C182.114 104.515 156.553 109.202 131.773 113.828C94.6948 120.82 56.2423 128.042 20.3831 142.391C19.6781 142.751 18.9328 142.321 18.5954 141.614C18.2581 140.908 18.7012 140.14 19.4062 139.78C55.3762 125.24 93.9395 117.826 131.204 110.941C155.984 106.315 181.359 101.52 206.019 94.522C206.391 94.7371 206.689 94.6528 206.875 94.7604Z" fill="#BCD88A"/>
<path d="M111.715 128.345C111.902 128.453 112.088 128.56 112.274 128.668C112.722 129.182 112.949 130.081 112.43 130.549C102.51 141.707 93.8586 154.11 86.8085 167.182C86.4762 167.758 85.5849 168.011 85.0259 167.688C84.467 167.365 84.2403 166.467 84.5727 165.891C91.7335 152.628 100.682 140.14 110.527 128.682C110.748 128.298 111.343 128.13 111.715 128.345Z" fill="#BCD88A"/>
<path d="M180.106 113.589C180.776 113.72 181.41 114.342 181.264 115.025C178.958 133.65 172.411 151.873 162.36 167.561C162.027 168.137 161.136 168.39 160.391 167.96C159.832 167.637 159.605 166.739 160.048 165.971C169.803 150.367 176.314 132.635 178.585 114.502C178.62 114.01 179.436 113.458 180.106 113.589Z" fill="#BCD88A"/>
<path d="M146.891 62.6862C147.077 62.7938 147.077 62.7938 147.263 62.9013C159.525 70.4924 170.679 80.0024 179.869 91.1928C180.317 91.7074 180.247 92.6901 179.728 93.1582C179.209 93.6263 178.242 93.5798 177.794 93.0652C168.68 82.1742 158.009 72.6875 145.823 65.3959C145.264 65.0732 145.037 64.1748 145.37 63.5992C145.813 62.8316 146.407 62.663 146.891 62.6862Z" fill="#BCD88A"/>
<path d="M76.1138 85.0182C76.1138 85.0182 76.3001 85.1257 76.1138 85.0182C88.5871 89.6611 100.401 96.7376 110.14 105.686C110.588 106.201 110.814 107.099 110.296 107.568C109.777 108.036 108.886 108.289 108.438 107.774C99.0713 99.0403 87.444 92.0714 75.5296 87.7511C74.8598 87.6203 74.4469 86.6143 74.7793 86.0387C74.739 85.2479 75.444 84.8873 76.1138 85.0182Z" fill="#BCD88A"/>
</svg>
