<svg width="172" height="199" viewBox="0 0 172 199" fill="none" xmlns="http://www.w3.org/2000/svg">
<path d="M90.3466 140.424C91.7543 140.424 93.1619 141.459 94.9717 143.737C96.9825 146.429 97.3847 149.95 97.7869 153.471C98.5912 160.098 100.2 166.725 102.412 173.145C103.216 175.423 104.021 177.701 105.83 179.151C109.852 182.257 115.684 179.151 119.504 175.63C129.157 167.139 137.401 156.784 148.461 150.779C155.7 146.844 163.543 144.98 171.385 143.116C164.548 127.998 157.711 112.672 147.657 99.6253C142.831 93.4123 135.591 87.1994 127.95 89.2704C124.934 90.0988 122.521 92.1698 119.706 93.6194C116.89 95.0691 113.472 95.8975 110.858 94.2407C107.64 92.1698 107.238 87.1994 109.249 83.8858C111.26 80.5723 114.879 78.7084 118.7 77.88C122.722 76.8445 128.956 76.0161 129.559 70.6316C129.961 67.318 127.146 61.9334 125.738 58.827C122.32 51.1643 117.292 43.9159 112.265 37.0817C105.629 27.9694 91.151 10.366 79.0857 21.1351C68.8302 30.2474 75.8683 45.5727 65.6128 54.4779C62.9986 56.756 59.178 58.2057 56.5638 56.1347C54.3519 54.4779 54.1508 51.1643 54.3519 48.265C55.3573 36.8746 61.1889 26.3126 67.2215 16.579C68.428 14.7151 69.6346 12.437 68.6291 10.366C68.0259 8.91634 66.6182 8.29504 65.2106 7.46665C54.9551 2.4963 43.4931 -0.195975 32.0311 0.011123C25.7973 0.011123 17.1506 1.87501 12.9277 7.05246C11.319 9.12344 10.9168 12.0228 10.9168 14.7151C10.9168 20.5138 12.5255 26.3126 12.1233 32.1113C11.9223 34.5965 10.7157 37.4959 8.50376 37.4959C7.49831 37.4959 6.49287 36.8746 5.68852 36.2533C2.06893 33.1468 -0.14304 28.3836 -0.746304 23.6203C-1.34957 18.857 -0.545212 13.8867 0.460228 9.12344C-7.78439 10.9873 -19.0453 18.65 -19.8497 28.1765C-19.8497 31.6971 -14.6214 69.8032 -11.0018 68.3535C-19.0453 71.46 -27.0889 74.5664 -33.7248 80.1581C-40.3607 85.5426 -45.589 94.0336 -46.7955 102.732C-48.002 111.016 -43.5781 121.578 -41.165 129.447C-37.9476 139.802 -33.9259 150.157 -25.8823 157.406C-22.2627 160.719 -17.2355 163.204 -12.4094 161.755C-1.95283 158.441 -0.344124 139.388 6.49287 131.725C11.7212 125.927 20.5691 122.82 27.0039 126.962C29.8191 128.826 31.83 132.14 31.2267 135.66C30.2213 142.495 22.5799 145.808 18.156 149.743C12.9277 154.506 7.29723 159.684 2.87329 165.275C1.66676 166.725 0.0580521 172.938 0.0580521 174.802C0.25914 177.908 3.07437 180.601 5.28634 182.257C17.1505 190.748 33.4387 197.997 47.917 198.825C57.9715 199.447 68.2269 198.411 77.8792 195.719C81.2977 194.683 84.9173 193.441 87.5314 190.748C89.9445 188.056 90.9499 183.5 88.5368 180.601C83.5096 174.388 81.4988 165.897 82.3031 158.027C82.9064 154.092 85.3194 140.217 90.3466 140.424Z" fill="#528A85"/>
<path d="M155.097 137.525C155.097 137.525 155.097 137.732 155.097 137.525C154.494 138.354 153.489 138.354 152.885 137.732C134.988 121.372 111.26 114.123 88.1349 107.082C83.3087 105.632 78.2815 103.975 73.4554 102.526C46.7107 93.8276 20.7703 81.8159 -4.36571 70.2185C-5.17006 69.8043 -5.37114 68.9759 -5.17006 68.1475C-4.76788 67.3191 -3.96353 67.112 -3.15917 67.3191C21.9768 78.9166 47.7161 90.7212 74.2598 99.4193C79.0859 101.076 84.1131 102.526 88.9392 103.975C112.265 111.224 136.396 118.472 154.695 135.247C155.499 136.076 155.7 136.904 155.097 137.525Z" fill="#70AC9A"/>
<path d="M65.412 180.808C65.2109 181.015 65.0098 181.222 64.6076 181.429C63.8033 181.636 62.9989 181.222 62.7978 180.394C56.1619 156.37 54.9554 130.69 59.7815 106.045C59.9826 105.217 60.7869 104.596 61.5913 104.803C62.3956 105.01 62.9989 105.838 62.7978 106.667C58.1728 130.69 59.1782 155.956 65.8141 179.565C65.8141 179.772 65.8141 180.394 65.412 180.808Z" fill="#70AC9A"/>
<path d="M21.1729 91.9623C20.9718 92.1694 20.7707 92.3765 20.5696 92.3765C12.5261 96.3114 3.07495 101.282 -4.5664 108.737C-12.4088 116.4 -17.235 125.512 -18.0393 134.625C-18.0393 135.453 -18.8437 136.074 -19.648 136.074C-20.4524 136.074 -21.0556 135.246 -21.0556 134.417C-20.0502 124.477 -14.8219 114.743 -6.57728 106.459C1.46624 98.7965 10.9174 93.6191 19.3631 89.4771C20.1674 89.0629 20.9718 89.4771 21.374 90.3055C21.5751 90.9268 21.5751 91.5481 21.1729 91.9623Z" fill="#70AC9A"/>
<path d="M-0.142673 89.6854C-0.343761 90.0996 -0.745945 90.3067 -1.34921 90.3067C-14.2189 90.7209 -26.2841 98.5906 -32.3168 110.188C-32.719 111.016 -33.5233 111.224 -34.3277 110.809C-35.132 110.395 -35.3331 109.567 -34.9309 108.738C-28.4961 96.1054 -15.2243 87.6144 -1.34921 87.2002C-0.544857 87.2002 0.259495 87.8215 0.259495 88.6499C0.0584068 89.0641 0.0584145 89.2712 -0.142673 89.6854Z" fill="#70AC9A"/>
<path d="M37.26 73.739C37.0589 73.9461 36.8578 74.1532 36.4556 74.3603C35.6513 74.5674 34.8469 74.1532 34.4447 73.5319C27.8088 55.1002 30.2219 33.3549 40.4774 16.787C40.8796 15.9586 41.885 15.9586 42.4883 16.3728C43.0915 16.787 43.2926 17.8225 42.8904 18.4438C33.0371 34.1833 30.8252 54.8931 37.0589 72.4964C37.6622 72.9106 37.4611 73.3248 37.26 73.739Z" fill="#70AC9A"/>
<path d="M114.477 58.8279C114.075 59.4492 113.27 59.6563 112.667 59.2421C110.857 58.4137 108.645 59.035 106.433 59.8634C102.613 61.3131 98.7921 62.9699 95.1725 64.8337C88.7377 68.1473 83.9116 71.2538 80.292 74.9815C75.667 79.5377 72.4496 84.7152 71.042 90.0997C70.8409 90.9281 70.0365 91.3423 69.2322 91.1352C68.4278 90.9281 68.0256 90.0997 68.2267 89.2713C69.6343 83.2655 73.2539 77.4667 78.2811 72.7035C82.3029 68.7686 87.3301 65.455 93.966 62.1415C97.7867 60.2776 101.607 58.4137 105.428 56.964C108.243 55.9285 111.26 55.1001 114.075 56.3427C114.879 56.7569 115.08 57.5853 114.678 58.4137C114.477 58.6208 114.477 58.8279 114.477 58.8279Z" fill="#70AC9A"/>
<path d="M121.918 152.437C121.717 152.645 121.516 152.852 121.315 153.059C120.51 153.473 119.706 153.059 119.304 152.23C113.874 139.39 104.423 128.207 92.7602 120.959C91.9558 120.544 91.7547 119.509 92.1569 118.888C92.5591 118.266 93.5645 117.852 94.1678 118.266C106.434 125.929 116.287 137.526 121.918 150.988C122.32 151.402 122.32 152.023 121.918 152.437Z" fill="#70AC9A"/>
<path d="M141.624 112.053C141.222 112.675 140.217 112.882 139.613 112.467C134.385 108.74 129.559 106.462 124.934 105.426C119.304 104.183 113.874 104.805 109.651 107.083C108.847 107.497 108.043 107.29 107.64 106.462C107.238 105.633 107.439 104.805 108.244 104.391C113.271 101.698 119.304 101.077 125.738 102.527C130.766 103.769 135.994 106.047 141.423 109.982C142.027 110.396 142.228 111.225 141.624 112.053Z" fill="#70AC9A"/>
<path d="M5.88985 65.2479C5.68876 65.455 5.68876 65.6621 5.48767 65.6621C4.88441 66.0763 3.87896 65.8692 3.2757 65.2479C-4.76783 53.4433 -8.5885 38.7393 -7.58306 24.4496C-7.58306 23.6212 -6.7787 22.9999 -5.97435 22.9999C-5.17 22.9999 -4.56673 23.8283 -4.56673 24.6567C-5.57217 37.9109 -2.15368 51.7865 5.28658 62.7627C5.48767 62.9698 5.68876 63.1769 5.88985 63.384C6.29203 63.7982 6.29203 64.6266 5.88985 65.2479Z" fill="#70AC9A"/>
</svg>
